G04*
G04 #@! TF.GenerationSoftware,Altium Limited,Altium Designer,22.10.1 (41)*
G04*
G04 Layer_Physical_Order=1*
G04 Layer_Color=25308*
%FSLAX25Y25*%
%MOIN*%
G70*
G04*
G04 #@! TF.SameCoordinates,08FE9C07-7630-47CA-AEBB-85BF9774B597*
G04*
G04*
G04 #@! TF.FilePolarity,Positive*
G04*
G01*
G75*
%ADD10R,0.01600X0.08000*%
%ADD14C,0.00800*%
%ADD15C,0.06000*%
%ADD16R,0.06200X0.06200*%
%ADD17C,0.06200*%
%ADD18C,0.01000*%
D10*
X32658Y5000D02*
D03*
X29902D02*
D03*
X27146D02*
D03*
X24390D02*
D03*
X21634D02*
D03*
X18878D02*
D03*
X16122D02*
D03*
X13366D02*
D03*
X10610D02*
D03*
X7854D02*
D03*
X5098D02*
D03*
X2342D02*
D03*
D14*
X43600Y228500D02*
X47600Y232500D01*
X42000Y228500D02*
X43600D01*
X32756Y219256D02*
X42000Y228500D01*
X47600Y232500D02*
Y239900D01*
X42500Y245000D02*
X47600Y239900D01*
X12500Y245000D02*
X17500Y240000D01*
X16122Y226122D02*
X17500Y227500D01*
Y240000D01*
X-2400Y229900D02*
X5098Y222402D01*
X-2400Y229900D02*
Y239900D01*
X-7500Y245000D02*
X-2400Y239900D01*
X5098Y7756D02*
Y222402D01*
X-7500Y235000D02*
X-7169Y234669D01*
Y231169D02*
Y234669D01*
X2342Y7756D02*
Y221657D01*
X-7169Y231169D02*
X2342Y221657D01*
X2500Y230500D02*
X7504Y225496D01*
X7854Y7756D01*
X2500Y230500D02*
Y235000D01*
X16122Y7756D02*
Y226122D01*
X22500Y228500D02*
Y235000D01*
X18878Y224878D02*
X22500Y228500D01*
X18878Y224878D02*
X18878Y7756D01*
X22500Y245000D02*
X27500Y240000D01*
X21634Y222634D02*
X27500Y228500D01*
Y240000D01*
X21634Y7756D02*
Y222634D01*
X32500Y230000D02*
Y235000D01*
X24390Y7756D02*
Y221890D01*
X32500Y230000D01*
X41830Y234330D02*
X42500Y235000D01*
X41830Y231330D02*
Y234330D01*
X29901Y219402D02*
X41830Y231330D01*
X32756Y7756D02*
Y219256D01*
X29901Y219402D02*
X29902Y7756D01*
X32500Y245000D02*
X37000Y240500D01*
X27146Y220946D02*
X37000Y230800D01*
Y240500D01*
X27146Y7756D02*
Y220946D01*
X7500Y232600D02*
X10610Y229490D01*
X2500Y245000D02*
X7500Y240000D01*
Y232600D02*
Y240000D01*
X24390Y5098D02*
Y7756D01*
X12500Y235000D02*
X13366Y234134D01*
Y228000D02*
Y234134D01*
X10610Y228000D02*
Y229490D01*
X32658Y5197D02*
Y7756D01*
Y5197D02*
X32756Y5098D01*
X27146Y5098D02*
Y7756D01*
X21634Y5098D02*
Y7756D01*
X18878Y5098D02*
Y7756D01*
X16122Y5098D02*
Y7756D01*
X13366Y228000D02*
X13366Y7756D01*
Y5098D02*
Y7756D01*
X10610Y228000D02*
X10610Y7756D01*
Y5098D02*
Y7756D01*
X7854Y5098D02*
Y7756D01*
X5098Y5098D02*
Y7756D01*
Y5098D02*
X5098Y5098D01*
X2342Y5000D02*
Y7756D01*
X29902Y5098D02*
Y7756D01*
X27146Y5098D02*
X27146Y5098D01*
X24390Y5098D02*
X24390Y5098D01*
X21634Y5098D02*
X21634Y5098D01*
X18878Y5098D02*
X18878Y5098D01*
X16122Y5098D02*
X16122Y5098D01*
X13366Y5098D02*
X13366Y5098D01*
X10610Y5098D02*
X10610Y5098D01*
D15*
X42500Y245000D02*
D03*
Y235000D02*
D03*
X32500Y245000D02*
D03*
Y235000D02*
D03*
D16*
X-7500D02*
D03*
D17*
Y245000D02*
D03*
X2500Y235000D02*
D03*
Y245000D02*
D03*
X12500Y235000D02*
D03*
Y245000D02*
D03*
X22500Y235000D02*
D03*
Y245000D02*
D03*
D18*
X32756Y2342D02*
D03*
Y7756D02*
D03*
Y5098D02*
D03*
X29902Y2342D02*
D03*
Y7756D02*
D03*
Y5098D02*
D03*
X27146Y2342D02*
D03*
Y7756D02*
D03*
Y5098D02*
D03*
X24390Y2342D02*
D03*
Y7756D02*
D03*
Y5098D02*
D03*
X21634Y2342D02*
D03*
Y7756D02*
D03*
Y5098D02*
D03*
X18878Y2342D02*
D03*
Y7756D02*
D03*
Y5098D02*
D03*
X16122Y2342D02*
D03*
Y7756D02*
D03*
Y5098D02*
D03*
X13366Y2342D02*
D03*
Y7756D02*
D03*
Y5098D02*
D03*
X10610Y2342D02*
D03*
Y7756D02*
D03*
Y5098D02*
D03*
X7854Y2342D02*
D03*
Y7756D02*
D03*
Y5098D02*
D03*
X5098Y2342D02*
D03*
Y7756D02*
D03*
Y5098D02*
D03*
X2342Y2342D02*
D03*
Y7756D02*
D03*
Y5098D02*
D03*
M02*
