M48
;Layer_Color=6321
;FILE_FORMAT=2:5
INCH,LZ
;TYPE=PLATED
T1F00S00C0.01000
T2F00S00C0.03000
T3F00S00C0.03800
%
T01
X0002342Y0002342
Y0005098
Y0007756
X0005098
Y0005098
Y0002342
X0007854
Y0005098
Y0007756
X001061
Y0005098
Y0002342
X0013366
Y0005098
Y0007756
X0016122
Y0005098
Y0002342
X0018878
Y0005098
Y0007756
X0021634
Y0005098
Y0002342
X002439
Y0005098
Y0007756
X0027146
Y0005098
Y0002342
X0029902
Y0005098
Y0007756
X0032756
Y0005098
Y0002342
T02
X00325Y0235
X00425
Y0245
X00325
T03
X-00075Y0235
Y0245
X00025
Y0235
X00125
Y0245
X00225
Y0235
M30
