G04*
G04 #@! TF.GenerationSoftware,Altium Limited,Altium Designer,22.10.1 (41)*
G04*
G04 Layer_Physical_Order=2*
G04 Layer_Color=11436288*
%FSLAX25Y25*%
%MOIN*%
G70*
G04*
G04 #@! TF.SameCoordinates,08FE9C07-7630-47CA-AEBB-85BF9774B597*
G04*
G04*
G04 #@! TF.FilePolarity,Positive*
G04*
G01*
G75*
%ADD10R,0.01600X0.08000*%
%ADD14C,0.00800*%
%ADD15C,0.06000*%
%ADD16R,0.06200X0.06200*%
%ADD17C,0.06200*%
%ADD18C,0.01000*%
G36*
X33500Y10500D02*
X1000D01*
Y226500D01*
X33500D01*
Y10500D01*
D02*
G37*
D10*
X32658Y5000D02*
D03*
X29902D02*
D03*
X27146D02*
D03*
X24390D02*
D03*
X21634D02*
D03*
X18878D02*
D03*
X16122D02*
D03*
X13366D02*
D03*
X10610D02*
D03*
X7854D02*
D03*
X5098D02*
D03*
X2342D02*
D03*
D14*
X-7500Y235000D02*
X2500Y225000D01*
X2342Y7756D02*
Y11600D01*
X2300D02*
X2342D01*
D15*
X42500Y245000D02*
D03*
Y235000D02*
D03*
X32500Y245000D02*
D03*
Y235000D02*
D03*
D16*
X-7500D02*
D03*
D17*
Y245000D02*
D03*
X2500Y235000D02*
D03*
Y245000D02*
D03*
X12500Y235000D02*
D03*
Y245000D02*
D03*
X22500Y235000D02*
D03*
Y245000D02*
D03*
D18*
X32756Y2342D02*
D03*
Y7756D02*
D03*
Y5098D02*
D03*
X29902Y2342D02*
D03*
Y7756D02*
D03*
Y5098D02*
D03*
X27146Y2342D02*
D03*
Y7756D02*
D03*
Y5098D02*
D03*
X24390Y2342D02*
D03*
Y7756D02*
D03*
Y5098D02*
D03*
X21634Y2342D02*
D03*
Y7756D02*
D03*
Y5098D02*
D03*
X18878Y2342D02*
D03*
Y7756D02*
D03*
Y5098D02*
D03*
X16122Y2342D02*
D03*
Y7756D02*
D03*
Y5098D02*
D03*
X13366Y2342D02*
D03*
Y7756D02*
D03*
Y5098D02*
D03*
X10610Y2342D02*
D03*
Y7756D02*
D03*
Y5098D02*
D03*
X7854Y2342D02*
D03*
Y7756D02*
D03*
Y5098D02*
D03*
X5098Y2342D02*
D03*
Y7756D02*
D03*
Y5098D02*
D03*
X2342Y2342D02*
D03*
Y7756D02*
D03*
Y5098D02*
D03*
M02*
