G04*
G04 #@! TF.GenerationSoftware,Altium Limited,Altium Designer,22.10.1 (41)*
G04*
G04 Layer_Color=13813960*
%FSLAX25Y25*%
%MOIN*%
G70*
G04*
G04 #@! TF.SameCoordinates,08FE9C07-7630-47CA-AEBB-85BF9774B597*
G04*
G04*
G04 #@! TF.FilePolarity,Positive*
G04*
G01*
G75*
G36*
X20900Y118250D02*
Y60004D01*
X34903D01*
Y13600D01*
X0D01*
Y60004D01*
X13400D01*
Y118250D01*
X20900D01*
D02*
G37*
G36*
X33449Y121750D02*
X28225Y119648D01*
X33449Y119672D01*
Y118263D01*
X26244Y118591D01*
X21712Y117777D01*
Y119186D01*
X26268Y120013D01*
X33449Y123245D01*
Y121750D01*
D02*
G37*
G36*
Y114424D02*
X21712Y112297D01*
Y115469D01*
X23024Y115711D01*
Y113974D01*
X27107Y114703D01*
Y116453D01*
X28419Y116696D01*
Y114946D01*
X32137Y115602D01*
Y117376D01*
X33449Y117607D01*
Y114424D01*
D02*
G37*
G36*
Y112358D02*
X28407Y109600D01*
X33449Y110511D01*
Y109102D01*
X21712Y106976D01*
Y108385D01*
X27095Y109357D01*
X21712Y110220D01*
Y111714D01*
X27556Y110633D01*
X33449Y113889D01*
Y112358D01*
D02*
G37*
G36*
Y106708D02*
X32842Y106599D01*
X32246Y106502D01*
X31687Y106404D01*
X31153Y106307D01*
X30642Y106222D01*
X30144Y106149D01*
X29682Y106077D01*
X29245Y106004D01*
X28820Y105943D01*
X28419Y105882D01*
X28042Y105821D01*
X27690Y105773D01*
X27350Y105736D01*
X27034Y105688D01*
X26742Y105651D01*
X26475Y105615D01*
X26220Y105590D01*
X25977Y105566D01*
X25758Y105542D01*
X25564Y105518D01*
X25381Y105505D01*
X25223Y105481D01*
X25078Y105469D01*
X24944D01*
X24835Y105457D01*
X24737Y105445D01*
X24665D01*
X24592Y105432D01*
X24737D01*
X25017Y105420D01*
X25308D01*
X25612Y105408D01*
X25940Y105396D01*
X26281Y105372D01*
X26985Y105335D01*
X27714Y105287D01*
X28468Y105226D01*
X29209Y105165D01*
X29950Y105117D01*
X30642Y105056D01*
X30983Y105019D01*
X31299Y104995D01*
X31602Y104971D01*
X31894Y104934D01*
X32161Y104910D01*
X32416Y104886D01*
X32647Y104874D01*
X32842Y104849D01*
X33024Y104837D01*
X33170Y104813D01*
X33291Y104801D01*
X33376D01*
X33437Y104789D01*
X33449D01*
Y103367D01*
X21712Y101241D01*
Y102662D01*
X22332Y102772D01*
X22915Y102881D01*
X23486Y102978D01*
X24021Y103063D01*
X24531Y103148D01*
X25017Y103233D01*
X25479Y103306D01*
X25916Y103367D01*
X26329Y103440D01*
X26718Y103489D01*
X27082Y103549D01*
X27435Y103598D01*
X27763Y103647D01*
X28067Y103683D01*
X28346Y103719D01*
X28601Y103756D01*
X28844Y103792D01*
X29075Y103817D01*
X29282Y103841D01*
X29464Y103865D01*
X29634Y103877D01*
X29780Y103890D01*
X29926Y103902D01*
X30035Y103914D01*
X30144Y103926D01*
X30229Y103938D01*
X30302D01*
X30363Y103950D01*
X30217D01*
X29962Y103962D01*
X29682D01*
X29391Y103974D01*
X29075Y103987D01*
X28747Y104011D01*
X28067Y104048D01*
X27350Y104096D01*
X26621Y104145D01*
X25892Y104205D01*
X25175Y104266D01*
X24482Y104315D01*
X24154Y104351D01*
X23838Y104376D01*
X23535Y104400D01*
X23255Y104424D01*
X22988Y104448D01*
X22733Y104473D01*
X22514Y104497D01*
X22308Y104509D01*
X22137Y104533D01*
X21992Y104546D01*
X21870Y104558D01*
X21785D01*
X21736Y104570D01*
X21712D01*
Y105991D01*
X33449Y108118D01*
Y106708D01*
D02*
G37*
G36*
X32526Y102176D02*
X32671Y102140D01*
X32805Y102091D01*
X32914Y102031D01*
X33012Y101970D01*
X33072Y101921D01*
X33121Y101885D01*
X33133Y101873D01*
X33242Y101751D01*
X33315Y101630D01*
X33376Y101508D01*
X33413Y101399D01*
X33437Y101289D01*
X33449Y101216D01*
Y99151D01*
X33437Y98981D01*
X33400Y98835D01*
X33352Y98689D01*
X33303Y98568D01*
X33242Y98471D01*
X33194Y98386D01*
X33158Y98337D01*
X33145Y98325D01*
X33024Y98203D01*
X32902Y98106D01*
X32769Y98021D01*
X32647Y97960D01*
X32538Y97924D01*
X32453Y97900D01*
X32404Y97875D01*
X32380D01*
X22988Y96199D01*
X22781D01*
X22623Y96211D01*
X22478Y96247D01*
X22344Y96296D01*
X22235Y96344D01*
X22137Y96393D01*
X22077Y96442D01*
X22028Y96478D01*
X22016Y96490D01*
X21919Y96612D01*
X21846Y96733D01*
X21785Y96855D01*
X21749Y96976D01*
X21724Y97073D01*
X21712Y97158D01*
Y99187D01*
X21724Y99358D01*
X21761Y99515D01*
X21809Y99661D01*
X21858Y99783D01*
X21906Y99880D01*
X21955Y99965D01*
X21992Y100014D01*
X22004Y100026D01*
X22125Y100160D01*
X22259Y100257D01*
X22392Y100329D01*
X22514Y100390D01*
X22623Y100427D01*
X22708Y100463D01*
X22757Y100475D01*
X22781D01*
X32185Y102164D01*
X32246Y102176D01*
X32307Y102189D01*
X32355D01*
X32368D01*
X32526Y102176D01*
D02*
G37*
G36*
X33449Y95166D02*
X24993Y92335D01*
X33449Y92432D01*
Y90743D01*
X21712Y88605D01*
Y90026D01*
X29124Y91302D01*
X21712Y91205D01*
Y92408D01*
X29026Y94874D01*
X21712Y93574D01*
Y94996D01*
X33449Y97122D01*
Y95166D01*
D02*
G37*
G36*
X32550Y87074D02*
X32696Y87037D01*
X32817Y86989D01*
X32927Y86928D01*
X33012Y86867D01*
X33085Y86819D01*
X33121Y86782D01*
X33133Y86770D01*
X33242Y86649D01*
X33315Y86527D01*
X33376Y86393D01*
X33413Y86284D01*
X33437Y86175D01*
X33449Y86102D01*
Y82882D01*
X21712Y80780D01*
Y82214D01*
X26888Y83125D01*
Y84267D01*
X26876Y84364D01*
X26839Y84437D01*
X26791Y84486D01*
X26779Y84498D01*
X26706Y84559D01*
X26633Y84595D01*
X26572Y84607D01*
X26560D01*
X26548D01*
X26511D01*
X21712Y83745D01*
Y85179D01*
X26341Y86041D01*
X26402D01*
X26463D01*
X26511D01*
X26536D01*
X26621Y86053D01*
X26645D01*
X26657D01*
X26839Y86029D01*
X26985Y85993D01*
X27046Y85968D01*
X27095Y85956D01*
X27119Y85932D01*
X27131D01*
X27228Y85871D01*
X27301Y85798D01*
X27374Y85725D01*
X27423Y85664D01*
X27459Y85592D01*
X27483Y85543D01*
X27508Y85507D01*
Y85494D01*
X27556Y85628D01*
X27605Y85750D01*
X27678Y85859D01*
X27751Y85956D01*
X27909Y86114D01*
X28079Y86236D01*
X28237Y86321D01*
X28370Y86369D01*
X28419Y86393D01*
X28455D01*
X28480Y86406D01*
X28492D01*
X32185Y87062D01*
X32283Y87074D01*
X32343Y87086D01*
X32380Y87098D01*
X32392D01*
X32550Y87074D01*
D02*
G37*
G36*
X33449Y78739D02*
X21712Y76613D01*
Y79784D01*
X23024Y80027D01*
Y78289D01*
X27107Y79018D01*
Y80768D01*
X28419Y81011D01*
Y79261D01*
X32137Y79918D01*
Y81691D01*
X33449Y81922D01*
Y78739D01*
D02*
G37*
G36*
X32574Y77548D02*
X32696Y77512D01*
X32817Y77463D01*
X32927Y77415D01*
X33000Y77354D01*
X33072Y77305D01*
X33109Y77269D01*
X33121Y77257D01*
X33230Y77135D01*
X33315Y77002D01*
X33364Y76880D01*
X33413Y76759D01*
X33437Y76661D01*
X33449Y76576D01*
Y73429D01*
X21700Y71303D01*
Y72713D01*
X26961Y73672D01*
Y75507D01*
X26973Y75677D01*
X27010Y75835D01*
X27058Y75981D01*
X27107Y76102D01*
X27155Y76200D01*
X27204Y76273D01*
X27240Y76321D01*
X27253Y76333D01*
X27374Y76455D01*
X27508Y76552D01*
X27629Y76637D01*
X27751Y76698D01*
X27860Y76734D01*
X27957Y76759D01*
X28006Y76783D01*
X28030D01*
X32185Y77524D01*
X32283Y77548D01*
X32355Y77561D01*
X32404D01*
X32428D01*
X32574Y77548D01*
D02*
G37*
G36*
X33449Y71084D02*
X23425Y69262D01*
X23292Y69226D01*
X23194Y69153D01*
X23122Y69068D01*
X23073Y68983D01*
X23049Y68897D01*
X23036Y68837D01*
X23024Y68788D01*
Y68011D01*
X23036Y67913D01*
X23073Y67840D01*
X23109Y67792D01*
X23122Y67768D01*
X23207Y67719D01*
X23280Y67695D01*
X23340Y67682D01*
X23365D01*
X23413D01*
X33449Y69481D01*
Y68120D01*
X22964Y66237D01*
X22757D01*
X22599Y66249D01*
X22466Y66285D01*
X22332Y66334D01*
X22222Y66382D01*
X22137Y66431D01*
X22077Y66480D01*
X22028Y66516D01*
X22016Y66528D01*
X21919Y66650D01*
X21846Y66771D01*
X21785Y66893D01*
X21749Y67002D01*
X21724Y67111D01*
X21712Y67184D01*
Y69226D01*
X21724Y69396D01*
X21761Y69554D01*
X21809Y69699D01*
X21858Y69821D01*
X21906Y69918D01*
X21955Y70003D01*
X21992Y70052D01*
X22004Y70064D01*
X22125Y70198D01*
X22247Y70295D01*
X22380Y70380D01*
X22490Y70441D01*
X22599Y70477D01*
X22684Y70501D01*
X22733Y70526D01*
X22757D01*
X33449Y72482D01*
Y71084D01*
D02*
G37*
G36*
X32526Y66978D02*
X32671Y66941D01*
X32805Y66881D01*
X32914Y66832D01*
X33012Y66771D01*
X33072Y66711D01*
X33121Y66674D01*
X33133Y66662D01*
X33242Y66540D01*
X33315Y66419D01*
X33376Y66297D01*
X33413Y66188D01*
X33437Y66079D01*
X33449Y66006D01*
Y63965D01*
X33437Y63794D01*
X33400Y63636D01*
X33352Y63503D01*
X33303Y63381D01*
X33242Y63284D01*
X33194Y63199D01*
X33158Y63151D01*
X33145Y63138D01*
X33024Y63005D01*
X32902Y62908D01*
X32769Y62823D01*
X32647Y62762D01*
X32538Y62725D01*
X32453Y62701D01*
X32404Y62677D01*
X32380D01*
X30351Y62336D01*
X30241Y62324D01*
X30156Y62312D01*
X30084D01*
X30071D01*
X30059D01*
X30011D01*
X29998D01*
X29986D01*
X29768Y62324D01*
X29549Y62361D01*
X29355Y62409D01*
X29172Y62470D01*
X29014Y62519D01*
X28893Y62567D01*
X28844Y62592D01*
X28808Y62604D01*
X28796Y62616D01*
X28783D01*
X28735Y62640D01*
X28674Y62677D01*
X28589Y62725D01*
X28492Y62774D01*
X28261Y62895D01*
X28018Y63017D01*
X27787Y63138D01*
X27678Y63199D01*
X27593Y63248D01*
X27508Y63284D01*
X27447Y63321D01*
X27411Y63333D01*
X27398Y63345D01*
X27204Y63442D01*
X27034Y63539D01*
X26876Y63624D01*
X26742Y63697D01*
X26621Y63758D01*
X26511Y63819D01*
X26426Y63867D01*
X26341Y63904D01*
X26281Y63940D01*
X26220Y63965D01*
X26147Y64013D01*
X26110Y64038D01*
X26098D01*
X25916Y64135D01*
X25746Y64208D01*
X25600Y64268D01*
X25479Y64305D01*
X25381Y64329D01*
X25308Y64341D01*
X25260D01*
X25248D01*
X25187D01*
X25139Y64329D01*
X25102Y64317D01*
X25090D01*
X23438Y64025D01*
X23316Y63977D01*
X23231Y63916D01*
X23170Y63867D01*
X23146Y63855D01*
Y63843D01*
X23085Y63734D01*
X23049Y63624D01*
X23036Y63551D01*
Y62762D01*
X23049Y62665D01*
X23085Y62592D01*
X23122Y62543D01*
X23134Y62531D01*
X23219Y62470D01*
X23292Y62446D01*
X23352Y62434D01*
X23377D01*
X23425D01*
X25940Y62871D01*
Y61510D01*
X22964Y61000D01*
X22781D01*
X22623Y61012D01*
X22478Y61049D01*
X22344Y61085D01*
X22235Y61146D01*
X22137Y61194D01*
X22077Y61231D01*
X22028Y61267D01*
X22016Y61279D01*
X21919Y61401D01*
X21846Y61523D01*
X21785Y61644D01*
X21749Y61753D01*
X21724Y61851D01*
X21712Y61936D01*
Y63965D01*
X21724Y64135D01*
X21761Y64293D01*
X21809Y64438D01*
X21858Y64560D01*
X21906Y64657D01*
X21955Y64742D01*
X21992Y64791D01*
X22004Y64803D01*
X22125Y64925D01*
X22259Y65022D01*
X22392Y65107D01*
X22514Y65167D01*
X22623Y65204D01*
X22708Y65228D01*
X22757Y65253D01*
X22781D01*
X25041Y65666D01*
X25211Y65702D01*
X25357Y65714D01*
X25418Y65726D01*
X25454D01*
X25479D01*
X25491D01*
X25661Y65714D01*
X25831Y65690D01*
X25977Y65653D01*
X26098Y65617D01*
X26208Y65581D01*
X26281Y65544D01*
X26341Y65520D01*
X26353Y65508D01*
X26439Y65483D01*
X26548Y65423D01*
X26706Y65350D01*
X26888Y65253D01*
X27095Y65143D01*
X27301Y65022D01*
X27763Y64754D01*
X27981Y64621D01*
X28200Y64487D01*
X28407Y64366D01*
X28577Y64256D01*
X28735Y64171D01*
X28844Y64098D01*
X28917Y64050D01*
X28929Y64038D01*
X28941D01*
X29172Y63916D01*
X29391Y63831D01*
X29585Y63758D01*
X29768Y63722D01*
X29913Y63697D01*
X30035Y63685D01*
X30108Y63673D01*
X30120D01*
X30132D01*
X30241D01*
X30339Y63685D01*
X30411Y63697D01*
X30424D01*
X30436D01*
X31736Y63928D01*
X31845Y63965D01*
X31930Y64025D01*
X31979Y64074D01*
X32003Y64098D01*
X32076Y64208D01*
X32113Y64317D01*
X32125Y64402D01*
Y65180D01*
X32113Y65277D01*
X32076Y65350D01*
X32040Y65398D01*
X32028Y65423D01*
X31942Y65483D01*
X31870Y65520D01*
X31821Y65532D01*
X31797D01*
X31748D01*
X31736Y65520D01*
X29318Y65082D01*
Y66455D01*
X32198Y66966D01*
X32246Y66978D01*
X32307Y66990D01*
X32355D01*
X32368D01*
X32526Y66978D01*
D02*
G37*
G36*
X7154Y107097D02*
X7281Y107080D01*
X7403Y107058D01*
X7514Y107031D01*
X7625Y106997D01*
X7720Y106953D01*
X7814Y106914D01*
X7897Y106870D01*
X7970Y106825D01*
X8031Y106786D01*
X8091Y106748D01*
X8136Y106709D01*
X8169Y106681D01*
X8197Y106659D01*
X8214Y106642D01*
X8219Y106637D01*
X8303Y106548D01*
X8375Y106453D01*
X8436Y106359D01*
X8491Y106265D01*
X8536Y106170D01*
X8574Y106076D01*
X8602Y105987D01*
X8630Y105898D01*
X8647Y105821D01*
X8663Y105743D01*
X8669Y105676D01*
X8680Y105621D01*
Y105577D01*
X8685Y105538D01*
Y105510D01*
X8680Y105416D01*
X8674Y105321D01*
X8658Y105232D01*
X8636Y105144D01*
X8585Y104983D01*
X8552Y104905D01*
X8524Y104838D01*
X8497Y104772D01*
X8463Y104716D01*
X8436Y104666D01*
X8414Y104622D01*
X8391Y104589D01*
X8380Y104566D01*
X8369Y104550D01*
X8364Y104544D01*
X9740Y104816D01*
Y106864D01*
X10339D01*
Y104317D01*
X7709Y103823D01*
X7625Y104411D01*
X7703Y104466D01*
X7775Y104527D01*
X7836Y104594D01*
X7892Y104650D01*
X7931Y104705D01*
X7964Y104750D01*
X7981Y104777D01*
X7986Y104788D01*
X8036Y104883D01*
X8069Y104977D01*
X8097Y105071D01*
X8114Y105160D01*
X8125Y105232D01*
X8130Y105294D01*
Y105343D01*
X8125Y105432D01*
X8119Y105516D01*
X8103Y105599D01*
X8081Y105671D01*
X8031Y105810D01*
X8003Y105865D01*
X7975Y105921D01*
X7942Y105971D01*
X7914Y106009D01*
X7886Y106048D01*
X7864Y106076D01*
X7842Y106098D01*
X7825Y106120D01*
X7820Y106126D01*
X7814Y106131D01*
X7753Y106187D01*
X7686Y106231D01*
X7620Y106276D01*
X7553Y106309D01*
X7409Y106365D01*
X7276Y106398D01*
X7209Y106409D01*
X7154Y106420D01*
X7098Y106426D01*
X7054Y106431D01*
X7015Y106437D01*
X6987D01*
X6970D01*
X6965D01*
X6859Y106431D01*
X6765Y106426D01*
X6671Y106409D01*
X6582Y106387D01*
X6504Y106365D01*
X6427Y106337D01*
X6360Y106309D01*
X6299Y106281D01*
X6243Y106248D01*
X6193Y106220D01*
X6155Y106193D01*
X6116Y106170D01*
X6088Y106148D01*
X6071Y106131D01*
X6060Y106126D01*
X6055Y106120D01*
X5994Y106059D01*
X5944Y105998D01*
X5899Y105937D01*
X5861Y105871D01*
X5827Y105804D01*
X5799Y105743D01*
X5760Y105621D01*
X5733Y105516D01*
X5727Y105471D01*
X5722Y105432D01*
X5716Y105399D01*
Y105354D01*
X5722Y105282D01*
X5727Y105216D01*
X5755Y105094D01*
X5794Y104983D01*
X5838Y104888D01*
X5877Y104811D01*
X5916Y104755D01*
X5933Y104733D01*
X5944Y104716D01*
X5955Y104711D01*
Y104705D01*
X6005Y104661D01*
X6055Y104616D01*
X6166Y104544D01*
X6288Y104483D01*
X6404Y104439D01*
X6510Y104411D01*
X6560Y104394D01*
X6599Y104389D01*
X6632Y104383D01*
X6654Y104378D01*
X6671Y104372D01*
X6676D01*
X6626Y103712D01*
X6510Y103728D01*
X6393Y103751D01*
X6288Y103778D01*
X6188Y103817D01*
X6099Y103856D01*
X6010Y103895D01*
X5933Y103939D01*
X5866Y103984D01*
X5799Y104028D01*
X5744Y104067D01*
X5700Y104106D01*
X5661Y104145D01*
X5627Y104172D01*
X5605Y104195D01*
X5594Y104206D01*
X5588Y104211D01*
X5522Y104300D01*
X5461Y104389D01*
X5411Y104483D01*
X5367Y104578D01*
X5328Y104672D01*
X5294Y104766D01*
X5267Y104860D01*
X5250Y104949D01*
X5233Y105033D01*
X5222Y105110D01*
X5211Y105177D01*
X5206Y105238D01*
X5200Y105288D01*
Y105354D01*
X5206Y105510D01*
X5228Y105654D01*
X5255Y105793D01*
X5300Y105921D01*
X5344Y106043D01*
X5394Y106154D01*
X5455Y106254D01*
X5511Y106342D01*
X5566Y106426D01*
X5627Y106498D01*
X5677Y106559D01*
X5727Y106609D01*
X5766Y106648D01*
X5794Y106675D01*
X5816Y106692D01*
X5822Y106698D01*
X5916Y106770D01*
X6016Y106831D01*
X6121Y106886D01*
X6221Y106931D01*
X6321Y106970D01*
X6421Y107003D01*
X6521Y107031D01*
X6610Y107053D01*
X6699Y107070D01*
X6776Y107080D01*
X6843Y107092D01*
X6904Y107097D01*
X6954Y107103D01*
X6987D01*
X7015D01*
X7020D01*
X7154Y107097D01*
D02*
G37*
G36*
X5888Y100509D02*
X6010Y100598D01*
X6066Y100643D01*
X6116Y100687D01*
X6160Y100726D01*
X6193Y100753D01*
X6216Y100776D01*
X6221Y100781D01*
X6255Y100815D01*
X6299Y100859D01*
X6343Y100909D01*
X6393Y100964D01*
X6504Y101081D01*
X6610Y101203D01*
X6710Y101320D01*
X6754Y101370D01*
X6793Y101420D01*
X6826Y101453D01*
X6848Y101486D01*
X6865Y101503D01*
X6871Y101508D01*
X6976Y101630D01*
X7076Y101747D01*
X7165Y101852D01*
X7254Y101947D01*
X7331Y102036D01*
X7409Y102113D01*
X7475Y102185D01*
X7536Y102252D01*
X7587Y102308D01*
X7637Y102352D01*
X7675Y102391D01*
X7709Y102424D01*
X7736Y102446D01*
X7753Y102469D01*
X7764Y102474D01*
X7770Y102480D01*
X7892Y102585D01*
X8003Y102668D01*
X8108Y102741D01*
X8202Y102802D01*
X8280Y102846D01*
X8341Y102879D01*
X8364Y102890D01*
X8380Y102896D01*
X8386Y102901D01*
X8391D01*
X8502Y102946D01*
X8613Y102974D01*
X8713Y102996D01*
X8807Y103012D01*
X8885Y103024D01*
X8946Y103029D01*
X8968D01*
X8985D01*
X8991D01*
X8996D01*
X9107Y103024D01*
X9213Y103012D01*
X9313Y102990D01*
X9412Y102962D01*
X9501Y102929D01*
X9584Y102890D01*
X9662Y102851D01*
X9729Y102813D01*
X9795Y102774D01*
X9851Y102735D01*
X9901Y102696D01*
X9940Y102663D01*
X9967Y102635D01*
X9995Y102613D01*
X10006Y102602D01*
X10012Y102596D01*
X10084Y102513D01*
X10145Y102424D01*
X10200Y102330D01*
X10250Y102230D01*
X10289Y102136D01*
X10323Y102036D01*
X10350Y101941D01*
X10373Y101847D01*
X10389Y101764D01*
X10400Y101680D01*
X10412Y101608D01*
X10417Y101547D01*
X10423Y101497D01*
Y101425D01*
X10417Y101292D01*
X10406Y101164D01*
X10389Y101048D01*
X10362Y100937D01*
X10334Y100831D01*
X10300Y100737D01*
X10267Y100648D01*
X10234Y100570D01*
X10195Y100498D01*
X10162Y100437D01*
X10128Y100382D01*
X10101Y100337D01*
X10073Y100304D01*
X10056Y100282D01*
X10045Y100265D01*
X10040Y100260D01*
X9967Y100182D01*
X9884Y100115D01*
X9801Y100054D01*
X9707Y99999D01*
X9618Y99954D01*
X9529Y99910D01*
X9435Y99877D01*
X9351Y99849D01*
X9268Y99821D01*
X9190Y99805D01*
X9118Y99788D01*
X9057Y99777D01*
X9007Y99771D01*
X8974Y99766D01*
X8952Y99760D01*
X8941D01*
X8874Y100404D01*
X8963Y100409D01*
X9046Y100415D01*
X9190Y100448D01*
X9324Y100493D01*
X9379Y100515D01*
X9429Y100543D01*
X9473Y100565D01*
X9512Y100593D01*
X9546Y100615D01*
X9573Y100631D01*
X9596Y100654D01*
X9612Y100665D01*
X9618Y100670D01*
X9623Y100676D01*
X9673Y100731D01*
X9718Y100787D01*
X9751Y100848D01*
X9784Y100909D01*
X9834Y101031D01*
X9867Y101148D01*
X9884Y101248D01*
X9895Y101292D01*
Y101331D01*
X9901Y101364D01*
Y101486D01*
X9890Y101564D01*
X9862Y101703D01*
X9818Y101819D01*
X9773Y101925D01*
X9723Y102002D01*
X9701Y102036D01*
X9679Y102063D01*
X9662Y102086D01*
X9651Y102102D01*
X9646Y102108D01*
X9640Y102113D01*
X9590Y102163D01*
X9540Y102202D01*
X9490Y102241D01*
X9435Y102269D01*
X9329Y102319D01*
X9229Y102352D01*
X9146Y102369D01*
X9107Y102380D01*
X9074D01*
X9052Y102385D01*
X9030D01*
X9018D01*
X9013D01*
X8946Y102380D01*
X8880Y102374D01*
X8747Y102341D01*
X8619Y102291D01*
X8502Y102235D01*
X8402Y102180D01*
X8364Y102158D01*
X8325Y102130D01*
X8297Y102113D01*
X8275Y102097D01*
X8264Y102091D01*
X8258Y102086D01*
X8180Y102024D01*
X8097Y101952D01*
X8008Y101869D01*
X7920Y101780D01*
X7736Y101597D01*
X7564Y101409D01*
X7481Y101320D01*
X7409Y101231D01*
X7342Y101153D01*
X7287Y101086D01*
X7237Y101031D01*
X7203Y100992D01*
X7176Y100964D01*
X7170Y100953D01*
X7087Y100853D01*
X7009Y100765D01*
X6937Y100676D01*
X6865Y100598D01*
X6798Y100521D01*
X6732Y100454D01*
X6676Y100393D01*
X6621Y100337D01*
X6571Y100287D01*
X6526Y100249D01*
X6488Y100210D01*
X6460Y100182D01*
X6432Y100154D01*
X6415Y100137D01*
X6404Y100132D01*
X6399Y100126D01*
X6277Y100027D01*
X6155Y99943D01*
X6038Y99871D01*
X5933Y99816D01*
X5844Y99771D01*
X5805Y99755D01*
X5777Y99738D01*
X5750Y99727D01*
X5733Y99721D01*
X5722Y99716D01*
X5716D01*
X5638Y99688D01*
X5561Y99671D01*
X5489Y99655D01*
X5422Y99649D01*
X5367Y99644D01*
X5322D01*
X5294D01*
X5283D01*
Y103035D01*
X5888D01*
Y100509D01*
D02*
G37*
G36*
X7453Y97274D02*
X6821D01*
Y99211D01*
X7453D01*
Y97274D01*
D02*
G37*
G36*
X10423Y95331D02*
X10295Y95259D01*
X10173Y95176D01*
X10056Y95081D01*
X9956Y94987D01*
X9862Y94904D01*
X9829Y94865D01*
X9795Y94837D01*
X9768Y94810D01*
X9751Y94787D01*
X9740Y94776D01*
X9734Y94771D01*
X9607Y94621D01*
X9496Y94460D01*
X9390Y94304D01*
X9301Y94160D01*
X9268Y94099D01*
X9235Y94038D01*
X9202Y93983D01*
X9179Y93938D01*
X9163Y93899D01*
X9146Y93872D01*
X9140Y93855D01*
X9135Y93849D01*
X8530D01*
X8574Y93960D01*
X8624Y94077D01*
X8680Y94188D01*
X8730Y94288D01*
X8780Y94377D01*
X8796Y94415D01*
X8819Y94449D01*
X8830Y94476D01*
X8841Y94493D01*
X8852Y94504D01*
Y94510D01*
X8935Y94643D01*
X9013Y94760D01*
X9085Y94865D01*
X9152Y94948D01*
X9207Y95020D01*
X9246Y95070D01*
X9274Y95098D01*
X9285Y95109D01*
X5283D01*
Y95736D01*
X10423D01*
Y95331D01*
D02*
G37*
G36*
Y91352D02*
X10295Y91280D01*
X10173Y91197D01*
X10056Y91102D01*
X9956Y91008D01*
X9862Y90925D01*
X9829Y90886D01*
X9795Y90858D01*
X9768Y90830D01*
X9751Y90808D01*
X9740Y90797D01*
X9734Y90791D01*
X9607Y90641D01*
X9496Y90481D01*
X9390Y90325D01*
X9301Y90181D01*
X9268Y90120D01*
X9235Y90059D01*
X9202Y90003D01*
X9179Y89959D01*
X9163Y89920D01*
X9146Y89892D01*
X9140Y89876D01*
X9135Y89870D01*
X8530D01*
X8574Y89981D01*
X8624Y90098D01*
X8680Y90209D01*
X8730Y90308D01*
X8780Y90397D01*
X8796Y90436D01*
X8819Y90469D01*
X8830Y90497D01*
X8841Y90514D01*
X8852Y90525D01*
Y90530D01*
X8935Y90664D01*
X9013Y90780D01*
X9085Y90886D01*
X9152Y90969D01*
X9207Y91041D01*
X9246Y91091D01*
X9274Y91119D01*
X9285Y91130D01*
X5283D01*
Y91757D01*
X10423D01*
Y91352D01*
D02*
G37*
G36*
X7453Y86934D02*
X6821D01*
Y88871D01*
X7453D01*
Y86934D01*
D02*
G37*
G36*
X5888Y83809D02*
X6010Y83898D01*
X6066Y83943D01*
X6116Y83987D01*
X6160Y84026D01*
X6193Y84054D01*
X6216Y84076D01*
X6221Y84081D01*
X6255Y84115D01*
X6299Y84159D01*
X6343Y84209D01*
X6393Y84264D01*
X6504Y84381D01*
X6610Y84503D01*
X6710Y84620D01*
X6754Y84670D01*
X6793Y84720D01*
X6826Y84753D01*
X6848Y84786D01*
X6865Y84803D01*
X6871Y84808D01*
X6976Y84930D01*
X7076Y85047D01*
X7165Y85153D01*
X7254Y85247D01*
X7331Y85336D01*
X7409Y85413D01*
X7475Y85486D01*
X7536Y85552D01*
X7587Y85608D01*
X7637Y85652D01*
X7675Y85691D01*
X7709Y85724D01*
X7736Y85746D01*
X7753Y85769D01*
X7764Y85774D01*
X7770Y85780D01*
X7892Y85885D01*
X8003Y85968D01*
X8108Y86041D01*
X8202Y86102D01*
X8280Y86146D01*
X8341Y86179D01*
X8364Y86190D01*
X8380Y86196D01*
X8386Y86201D01*
X8391D01*
X8502Y86246D01*
X8613Y86274D01*
X8713Y86296D01*
X8807Y86313D01*
X8885Y86324D01*
X8946Y86329D01*
X8968D01*
X8985D01*
X8991D01*
X8996D01*
X9107Y86324D01*
X9213Y86313D01*
X9313Y86290D01*
X9412Y86263D01*
X9501Y86229D01*
X9584Y86190D01*
X9662Y86151D01*
X9729Y86113D01*
X9795Y86074D01*
X9851Y86035D01*
X9901Y85996D01*
X9940Y85963D01*
X9967Y85935D01*
X9995Y85913D01*
X10006Y85902D01*
X10012Y85896D01*
X10084Y85813D01*
X10145Y85724D01*
X10200Y85630D01*
X10250Y85530D01*
X10289Y85436D01*
X10323Y85336D01*
X10350Y85241D01*
X10373Y85147D01*
X10389Y85064D01*
X10400Y84980D01*
X10412Y84908D01*
X10417Y84847D01*
X10423Y84797D01*
Y84725D01*
X10417Y84592D01*
X10406Y84464D01*
X10389Y84348D01*
X10362Y84237D01*
X10334Y84131D01*
X10300Y84037D01*
X10267Y83948D01*
X10234Y83871D01*
X10195Y83798D01*
X10162Y83737D01*
X10128Y83682D01*
X10101Y83637D01*
X10073Y83604D01*
X10056Y83582D01*
X10045Y83565D01*
X10040Y83560D01*
X9967Y83482D01*
X9884Y83415D01*
X9801Y83354D01*
X9707Y83299D01*
X9618Y83254D01*
X9529Y83210D01*
X9435Y83177D01*
X9351Y83149D01*
X9268Y83121D01*
X9190Y83104D01*
X9118Y83088D01*
X9057Y83077D01*
X9007Y83071D01*
X8974Y83066D01*
X8952Y83060D01*
X8941D01*
X8874Y83704D01*
X8963Y83710D01*
X9046Y83715D01*
X9190Y83748D01*
X9324Y83793D01*
X9379Y83815D01*
X9429Y83843D01*
X9473Y83865D01*
X9512Y83893D01*
X9546Y83915D01*
X9573Y83931D01*
X9596Y83954D01*
X9612Y83965D01*
X9618Y83970D01*
X9623Y83976D01*
X9673Y84031D01*
X9718Y84087D01*
X9751Y84148D01*
X9784Y84209D01*
X9834Y84331D01*
X9867Y84448D01*
X9884Y84548D01*
X9895Y84592D01*
Y84631D01*
X9901Y84664D01*
Y84786D01*
X9890Y84864D01*
X9862Y85003D01*
X9818Y85119D01*
X9773Y85225D01*
X9723Y85302D01*
X9701Y85336D01*
X9679Y85363D01*
X9662Y85386D01*
X9651Y85402D01*
X9646Y85408D01*
X9640Y85413D01*
X9590Y85463D01*
X9540Y85502D01*
X9490Y85541D01*
X9435Y85569D01*
X9329Y85619D01*
X9229Y85652D01*
X9146Y85669D01*
X9107Y85680D01*
X9074D01*
X9052Y85685D01*
X9030D01*
X9018D01*
X9013D01*
X8946Y85680D01*
X8880Y85674D01*
X8747Y85641D01*
X8619Y85591D01*
X8502Y85536D01*
X8402Y85480D01*
X8364Y85458D01*
X8325Y85430D01*
X8297Y85413D01*
X8275Y85397D01*
X8264Y85391D01*
X8258Y85386D01*
X8180Y85325D01*
X8097Y85252D01*
X8008Y85169D01*
X7920Y85080D01*
X7736Y84897D01*
X7564Y84708D01*
X7481Y84620D01*
X7409Y84531D01*
X7342Y84453D01*
X7287Y84387D01*
X7237Y84331D01*
X7203Y84292D01*
X7176Y84264D01*
X7170Y84253D01*
X7087Y84153D01*
X7009Y84065D01*
X6937Y83976D01*
X6865Y83898D01*
X6798Y83820D01*
X6732Y83754D01*
X6676Y83693D01*
X6621Y83637D01*
X6571Y83587D01*
X6526Y83549D01*
X6488Y83510D01*
X6460Y83482D01*
X6432Y83454D01*
X6415Y83438D01*
X6404Y83432D01*
X6399Y83426D01*
X6277Y83327D01*
X6155Y83243D01*
X6038Y83171D01*
X5933Y83116D01*
X5844Y83071D01*
X5805Y83055D01*
X5777Y83038D01*
X5750Y83027D01*
X5733Y83021D01*
X5722Y83016D01*
X5716D01*
X5638Y82988D01*
X5561Y82971D01*
X5489Y82955D01*
X5422Y82949D01*
X5367Y82944D01*
X5322D01*
X5294D01*
X5283D01*
Y86335D01*
X5888D01*
Y83809D01*
D02*
G37*
G36*
Y79830D02*
X6010Y79919D01*
X6066Y79963D01*
X6116Y80008D01*
X6160Y80046D01*
X6193Y80074D01*
X6216Y80097D01*
X6221Y80102D01*
X6255Y80135D01*
X6299Y80180D01*
X6343Y80230D01*
X6393Y80285D01*
X6504Y80402D01*
X6610Y80524D01*
X6710Y80640D01*
X6754Y80690D01*
X6793Y80740D01*
X6826Y80774D01*
X6848Y80807D01*
X6865Y80823D01*
X6871Y80829D01*
X6976Y80951D01*
X7076Y81068D01*
X7165Y81173D01*
X7254Y81267D01*
X7331Y81356D01*
X7409Y81434D01*
X7475Y81506D01*
X7536Y81573D01*
X7587Y81628D01*
X7637Y81673D01*
X7675Y81712D01*
X7709Y81745D01*
X7736Y81767D01*
X7753Y81789D01*
X7764Y81795D01*
X7770Y81800D01*
X7892Y81906D01*
X8003Y81989D01*
X8108Y82061D01*
X8202Y82122D01*
X8280Y82167D01*
X8341Y82200D01*
X8364Y82211D01*
X8380Y82217D01*
X8386Y82222D01*
X8391D01*
X8502Y82266D01*
X8613Y82294D01*
X8713Y82316D01*
X8807Y82333D01*
X8885Y82344D01*
X8946Y82350D01*
X8968D01*
X8985D01*
X8991D01*
X8996D01*
X9107Y82344D01*
X9213Y82333D01*
X9313Y82311D01*
X9412Y82283D01*
X9501Y82250D01*
X9584Y82211D01*
X9662Y82172D01*
X9729Y82133D01*
X9795Y82094D01*
X9851Y82056D01*
X9901Y82017D01*
X9940Y81984D01*
X9967Y81956D01*
X9995Y81933D01*
X10006Y81922D01*
X10012Y81917D01*
X10084Y81834D01*
X10145Y81745D01*
X10200Y81651D01*
X10250Y81551D01*
X10289Y81456D01*
X10323Y81356D01*
X10350Y81262D01*
X10373Y81168D01*
X10389Y81084D01*
X10400Y81001D01*
X10412Y80929D01*
X10417Y80868D01*
X10423Y80818D01*
Y80746D01*
X10417Y80613D01*
X10406Y80485D01*
X10389Y80368D01*
X10362Y80257D01*
X10334Y80152D01*
X10300Y80058D01*
X10267Y79969D01*
X10234Y79891D01*
X10195Y79819D01*
X10162Y79758D01*
X10128Y79702D01*
X10101Y79658D01*
X10073Y79625D01*
X10056Y79602D01*
X10045Y79586D01*
X10040Y79580D01*
X9967Y79503D01*
X9884Y79436D01*
X9801Y79375D01*
X9707Y79319D01*
X9618Y79275D01*
X9529Y79231D01*
X9435Y79197D01*
X9351Y79170D01*
X9268Y79142D01*
X9190Y79125D01*
X9118Y79109D01*
X9057Y79097D01*
X9007Y79092D01*
X8974Y79086D01*
X8952Y79081D01*
X8941D01*
X8874Y79725D01*
X8963Y79730D01*
X9046Y79736D01*
X9190Y79769D01*
X9324Y79813D01*
X9379Y79836D01*
X9429Y79863D01*
X9473Y79886D01*
X9512Y79913D01*
X9546Y79935D01*
X9573Y79952D01*
X9596Y79974D01*
X9612Y79985D01*
X9618Y79991D01*
X9623Y79997D01*
X9673Y80052D01*
X9718Y80108D01*
X9751Y80169D01*
X9784Y80230D01*
X9834Y80352D01*
X9867Y80468D01*
X9884Y80568D01*
X9895Y80613D01*
Y80651D01*
X9901Y80685D01*
Y80807D01*
X9890Y80885D01*
X9862Y81023D01*
X9818Y81140D01*
X9773Y81245D01*
X9723Y81323D01*
X9701Y81356D01*
X9679Y81384D01*
X9662Y81406D01*
X9651Y81423D01*
X9646Y81428D01*
X9640Y81434D01*
X9590Y81484D01*
X9540Y81523D01*
X9490Y81562D01*
X9435Y81589D01*
X9329Y81639D01*
X9229Y81673D01*
X9146Y81689D01*
X9107Y81700D01*
X9074D01*
X9052Y81706D01*
X9030D01*
X9018D01*
X9013D01*
X8946Y81700D01*
X8880Y81695D01*
X8747Y81661D01*
X8619Y81612D01*
X8502Y81556D01*
X8402Y81501D01*
X8364Y81478D01*
X8325Y81451D01*
X8297Y81434D01*
X8275Y81417D01*
X8264Y81412D01*
X8258Y81406D01*
X8180Y81345D01*
X8097Y81273D01*
X8008Y81190D01*
X7920Y81101D01*
X7736Y80918D01*
X7564Y80729D01*
X7481Y80640D01*
X7409Y80551D01*
X7342Y80474D01*
X7287Y80407D01*
X7237Y80352D01*
X7203Y80313D01*
X7176Y80285D01*
X7170Y80274D01*
X7087Y80174D01*
X7009Y80085D01*
X6937Y79997D01*
X6865Y79919D01*
X6798Y79841D01*
X6732Y79774D01*
X6676Y79713D01*
X6621Y79658D01*
X6571Y79608D01*
X6526Y79569D01*
X6488Y79530D01*
X6460Y79503D01*
X6432Y79475D01*
X6415Y79458D01*
X6404Y79453D01*
X6399Y79447D01*
X6277Y79347D01*
X6155Y79264D01*
X6038Y79192D01*
X5933Y79136D01*
X5844Y79092D01*
X5805Y79075D01*
X5777Y79059D01*
X5750Y79048D01*
X5733Y79042D01*
X5722Y79036D01*
X5716D01*
X5638Y79009D01*
X5561Y78992D01*
X5489Y78975D01*
X5422Y78970D01*
X5367Y78964D01*
X5322D01*
X5294D01*
X5283D01*
Y82355D01*
X5888D01*
Y79830D01*
D02*
G37*
G36*
X8081Y78404D02*
X8202Y78398D01*
X8319Y78393D01*
X8425Y78382D01*
X8524Y78370D01*
X8613Y78359D01*
X8697Y78354D01*
X8769Y78343D01*
X8830Y78332D01*
X8885Y78320D01*
X8930Y78309D01*
X8968Y78304D01*
X8991Y78298D01*
X9007Y78293D01*
X9013D01*
X9174Y78248D01*
X9324Y78193D01*
X9451Y78143D01*
X9562Y78093D01*
X9607Y78065D01*
X9651Y78048D01*
X9690Y78026D01*
X9718Y78010D01*
X9740Y77993D01*
X9757Y77987D01*
X9768Y77976D01*
X9773D01*
X9884Y77899D01*
X9984Y77810D01*
X10067Y77727D01*
X10134Y77643D01*
X10189Y77571D01*
X10223Y77516D01*
X10239Y77494D01*
X10250Y77477D01*
X10256Y77466D01*
Y77460D01*
X10311Y77338D01*
X10350Y77216D01*
X10384Y77094D01*
X10400Y76983D01*
X10412Y76883D01*
X10417Y76844D01*
X10423Y76805D01*
Y76739D01*
X10417Y76639D01*
X10412Y76539D01*
X10395Y76445D01*
X10378Y76356D01*
X10356Y76278D01*
X10328Y76200D01*
X10300Y76128D01*
X10273Y76067D01*
X10245Y76006D01*
X10217Y75956D01*
X10195Y75912D01*
X10167Y75878D01*
X10151Y75851D01*
X10134Y75828D01*
X10128Y75817D01*
X10123Y75812D01*
X10062Y75745D01*
X10001Y75684D01*
X9862Y75573D01*
X9723Y75473D01*
X9584Y75396D01*
X9518Y75362D01*
X9462Y75335D01*
X9407Y75312D01*
X9363Y75290D01*
X9324Y75279D01*
X9290Y75268D01*
X9274Y75257D01*
X9268D01*
X9163Y75224D01*
X9046Y75196D01*
X8807Y75151D01*
X8563Y75118D01*
X8447Y75107D01*
X8330Y75096D01*
X8225Y75090D01*
X8125Y75085D01*
X8036Y75079D01*
X7958D01*
X7897Y75074D01*
X7847D01*
X7820D01*
X7808D01*
X7548Y75079D01*
X7303Y75096D01*
X7081Y75118D01*
X6876Y75151D01*
X6687Y75190D01*
X6515Y75235D01*
X6365Y75279D01*
X6227Y75329D01*
X6110Y75373D01*
X6005Y75418D01*
X5922Y75462D01*
X5849Y75501D01*
X5794Y75534D01*
X5755Y75557D01*
X5733Y75573D01*
X5727Y75579D01*
X5633Y75662D01*
X5555Y75751D01*
X5483Y75845D01*
X5422Y75940D01*
X5372Y76034D01*
X5328Y76134D01*
X5294Y76228D01*
X5267Y76317D01*
X5244Y76406D01*
X5228Y76483D01*
X5217Y76556D01*
X5211Y76617D01*
X5206Y76666D01*
X5200Y76705D01*
Y76739D01*
X5206Y76844D01*
X5211Y76938D01*
X5228Y77033D01*
X5244Y77122D01*
X5272Y77205D01*
X5294Y77277D01*
X5322Y77349D01*
X5350Y77410D01*
X5378Y77471D01*
X5405Y77521D01*
X5433Y77566D01*
X5455Y77599D01*
X5472Y77627D01*
X5489Y77649D01*
X5494Y77660D01*
X5500Y77666D01*
X5561Y77732D01*
X5622Y77799D01*
X5760Y77910D01*
X5899Y78004D01*
X6038Y78082D01*
X6105Y78115D01*
X6166Y78143D01*
X6216Y78165D01*
X6266Y78187D01*
X6299Y78204D01*
X6332Y78210D01*
X6349Y78221D01*
X6354D01*
X6460Y78254D01*
X6576Y78282D01*
X6815Y78332D01*
X7059Y78365D01*
X7176Y78376D01*
X7292Y78387D01*
X7398Y78393D01*
X7498Y78398D01*
X7581Y78404D01*
X7659Y78409D01*
X7720D01*
X7770D01*
X7797D01*
X7808D01*
X7947D01*
X8081Y78404D01*
D02*
G37*
G36*
X5888Y71871D02*
X6010Y71960D01*
X6066Y72004D01*
X6116Y72049D01*
X6160Y72088D01*
X6193Y72115D01*
X6216Y72138D01*
X6221Y72143D01*
X6255Y72177D01*
X6299Y72221D01*
X6343Y72271D01*
X6393Y72326D01*
X6504Y72443D01*
X6610Y72565D01*
X6710Y72682D01*
X6754Y72732D01*
X6793Y72782D01*
X6826Y72815D01*
X6848Y72848D01*
X6865Y72865D01*
X6871Y72870D01*
X6976Y72992D01*
X7076Y73109D01*
X7165Y73214D01*
X7254Y73309D01*
X7331Y73398D01*
X7409Y73475D01*
X7475Y73548D01*
X7536Y73614D01*
X7587Y73670D01*
X7637Y73714D01*
X7675Y73753D01*
X7709Y73786D01*
X7736Y73808D01*
X7753Y73830D01*
X7764Y73836D01*
X7770Y73842D01*
X7892Y73947D01*
X8003Y74030D01*
X8108Y74102D01*
X8202Y74164D01*
X8280Y74208D01*
X8341Y74241D01*
X8364Y74252D01*
X8380Y74258D01*
X8386Y74263D01*
X8391D01*
X8502Y74308D01*
X8613Y74336D01*
X8713Y74358D01*
X8807Y74374D01*
X8885Y74385D01*
X8946Y74391D01*
X8968D01*
X8985D01*
X8991D01*
X8996D01*
X9107Y74385D01*
X9213Y74374D01*
X9313Y74352D01*
X9412Y74325D01*
X9501Y74291D01*
X9584Y74252D01*
X9662Y74213D01*
X9729Y74175D01*
X9795Y74136D01*
X9851Y74097D01*
X9901Y74058D01*
X9940Y74025D01*
X9967Y73997D01*
X9995Y73975D01*
X10006Y73964D01*
X10012Y73958D01*
X10084Y73875D01*
X10145Y73786D01*
X10200Y73692D01*
X10250Y73592D01*
X10289Y73497D01*
X10323Y73398D01*
X10350Y73303D01*
X10373Y73209D01*
X10389Y73126D01*
X10400Y73042D01*
X10412Y72970D01*
X10417Y72909D01*
X10423Y72859D01*
Y72787D01*
X10417Y72654D01*
X10406Y72526D01*
X10389Y72410D01*
X10362Y72299D01*
X10334Y72193D01*
X10300Y72099D01*
X10267Y72010D01*
X10234Y71932D01*
X10195Y71860D01*
X10162Y71799D01*
X10128Y71744D01*
X10101Y71699D01*
X10073Y71666D01*
X10056Y71644D01*
X10045Y71627D01*
X10040Y71622D01*
X9967Y71544D01*
X9884Y71477D01*
X9801Y71416D01*
X9707Y71361D01*
X9618Y71316D01*
X9529Y71272D01*
X9435Y71239D01*
X9351Y71211D01*
X9268Y71183D01*
X9190Y71166D01*
X9118Y71150D01*
X9057Y71139D01*
X9007Y71133D01*
X8974Y71128D01*
X8952Y71122D01*
X8941D01*
X8874Y71766D01*
X8963Y71772D01*
X9046Y71777D01*
X9190Y71810D01*
X9324Y71855D01*
X9379Y71877D01*
X9429Y71905D01*
X9473Y71927D01*
X9512Y71955D01*
X9546Y71977D01*
X9573Y71993D01*
X9596Y72016D01*
X9612Y72027D01*
X9618Y72032D01*
X9623Y72038D01*
X9673Y72093D01*
X9718Y72149D01*
X9751Y72210D01*
X9784Y72271D01*
X9834Y72393D01*
X9867Y72510D01*
X9884Y72610D01*
X9895Y72654D01*
Y72693D01*
X9901Y72726D01*
Y72848D01*
X9890Y72926D01*
X9862Y73065D01*
X9818Y73181D01*
X9773Y73287D01*
X9723Y73364D01*
X9701Y73398D01*
X9679Y73425D01*
X9662Y73448D01*
X9651Y73464D01*
X9646Y73470D01*
X9640Y73475D01*
X9590Y73525D01*
X9540Y73564D01*
X9490Y73603D01*
X9435Y73631D01*
X9329Y73681D01*
X9229Y73714D01*
X9146Y73731D01*
X9107Y73742D01*
X9074D01*
X9052Y73747D01*
X9030D01*
X9018D01*
X9013D01*
X8946Y73742D01*
X8880Y73736D01*
X8747Y73703D01*
X8619Y73653D01*
X8502Y73597D01*
X8402Y73542D01*
X8364Y73520D01*
X8325Y73492D01*
X8297Y73475D01*
X8275Y73459D01*
X8264Y73453D01*
X8258Y73448D01*
X8180Y73387D01*
X8097Y73314D01*
X8008Y73231D01*
X7920Y73142D01*
X7736Y72959D01*
X7564Y72771D01*
X7481Y72682D01*
X7409Y72593D01*
X7342Y72515D01*
X7287Y72449D01*
X7237Y72393D01*
X7203Y72354D01*
X7176Y72326D01*
X7170Y72315D01*
X7087Y72215D01*
X7009Y72127D01*
X6937Y72038D01*
X6865Y71960D01*
X6798Y71882D01*
X6732Y71816D01*
X6676Y71755D01*
X6621Y71699D01*
X6571Y71649D01*
X6526Y71610D01*
X6488Y71572D01*
X6460Y71544D01*
X6432Y71516D01*
X6415Y71500D01*
X6404Y71494D01*
X6399Y71488D01*
X6277Y71389D01*
X6155Y71305D01*
X6038Y71233D01*
X5933Y71178D01*
X5844Y71133D01*
X5805Y71117D01*
X5777Y71100D01*
X5750Y71089D01*
X5733Y71083D01*
X5722Y71078D01*
X5716D01*
X5638Y71050D01*
X5561Y71033D01*
X5489Y71017D01*
X5422Y71011D01*
X5367Y71006D01*
X5322D01*
X5294D01*
X5283D01*
Y74397D01*
X5888D01*
Y71871D01*
D02*
G37*
G36*
X18683Y207935D02*
X18717Y207657D01*
X18821Y207449D01*
X18960Y207310D01*
X19099Y207206D01*
X19238Y207136D01*
X19377Y207102D01*
X19481D01*
X19516D01*
X25522D01*
X25627Y207067D01*
X25661Y206997D01*
X25696Y206928D01*
Y206824D01*
X25557Y206511D01*
X25453Y206199D01*
X25349Y205956D01*
X25245Y205748D01*
X25106Y205400D01*
X24967Y205192D01*
X24863Y205053D01*
X24793Y204984D01*
X24759Y204949D01*
X24654D01*
X24481Y205018D01*
X24585Y205678D01*
X24550Y205782D01*
X24411Y205852D01*
X24272Y205886D01*
X24064Y205921D01*
X23891Y205956D01*
X23717D01*
X23578D01*
X23543D01*
X19342D01*
X19203D01*
X19064Y205921D01*
X18995Y205886D01*
X18960D01*
X18474Y205018D01*
X18370Y205053D01*
X18335Y205123D01*
X18301Y205192D01*
Y207831D01*
X18335Y207970D01*
X18405Y208004D01*
X18440Y208039D01*
X18474D01*
X18683Y207935D01*
D02*
G37*
G36*
X30105Y204845D02*
X30036Y204706D01*
X29932Y204637D01*
X29828Y204498D01*
X29758Y204463D01*
X29724D01*
X29550D01*
X29446Y204498D01*
X29342Y204637D01*
X29237Y204810D01*
X29168Y204984D01*
X29099Y205192D01*
X29029Y205331D01*
X28994Y205470D01*
Y205504D01*
X28890D01*
Y167174D01*
X28855Y167069D01*
X28821Y167035D01*
X28751Y167000D01*
X28717D01*
X28126D01*
X28022Y167035D01*
X27988Y167104D01*
X27953Y167139D01*
Y205609D01*
X27849D01*
X27814Y205435D01*
X27779Y205261D01*
X27571Y204879D01*
X27467Y204706D01*
X27397Y204602D01*
X27328Y204498D01*
X27293Y204463D01*
X27015Y204498D01*
X26842Y204602D01*
X26772Y204706D01*
X26738Y204741D01*
Y204949D01*
X26981Y205609D01*
X27189Y206164D01*
X27397Y206685D01*
X27571Y207102D01*
X27710Y207484D01*
X27849Y207796D01*
X27988Y208074D01*
X28092Y208282D01*
X28161Y208456D01*
X28231Y208595D01*
X28335Y208768D01*
X28404Y208872D01*
X28508D01*
X30105Y204845D01*
D02*
G37*
G36*
X21391Y203421D02*
X21460Y203352D01*
X21495Y203282D01*
Y197901D01*
X21460Y197831D01*
X21391Y197762D01*
X21321Y197727D01*
X21287D01*
X21009D01*
X20905Y197762D01*
X20870Y197831D01*
X20835Y197866D01*
Y203248D01*
X20870Y203387D01*
X20939Y203421D01*
X20974Y203456D01*
X21009D01*
X21287D01*
X21391Y203421D01*
D02*
G37*
G36*
X10141Y202414D02*
X10211Y202310D01*
X10246Y202241D01*
Y201581D01*
X9864Y201546D01*
X9516Y201442D01*
X9239Y201269D01*
X8996Y201130D01*
X8787Y200956D01*
X8648Y200783D01*
X8579Y200678D01*
X8544Y200644D01*
Y199984D01*
X8614Y199810D01*
X8787Y199602D01*
X9065Y199428D01*
X9447Y199255D01*
X9864Y199047D01*
X10350Y198873D01*
X11426Y198561D01*
X12468Y198248D01*
X12954Y198144D01*
X13370Y198040D01*
X13752Y197935D01*
X14030Y197901D01*
X14204Y197831D01*
X14273D01*
X15002Y197727D01*
X15662Y197588D01*
X16322Y197449D01*
X16912Y197311D01*
X17433Y197172D01*
X17953Y197067D01*
X18440Y196929D01*
X18856Y196790D01*
X19273Y196651D01*
X19655Y196512D01*
X20280Y196234D01*
X20800Y195957D01*
X21217Y195713D01*
X21564Y195470D01*
X21807Y195227D01*
X21981Y195054D01*
X22085Y194880D01*
X22189Y194741D01*
X22224Y194637D01*
Y193700D01*
X22085Y193318D01*
X21877Y193005D01*
X21668Y192727D01*
X21391Y192484D01*
X21113Y192311D01*
X20800Y192137D01*
X20210Y191894D01*
X19620Y191721D01*
X19377Y191686D01*
X19134Y191651D01*
X18960Y191616D01*
X18821D01*
X18717D01*
X18683D01*
X18578Y191651D01*
X18509Y191721D01*
X18474Y191790D01*
Y192380D01*
X18509Y192484D01*
X18613Y192519D01*
X18717Y192554D01*
X18752D01*
X19030Y192658D01*
X19273Y192762D01*
X19620Y192936D01*
X19898Y193109D01*
X20106Y193283D01*
X20210Y193387D01*
X20245Y193491D01*
X20280Y193561D01*
Y194082D01*
X20245Y194290D01*
X20141Y194498D01*
X20002Y194672D01*
X19794Y194845D01*
X19585Y194984D01*
X19342Y195158D01*
X18787Y195401D01*
X18231Y195609D01*
X17953Y195679D01*
X17745Y195748D01*
X17537Y195783D01*
X17398Y195818D01*
X17294Y195852D01*
X17259D01*
X7156Y191061D01*
X7051D01*
X6947Y191096D01*
X6912Y191165D01*
X6878Y191235D01*
Y193318D01*
X7919Y193839D01*
X8857Y194325D01*
X9655Y194741D01*
X10385Y195089D01*
X11009Y195401D01*
X11565Y195679D01*
X12051Y195887D01*
X12433Y196061D01*
X12745Y196234D01*
X13023Y196338D01*
X13231Y196443D01*
X13370Y196477D01*
X13509Y196547D01*
X13579Y196581D01*
X13613D01*
Y196686D01*
X13336Y196720D01*
X13093Y196790D01*
X12676Y196859D01*
X12398Y196929D01*
X12225Y196998D01*
X12086Y197033D01*
X12051D01*
X12016Y197067D01*
X11079Y197241D01*
X10246Y197415D01*
X9516Y197623D01*
X8891Y197831D01*
X8371Y198074D01*
X7919Y198283D01*
X7572Y198526D01*
X7294Y198769D01*
X7051Y198977D01*
X6878Y199185D01*
X6774Y199394D01*
X6669Y199533D01*
X6635Y199671D01*
X6600Y199776D01*
Y200713D01*
X6704Y201026D01*
X6843Y201303D01*
X7051Y201546D01*
X7260Y201755D01*
X7780Y202067D01*
X8336Y202310D01*
X8857Y202414D01*
X9343Y202484D01*
X9516Y202519D01*
X9655D01*
X9725D01*
X9759D01*
X9968D01*
X10141Y202414D01*
D02*
G37*
G36*
X16912Y190193D02*
X16947Y190158D01*
X16981Y190089D01*
Y182069D01*
X16947Y181687D01*
X16842Y181339D01*
X16703Y180992D01*
X16495Y180714D01*
X16252Y180437D01*
X16009Y180194D01*
X15454Y179777D01*
X14863Y179464D01*
X14620Y179360D01*
X14377Y179256D01*
X14169Y179187D01*
X14030Y179117D01*
X13926Y179083D01*
X13891D01*
X13718Y179117D01*
X13648Y179187D01*
X13613Y179221D01*
Y179916D01*
X13891Y180089D01*
X14099Y180298D01*
X14481Y180680D01*
X14759Y181062D01*
X14933Y181409D01*
X15037Y181721D01*
X15072Y181964D01*
X15106Y182103D01*
Y182242D01*
X14099Y182173D01*
X13162Y182069D01*
X12364Y181964D01*
X11704Y181860D01*
X11391Y181825D01*
X11148Y181756D01*
X10940Y181721D01*
X10766Y181687D01*
X10593Y181652D01*
X10489D01*
X10454Y181617D01*
X10419D01*
X10003Y181374D01*
X9655Y181131D01*
X9343Y180957D01*
X9065Y180784D01*
X8822Y180645D01*
X8614Y180541D01*
X8301Y180367D01*
X8093Y180263D01*
X7954Y180228D01*
X7919Y180194D01*
X7885D01*
X7607D01*
X7260Y180228D01*
X7017Y180333D01*
X6843Y180471D01*
X6739Y180610D01*
X6669Y180749D01*
X6600Y180888D01*
Y181617D01*
X6635Y181756D01*
X6704Y181930D01*
X6808Y182069D01*
X6982Y182173D01*
X7156Y182311D01*
X7399Y182416D01*
X7919Y182659D01*
X8579Y182832D01*
X9308Y183006D01*
X10072Y183145D01*
X10871Y183284D01*
X11634Y183388D01*
X12433Y183457D01*
X13127Y183527D01*
X13787Y183596D01*
X14308Y183631D01*
X14551D01*
X14759D01*
X14898Y183666D01*
X15002D01*
X15072D01*
X15106D01*
Y185922D01*
X14134Y185818D01*
X13231Y185749D01*
X12364Y185714D01*
X11600Y185679D01*
X11253D01*
X10940Y185645D01*
X10697D01*
X10454D01*
X10280D01*
X10141D01*
X10072D01*
X10037D01*
X9447Y185679D01*
X8891Y185714D01*
X8440Y185818D01*
X8058Y185922D01*
X7711Y186096D01*
X7433Y186235D01*
X7225Y186408D01*
X7017Y186582D01*
X6878Y186756D01*
X6774Y186929D01*
X6669Y187242D01*
X6600Y187450D01*
Y188075D01*
X6635Y188388D01*
X6739Y188665D01*
X6878Y188908D01*
X7051Y189117D01*
X7503Y189464D01*
X8058Y189742D01*
X8579Y189915D01*
X9030Y190054D01*
X9204Y190089D01*
X9343Y190123D01*
X9447D01*
X9482D01*
X9759D01*
X9864Y190089D01*
X9933Y190054D01*
X9968Y189985D01*
Y189464D01*
X9586Y189255D01*
X9308Y189047D01*
X9100Y188908D01*
X8961Y188804D01*
X8891Y188735D01*
X8857Y188665D01*
X8822Y188631D01*
Y188457D01*
X8891Y188145D01*
X9030Y187901D01*
X9239Y187763D01*
X9482Y187624D01*
X9725Y187554D01*
X9933Y187520D01*
X10072D01*
X10141D01*
X14169D01*
X15106Y187589D01*
Y190054D01*
X15141Y190158D01*
X15211Y190193D01*
X15280Y190228D01*
X15315D01*
X16808D01*
X16912Y190193D01*
D02*
G37*
G36*
X9864Y177728D02*
X9933Y177694D01*
X9968Y177624D01*
Y176999D01*
X9864Y176826D01*
X9690Y176791D01*
X9516Y176687D01*
X9378Y176513D01*
X9273Y176270D01*
X9169Y175993D01*
X9065Y175680D01*
X8961Y175055D01*
X8891Y174395D01*
X8857Y174083D01*
Y173805D01*
X8822Y173597D01*
Y171028D01*
X9204Y171305D01*
X10176Y172312D01*
X11114Y173180D01*
X11982Y173909D01*
X12780Y174569D01*
X13544Y175090D01*
X14238Y175541D01*
X14863Y175923D01*
X15419Y176235D01*
X15940Y176444D01*
X16391Y176617D01*
X16773Y176756D01*
X17085Y176860D01*
X17328Y176895D01*
X17502Y176930D01*
X17606D01*
X17641D01*
X18683D01*
X19238Y176722D01*
X19724Y176444D01*
X20141Y176166D01*
X20523Y175854D01*
X20800Y175541D01*
X21078Y175229D01*
X21287Y174916D01*
X21460Y174604D01*
X21564Y174291D01*
X21668Y174013D01*
X21738Y173736D01*
X21807Y173527D01*
Y173354D01*
X21842Y173180D01*
Y172139D01*
X21807Y171757D01*
X21773Y171409D01*
X21738Y171236D01*
X21703Y171132D01*
X21668Y171062D01*
Y171028D01*
X21425Y170541D01*
X21148Y170090D01*
X20835Y169708D01*
X20523Y169396D01*
X20210Y169118D01*
X19863Y168910D01*
X19551Y168701D01*
X19238Y168562D01*
X18648Y168354D01*
X18405Y168319D01*
X18196Y168250D01*
X17988D01*
X17849Y168215D01*
X17780D01*
X17745D01*
X17571Y168250D01*
X17502Y168319D01*
X17467Y168354D01*
Y168944D01*
X17884Y169187D01*
X18266Y169430D01*
X18578Y169708D01*
X18891Y169986D01*
X19099Y170229D01*
X19308Y170472D01*
X19481Y170750D01*
X19585Y170958D01*
X19759Y171409D01*
X19863Y171722D01*
X19898Y171861D01*
Y172243D01*
X19724Y172659D01*
X19551Y173041D01*
X19308Y173354D01*
X19099Y173666D01*
X18856Y173875D01*
X18613Y174083D01*
X18370Y174257D01*
X18127Y174361D01*
X17676Y174534D01*
X17328Y174638D01*
X17190Y174673D01*
X17085D01*
X17016D01*
X16981D01*
X16669Y174638D01*
X16322Y174604D01*
X15974Y174499D01*
X15627Y174395D01*
X14863Y174048D01*
X14099Y173597D01*
X13336Y173076D01*
X12537Y172520D01*
X11773Y171896D01*
X11044Y171271D01*
X10350Y170611D01*
X9690Y169986D01*
X9100Y169430D01*
X8614Y168910D01*
X8197Y168458D01*
X7885Y168111D01*
X7746Y168007D01*
X7676Y167903D01*
X7642Y167868D01*
X7607Y167833D01*
X7051D01*
X6947Y167868D01*
X6912Y167937D01*
X6878Y167972D01*
Y176652D01*
X6912Y176722D01*
X7017Y176791D01*
X7156Y176860D01*
X7329Y176930D01*
X7780Y177138D01*
X8301Y177312D01*
X8787Y177485D01*
X9239Y177624D01*
X9447Y177694D01*
X9586Y177728D01*
X9655Y177763D01*
X9690D01*
X9759D01*
X9864Y177728D01*
D02*
G37*
G36*
X2515Y12558D02*
X2539Y12506D01*
X2598Y12409D01*
X2661Y12322D01*
X2727Y12245D01*
X2758Y12211D01*
X2786Y12183D01*
X2810Y12155D01*
X2834Y12134D01*
X2852Y12117D01*
X2866Y12107D01*
X2876Y12100D01*
X2880Y12096D01*
X2984Y12020D01*
X3081Y11957D01*
X3167Y11905D01*
X3244Y11867D01*
X3278Y11850D01*
X3310Y11836D01*
X3334Y11825D01*
X3358Y11815D01*
X3376Y11808D01*
X3390Y11805D01*
X3396Y11801D01*
X3400D01*
Y11243D01*
X3317Y11274D01*
X3237Y11305D01*
X3157Y11340D01*
X3084Y11378D01*
X3015Y11416D01*
X2949Y11454D01*
X2890Y11492D01*
X2834Y11531D01*
X2782Y11565D01*
X2741Y11600D01*
X2699Y11631D01*
X2668Y11655D01*
X2644Y11676D01*
X2623Y11694D01*
X2612Y11704D01*
X2609Y11708D01*
Y9400D01*
X1995D01*
Y12613D01*
X2494D01*
X2515Y12558D01*
D02*
G37*
G36*
X25800Y227500D02*
X19094D01*
Y231143D01*
X25800D01*
Y227500D01*
D02*
G37*
G36*
X32377Y230743D02*
X32471Y230732D01*
X32559Y230712D01*
X32642Y230690D01*
X32720Y230662D01*
X32789Y230634D01*
X32856Y230601D01*
X32914Y230568D01*
X32967Y230535D01*
X33014Y230504D01*
X33052Y230474D01*
X33086Y230446D01*
X33113Y230424D01*
X33130Y230407D01*
X33144Y230394D01*
X33147Y230391D01*
X33205Y230322D01*
X33255Y230247D01*
X33299Y230169D01*
X33335Y230089D01*
X33368Y230006D01*
X33393Y229923D01*
X33415Y229842D01*
X33432Y229762D01*
X33446Y229690D01*
X33457Y229621D01*
X33462Y229557D01*
X33468Y229504D01*
X33471Y229460D01*
X33474Y229443D01*
Y229427D01*
Y229416D01*
Y229407D01*
Y229402D01*
Y229399D01*
X33471Y229288D01*
X33460Y229186D01*
X33443Y229089D01*
X33424Y228997D01*
X33399Y228912D01*
X33371Y228834D01*
X33340Y228762D01*
X33310Y228698D01*
X33280Y228640D01*
X33249Y228590D01*
X33221Y228549D01*
X33196Y228513D01*
X33177Y228485D01*
X33160Y228466D01*
X33149Y228452D01*
X33147Y228449D01*
X33083Y228388D01*
X33016Y228335D01*
X32947Y228288D01*
X32878Y228250D01*
X32809Y228216D01*
X32739Y228189D01*
X32670Y228164D01*
X32607Y228147D01*
X32546Y228131D01*
X32487Y228122D01*
X32438Y228114D01*
X32396Y228108D01*
X32360Y228105D01*
X32332Y228103D01*
X32310D01*
X32235Y228105D01*
X32163Y228111D01*
X32094Y228122D01*
X32030Y228133D01*
X31969Y228150D01*
X31914Y228167D01*
X31861Y228186D01*
X31817Y228205D01*
X31773Y228222D01*
X31737Y228241D01*
X31706Y228258D01*
X31679Y228274D01*
X31659Y228286D01*
X31642Y228297D01*
X31634Y228302D01*
X31631Y228305D01*
X31582Y228346D01*
X31537Y228391D01*
X31496Y228438D01*
X31457Y228491D01*
X31424Y228540D01*
X31390Y228593D01*
X31363Y228646D01*
X31338Y228696D01*
X31316Y228743D01*
X31296Y228787D01*
X31282Y228829D01*
X31269Y228862D01*
X31258Y228892D01*
X31252Y228912D01*
X31246Y228925D01*
Y228931D01*
X31748Y229086D01*
X31762Y229036D01*
X31776Y228986D01*
X31792Y228942D01*
X31809Y228903D01*
X31828Y228865D01*
X31845Y228831D01*
X31864Y228801D01*
X31881Y228773D01*
X31897Y228751D01*
X31914Y228729D01*
X31928Y228712D01*
X31939Y228698D01*
X31950Y228687D01*
X31958Y228679D01*
X31961Y228676D01*
X31964Y228673D01*
X31991Y228651D01*
X32022Y228632D01*
X32080Y228599D01*
X32138Y228576D01*
X32194Y228560D01*
X32244Y228552D01*
X32263Y228546D01*
X32282D01*
X32296Y228543D01*
X32316D01*
X32366Y228546D01*
X32415Y228552D01*
X32462Y228563D01*
X32504Y228576D01*
X32546Y228590D01*
X32581Y228607D01*
X32618Y228626D01*
X32648Y228646D01*
X32676Y228665D01*
X32701Y228684D01*
X32720Y228701D01*
X32739Y228715D01*
X32750Y228729D01*
X32762Y228740D01*
X32767Y228745D01*
X32770Y228748D01*
X32800Y228790D01*
X32825Y228837D01*
X32850Y228887D01*
X32870Y228942D01*
X32886Y229000D01*
X32900Y229056D01*
X32919Y229169D01*
X32928Y229225D01*
X32933Y229275D01*
X32936Y229319D01*
X32939Y229360D01*
X32942Y229391D01*
Y229416D01*
Y229432D01*
Y229438D01*
X32939Y229521D01*
X32933Y229599D01*
X32925Y229668D01*
X32914Y229734D01*
X32900Y229795D01*
X32886Y229848D01*
X32870Y229898D01*
X32853Y229939D01*
X32839Y229978D01*
X32822Y230011D01*
X32809Y230039D01*
X32795Y230061D01*
X32784Y230078D01*
X32775Y230092D01*
X32770Y230097D01*
X32767Y230100D01*
X32734Y230136D01*
X32695Y230166D01*
X32659Y230194D01*
X32620Y230219D01*
X32581Y230238D01*
X32543Y230255D01*
X32504Y230269D01*
X32468Y230280D01*
X32435Y230288D01*
X32404Y230294D01*
X32377Y230299D01*
X32352Y230302D01*
X32332Y230305D01*
X32304D01*
X32230Y230299D01*
X32163Y230286D01*
X32105Y230269D01*
X32052Y230247D01*
X32011Y230225D01*
X31994Y230216D01*
X31980Y230208D01*
X31969Y230200D01*
X31961Y230194D01*
X31958Y230191D01*
X31956Y230189D01*
X31906Y230141D01*
X31864Y230092D01*
X31831Y230039D01*
X31806Y229989D01*
X31787Y229945D01*
X31778Y229925D01*
X31773Y229909D01*
X31770Y229895D01*
X31767Y229884D01*
X31764Y229878D01*
Y229876D01*
X31255Y229997D01*
X31271Y230053D01*
X31291Y230105D01*
X31313Y230153D01*
X31332Y230200D01*
X31354Y230241D01*
X31377Y230280D01*
X31399Y230313D01*
X31418Y230346D01*
X31440Y230374D01*
X31457Y230399D01*
X31473Y230418D01*
X31490Y230435D01*
X31501Y230449D01*
X31510Y230457D01*
X31515Y230463D01*
X31518Y230466D01*
X31576Y230515D01*
X31634Y230557D01*
X31698Y230596D01*
X31762Y230626D01*
X31825Y230654D01*
X31889Y230676D01*
X31950Y230696D01*
X32008Y230709D01*
X32063Y230723D01*
X32116Y230732D01*
X32163Y230737D01*
X32202Y230740D01*
X32235Y230743D01*
X32258Y230745D01*
X32280D01*
X32377Y230743D01*
D02*
G37*
G36*
X30789Y228147D02*
X28992D01*
Y228579D01*
X30274D01*
Y230682D01*
X30789D01*
Y228147D01*
D02*
G37*
G36*
X34978Y230743D02*
X35025Y230737D01*
X35074Y230732D01*
X35119Y230723D01*
X35160Y230718D01*
X35196Y230709D01*
X35232Y230701D01*
X35266Y230690D01*
X35293Y230682D01*
X35315Y230676D01*
X35338Y230668D01*
X35351Y230662D01*
X35365Y230657D01*
X35371Y230654D01*
X35374D01*
X35446Y230618D01*
X35512Y230576D01*
X35565Y230535D01*
X35612Y230493D01*
X35645Y230454D01*
X35673Y230424D01*
X35681Y230413D01*
X35687Y230405D01*
X35692Y230399D01*
Y230396D01*
X35728Y230333D01*
X35756Y230269D01*
X35775Y230205D01*
X35789Y230150D01*
X35798Y230103D01*
X35800Y230081D01*
Y230064D01*
X35803Y230050D01*
Y230039D01*
Y230033D01*
Y230031D01*
X35800Y229975D01*
X35792Y229923D01*
X35781Y229870D01*
X35767Y229823D01*
X35748Y229779D01*
X35728Y229734D01*
X35706Y229696D01*
X35684Y229660D01*
X35665Y229626D01*
X35642Y229599D01*
X35623Y229574D01*
X35604Y229554D01*
X35590Y229538D01*
X35579Y229526D01*
X35570Y229518D01*
X35568Y229516D01*
X35534Y229488D01*
X35496Y229463D01*
X35451Y229438D01*
X35407Y229413D01*
X35310Y229371D01*
X35213Y229333D01*
X35169Y229319D01*
X35127Y229305D01*
X35088Y229291D01*
X35052Y229283D01*
X35025Y229275D01*
X35005Y229269D01*
X34991Y229263D01*
X34986D01*
X34928Y229250D01*
X34875Y229236D01*
X34828Y229225D01*
X34786Y229214D01*
X34748Y229203D01*
X34714Y229194D01*
X34684Y229186D01*
X34659Y229177D01*
X34637Y229172D01*
X34620Y229166D01*
X34604Y229161D01*
X34593Y229158D01*
X34584Y229155D01*
X34579D01*
X34573Y229153D01*
X34526Y229133D01*
X34487Y229117D01*
X34457Y229097D01*
X34429Y229081D01*
X34413Y229064D01*
X34399Y229053D01*
X34390Y229045D01*
X34388Y229042D01*
X34368Y229017D01*
X34354Y228992D01*
X34346Y228964D01*
X34338Y228939D01*
X34335Y228920D01*
X34332Y228903D01*
Y228889D01*
Y228887D01*
Y228862D01*
X34338Y228837D01*
X34352Y228790D01*
X34374Y228745D01*
X34396Y228709D01*
X34418Y228682D01*
X34440Y228660D01*
X34454Y228646D01*
X34457Y228640D01*
X34460D01*
X34484Y228621D01*
X34512Y228604D01*
X34573Y228579D01*
X34637Y228560D01*
X34698Y228549D01*
X34753Y228540D01*
X34775Y228538D01*
X34797D01*
X34814Y228535D01*
X34839D01*
X34922Y228540D01*
X34997Y228554D01*
X35061Y228571D01*
X35116Y228593D01*
X35138Y228604D01*
X35158Y228615D01*
X35177Y228624D01*
X35191Y228632D01*
X35202Y228640D01*
X35210Y228646D01*
X35213Y228651D01*
X35216D01*
X35241Y228676D01*
X35263Y228701D01*
X35302Y228759D01*
X35335Y228823D01*
X35360Y228884D01*
X35377Y228939D01*
X35385Y228961D01*
X35390Y228984D01*
X35393Y229000D01*
X35396Y229014D01*
X35399Y229022D01*
Y229025D01*
X35900Y228975D01*
X35889Y228898D01*
X35872Y228823D01*
X35853Y228756D01*
X35831Y228693D01*
X35806Y228635D01*
X35781Y228579D01*
X35753Y228532D01*
X35726Y228488D01*
X35701Y228449D01*
X35676Y228416D01*
X35651Y228388D01*
X35631Y228363D01*
X35615Y228346D01*
X35601Y228333D01*
X35592Y228324D01*
X35590Y228322D01*
X35537Y228283D01*
X35482Y228250D01*
X35424Y228219D01*
X35363Y228194D01*
X35302Y228172D01*
X35241Y228155D01*
X35180Y228139D01*
X35119Y228128D01*
X35063Y228119D01*
X35011Y228111D01*
X34964Y228105D01*
X34925Y228103D01*
X34892D01*
X34867Y228100D01*
X34784D01*
X34725Y228103D01*
X34667Y228108D01*
X34617Y228114D01*
X34568Y228122D01*
X34521Y228128D01*
X34479Y228136D01*
X34440Y228147D01*
X34407Y228155D01*
X34376Y228164D01*
X34349Y228169D01*
X34327Y228178D01*
X34310Y228183D01*
X34299Y228189D01*
X34291Y228191D01*
X34288D01*
X34207Y228230D01*
X34138Y228274D01*
X34080Y228324D01*
X34030Y228369D01*
X33992Y228410D01*
X33978Y228430D01*
X33964Y228446D01*
X33955Y228457D01*
X33947Y228468D01*
X33942Y228474D01*
Y228477D01*
X33920Y228513D01*
X33900Y228552D01*
X33870Y228624D01*
X33847Y228693D01*
X33834Y228756D01*
X33828Y228784D01*
X33823Y228809D01*
X33820Y228834D01*
Y228853D01*
X33817Y228867D01*
Y228881D01*
Y228887D01*
Y228889D01*
X33823Y228975D01*
X33834Y229056D01*
X33850Y229125D01*
X33858Y229155D01*
X33867Y229183D01*
X33878Y229208D01*
X33886Y229230D01*
X33895Y229250D01*
X33903Y229266D01*
X33911Y229280D01*
X33914Y229288D01*
X33920Y229294D01*
Y229297D01*
X33961Y229355D01*
X34008Y229407D01*
X34055Y229452D01*
X34100Y229490D01*
X34141Y229518D01*
X34174Y229540D01*
X34188Y229546D01*
X34196Y229552D01*
X34202Y229557D01*
X34205D01*
X34241Y229574D01*
X34280Y229593D01*
X34324Y229610D01*
X34368Y229626D01*
X34460Y229657D01*
X34551Y229684D01*
X34593Y229696D01*
X34634Y229707D01*
X34667Y229718D01*
X34701Y229726D01*
X34725Y229731D01*
X34745Y229737D01*
X34756Y229740D01*
X34762D01*
X34828Y229756D01*
X34889Y229773D01*
X34944Y229790D01*
X34994Y229806D01*
X35039Y229820D01*
X35077Y229834D01*
X35111Y229848D01*
X35138Y229859D01*
X35163Y229870D01*
X35185Y229881D01*
X35202Y229889D01*
X35213Y229898D01*
X35224Y229903D01*
X35230Y229909D01*
X35235Y229912D01*
X35260Y229937D01*
X35280Y229961D01*
X35291Y229989D01*
X35302Y230014D01*
X35307Y230033D01*
X35310Y230053D01*
Y230064D01*
Y230067D01*
X35307Y230103D01*
X35296Y230133D01*
X35285Y230161D01*
X35268Y230183D01*
X35255Y230200D01*
X35241Y230213D01*
X35232Y230222D01*
X35230Y230225D01*
X35177Y230255D01*
X35122Y230280D01*
X35061Y230297D01*
X35005Y230308D01*
X34953Y230313D01*
X34931Y230316D01*
X34911Y230319D01*
X34875D01*
X34797Y230316D01*
X34731Y230305D01*
X34676Y230291D01*
X34629Y230274D01*
X34593Y230258D01*
X34568Y230244D01*
X34554Y230233D01*
X34548Y230230D01*
X34510Y230194D01*
X34479Y230150D01*
X34454Y230103D01*
X34435Y230058D01*
X34421Y230017D01*
X34415Y229997D01*
X34410Y229981D01*
X34407Y229970D01*
Y229959D01*
X34404Y229953D01*
Y229950D01*
X33889Y229970D01*
X33895Y230033D01*
X33903Y230094D01*
X33917Y230153D01*
X33936Y230205D01*
X33955Y230255D01*
X33978Y230302D01*
X34000Y230344D01*
X34022Y230382D01*
X34047Y230416D01*
X34069Y230446D01*
X34088Y230474D01*
X34108Y230493D01*
X34124Y230510D01*
X34135Y230524D01*
X34144Y230529D01*
X34147Y230532D01*
X34194Y230571D01*
X34246Y230601D01*
X34304Y230632D01*
X34363Y230657D01*
X34421Y230676D01*
X34482Y230693D01*
X34543Y230707D01*
X34598Y230718D01*
X34653Y230729D01*
X34706Y230734D01*
X34751Y230740D01*
X34792Y230743D01*
X34822Y230745D01*
X34870D01*
X34978Y230743D01*
D02*
G37*
G36*
X25200Y248800D02*
X19582D01*
Y252445D01*
X25200D01*
Y248800D01*
D02*
G37*
G36*
X33682Y249147D02*
X32660D01*
X32610Y249150D01*
X32563Y249153D01*
X32521Y249155D01*
X32480Y249158D01*
X32441Y249164D01*
X32408Y249169D01*
X32377Y249175D01*
X32350Y249178D01*
X32325Y249183D01*
X32303Y249189D01*
X32286Y249191D01*
X32272Y249194D01*
X32264Y249197D01*
X32258Y249200D01*
X32256D01*
X32175Y249230D01*
X32103Y249263D01*
X32042Y249297D01*
X31990Y249330D01*
X31967Y249344D01*
X31948Y249358D01*
X31934Y249372D01*
X31920Y249382D01*
X31909Y249391D01*
X31901Y249399D01*
X31898Y249402D01*
X31895Y249405D01*
X31832Y249474D01*
X31776Y249549D01*
X31729Y249623D01*
X31690Y249696D01*
X31674Y249729D01*
X31660Y249759D01*
X31649Y249787D01*
X31638Y249809D01*
X31632Y249829D01*
X31627Y249845D01*
X31621Y249853D01*
Y249856D01*
X31593Y249945D01*
X31574Y250036D01*
X31560Y250128D01*
X31552Y250214D01*
X31546Y250252D01*
X31544Y250288D01*
Y250319D01*
X31541Y250346D01*
Y250369D01*
Y250385D01*
Y250396D01*
Y250399D01*
Y250466D01*
X31544Y250529D01*
X31549Y250588D01*
X31555Y250646D01*
X31560Y250698D01*
X31569Y250748D01*
X31577Y250795D01*
X31582Y250837D01*
X31591Y250873D01*
X31599Y250906D01*
X31607Y250937D01*
X31613Y250959D01*
X31618Y250978D01*
X31624Y250992D01*
X31627Y251000D01*
Y251003D01*
X31660Y251092D01*
X31699Y251172D01*
X31740Y251244D01*
X31760Y251274D01*
X31779Y251302D01*
X31798Y251330D01*
X31815Y251352D01*
X31832Y251371D01*
X31843Y251388D01*
X31854Y251402D01*
X31862Y251410D01*
X31868Y251416D01*
X31870Y251418D01*
X31934Y251477D01*
X31998Y251526D01*
X32062Y251568D01*
X32123Y251599D01*
X32175Y251624D01*
X32197Y251635D01*
X32217Y251640D01*
X32233Y251646D01*
X32244Y251651D01*
X32253Y251654D01*
X32256D01*
X32289Y251662D01*
X32325Y251671D01*
X32402Y251682D01*
X32483Y251693D01*
X32560Y251698D01*
X32596Y251701D01*
X32660D01*
X32688Y251704D01*
X33682D01*
Y249147D01*
D02*
G37*
G36*
X31364D02*
X30818D01*
X30605Y249729D01*
X29583D01*
X29358Y249147D01*
X28796D01*
X29821Y251704D01*
X30369D01*
X31364Y249147D01*
D02*
G37*
G36*
X35278Y251743D02*
X35325Y251737D01*
X35375Y251731D01*
X35419Y251723D01*
X35460Y251718D01*
X35496Y251709D01*
X35532Y251701D01*
X35566Y251690D01*
X35593Y251682D01*
X35616Y251676D01*
X35638Y251668D01*
X35651Y251662D01*
X35665Y251657D01*
X35671Y251654D01*
X35674D01*
X35746Y251618D01*
X35812Y251576D01*
X35865Y251535D01*
X35912Y251493D01*
X35945Y251454D01*
X35973Y251424D01*
X35981Y251413D01*
X35987Y251405D01*
X35992Y251399D01*
Y251396D01*
X36028Y251333D01*
X36056Y251269D01*
X36075Y251205D01*
X36089Y251150D01*
X36097Y251103D01*
X36100Y251080D01*
Y251064D01*
X36103Y251050D01*
Y251039D01*
Y251033D01*
Y251031D01*
X36100Y250975D01*
X36092Y250923D01*
X36081Y250870D01*
X36067Y250823D01*
X36048Y250779D01*
X36028Y250734D01*
X36006Y250695D01*
X35984Y250659D01*
X35965Y250626D01*
X35942Y250599D01*
X35923Y250574D01*
X35904Y250554D01*
X35890Y250538D01*
X35879Y250526D01*
X35870Y250518D01*
X35868Y250516D01*
X35834Y250488D01*
X35796Y250463D01*
X35751Y250438D01*
X35707Y250413D01*
X35610Y250371D01*
X35513Y250333D01*
X35469Y250319D01*
X35427Y250305D01*
X35388Y250291D01*
X35352Y250283D01*
X35325Y250274D01*
X35305Y250269D01*
X35291Y250263D01*
X35286D01*
X35228Y250250D01*
X35175Y250236D01*
X35128Y250225D01*
X35087Y250214D01*
X35048Y250202D01*
X35014Y250194D01*
X34984Y250186D01*
X34959Y250178D01*
X34937Y250172D01*
X34920Y250166D01*
X34904Y250161D01*
X34893Y250158D01*
X34884Y250155D01*
X34879D01*
X34873Y250153D01*
X34826Y250133D01*
X34787Y250117D01*
X34757Y250097D01*
X34729Y250081D01*
X34712Y250064D01*
X34699Y250053D01*
X34690Y250045D01*
X34688Y250042D01*
X34668Y250017D01*
X34654Y249992D01*
X34646Y249964D01*
X34638Y249939D01*
X34635Y249920D01*
X34632Y249903D01*
Y249889D01*
Y249887D01*
Y249862D01*
X34638Y249837D01*
X34652Y249790D01*
X34674Y249745D01*
X34696Y249709D01*
X34718Y249682D01*
X34740Y249659D01*
X34754Y249646D01*
X34757Y249640D01*
X34760D01*
X34784Y249621D01*
X34812Y249604D01*
X34873Y249579D01*
X34937Y249560D01*
X34998Y249549D01*
X35053Y249540D01*
X35075Y249538D01*
X35098D01*
X35114Y249535D01*
X35139D01*
X35222Y249540D01*
X35297Y249554D01*
X35361Y249571D01*
X35416Y249593D01*
X35438Y249604D01*
X35458Y249615D01*
X35477Y249623D01*
X35491Y249632D01*
X35502Y249640D01*
X35510Y249646D01*
X35513Y249651D01*
X35516D01*
X35541Y249676D01*
X35563Y249701D01*
X35602Y249759D01*
X35635Y249823D01*
X35660Y249884D01*
X35677Y249939D01*
X35685Y249961D01*
X35690Y249984D01*
X35693Y250000D01*
X35696Y250014D01*
X35699Y250022D01*
Y250025D01*
X36200Y249975D01*
X36189Y249898D01*
X36172Y249823D01*
X36153Y249757D01*
X36131Y249693D01*
X36106Y249635D01*
X36081Y249579D01*
X36053Y249532D01*
X36026Y249488D01*
X36001Y249449D01*
X35976Y249416D01*
X35951Y249388D01*
X35931Y249363D01*
X35915Y249346D01*
X35901Y249333D01*
X35893Y249324D01*
X35890Y249322D01*
X35837Y249283D01*
X35782Y249250D01*
X35724Y249219D01*
X35663Y249194D01*
X35602Y249172D01*
X35541Y249155D01*
X35480Y249139D01*
X35419Y249128D01*
X35364Y249119D01*
X35311Y249111D01*
X35264Y249106D01*
X35225Y249103D01*
X35192D01*
X35167Y249100D01*
X35084D01*
X35026Y249103D01*
X34967Y249108D01*
X34918Y249114D01*
X34868Y249122D01*
X34821Y249128D01*
X34779Y249136D01*
X34740Y249147D01*
X34707Y249155D01*
X34677Y249164D01*
X34649Y249169D01*
X34627Y249178D01*
X34610Y249183D01*
X34599Y249189D01*
X34591Y249191D01*
X34588D01*
X34508Y249230D01*
X34438Y249274D01*
X34380Y249324D01*
X34330Y249369D01*
X34291Y249410D01*
X34278Y249430D01*
X34264Y249446D01*
X34255Y249457D01*
X34247Y249468D01*
X34242Y249474D01*
Y249477D01*
X34220Y249513D01*
X34200Y249552D01*
X34170Y249623D01*
X34147Y249693D01*
X34134Y249757D01*
X34128Y249784D01*
X34122Y249809D01*
X34120Y249834D01*
Y249853D01*
X34117Y249867D01*
Y249881D01*
Y249887D01*
Y249889D01*
X34122Y249975D01*
X34134Y250056D01*
X34150Y250125D01*
X34159Y250155D01*
X34167Y250183D01*
X34178Y250208D01*
X34186Y250230D01*
X34194Y250250D01*
X34203Y250266D01*
X34211Y250280D01*
X34214Y250288D01*
X34220Y250294D01*
Y250297D01*
X34261Y250355D01*
X34308Y250407D01*
X34355Y250452D01*
X34400Y250490D01*
X34441Y250518D01*
X34474Y250540D01*
X34488Y250546D01*
X34496Y250552D01*
X34502Y250557D01*
X34505D01*
X34541Y250574D01*
X34580Y250593D01*
X34624Y250610D01*
X34668Y250626D01*
X34760Y250657D01*
X34851Y250684D01*
X34893Y250695D01*
X34934Y250707D01*
X34967Y250718D01*
X35001Y250726D01*
X35026Y250731D01*
X35045Y250737D01*
X35056Y250740D01*
X35061D01*
X35128Y250757D01*
X35189Y250773D01*
X35244Y250790D01*
X35294Y250806D01*
X35339Y250820D01*
X35377Y250834D01*
X35411Y250848D01*
X35438Y250859D01*
X35463Y250870D01*
X35485Y250881D01*
X35502Y250889D01*
X35513Y250898D01*
X35524Y250903D01*
X35530Y250909D01*
X35535Y250912D01*
X35560Y250937D01*
X35579Y250961D01*
X35591Y250989D01*
X35602Y251014D01*
X35607Y251033D01*
X35610Y251053D01*
Y251064D01*
Y251067D01*
X35607Y251103D01*
X35596Y251133D01*
X35585Y251161D01*
X35568Y251183D01*
X35555Y251200D01*
X35541Y251214D01*
X35532Y251222D01*
X35530Y251225D01*
X35477Y251255D01*
X35422Y251280D01*
X35361Y251297D01*
X35305Y251308D01*
X35253Y251313D01*
X35230Y251316D01*
X35211Y251319D01*
X35175D01*
X35098Y251316D01*
X35031Y251305D01*
X34976Y251291D01*
X34929Y251274D01*
X34893Y251258D01*
X34868Y251244D01*
X34854Y251233D01*
X34848Y251230D01*
X34809Y251194D01*
X34779Y251150D01*
X34754Y251103D01*
X34735Y251058D01*
X34721Y251017D01*
X34715Y250997D01*
X34710Y250981D01*
X34707Y250970D01*
Y250959D01*
X34704Y250953D01*
Y250950D01*
X34189Y250970D01*
X34194Y251033D01*
X34203Y251094D01*
X34217Y251153D01*
X34236Y251205D01*
X34255Y251255D01*
X34278Y251302D01*
X34300Y251344D01*
X34322Y251382D01*
X34347Y251416D01*
X34369Y251446D01*
X34388Y251474D01*
X34408Y251493D01*
X34424Y251510D01*
X34435Y251524D01*
X34444Y251529D01*
X34447Y251532D01*
X34494Y251571D01*
X34546Y251601D01*
X34604Y251632D01*
X34663Y251657D01*
X34721Y251676D01*
X34782Y251693D01*
X34843Y251707D01*
X34898Y251718D01*
X34953Y251729D01*
X35006Y251734D01*
X35050Y251740D01*
X35092Y251743D01*
X35122Y251745D01*
X35170D01*
X35278Y251743D01*
D02*
G37*
G36*
X47000Y252545D02*
Y248900D01*
X38413D01*
Y252545D01*
X47000D01*
D02*
G37*
G36*
X46800Y227600D02*
X38991D01*
Y231245D01*
X46800D01*
Y227600D01*
D02*
G37*
G36*
X13428Y228047D02*
X12951D01*
Y229726D01*
X11915Y228047D01*
X11400D01*
Y230604D01*
X11876D01*
Y228886D01*
X12929Y230604D01*
X13428D01*
Y228047D01*
D02*
G37*
G36*
X15161Y230640D02*
X15223Y230634D01*
X15281Y230626D01*
X15336Y230615D01*
X15386Y230604D01*
X15433Y230593D01*
X15474Y230582D01*
X15513Y230571D01*
X15547Y230559D01*
X15574Y230548D01*
X15599Y230537D01*
X15619Y230529D01*
X15632Y230523D01*
X15641Y230521D01*
X15643Y230518D01*
X15702Y230485D01*
X15757Y230449D01*
X15810Y230413D01*
X15857Y230374D01*
X15901Y230332D01*
X15940Y230294D01*
X15979Y230255D01*
X16009Y230216D01*
X16040Y230180D01*
X16064Y230147D01*
X16084Y230116D01*
X16103Y230091D01*
X16117Y230069D01*
X16126Y230053D01*
X16131Y230042D01*
X16134Y230039D01*
X16164Y229980D01*
X16189Y229920D01*
X16211Y229859D01*
X16231Y229798D01*
X16245Y229737D01*
X16258Y229679D01*
X16270Y229620D01*
X16278Y229568D01*
X16286Y229518D01*
X16292Y229474D01*
X16295Y229432D01*
X16297Y229396D01*
X16300Y229368D01*
Y229346D01*
Y229335D01*
Y229330D01*
X16297Y229260D01*
X16295Y229194D01*
X16286Y229130D01*
X16278Y229066D01*
X16264Y229008D01*
X16253Y228953D01*
X16239Y228900D01*
X16225Y228850D01*
X16211Y228806D01*
X16197Y228767D01*
X16184Y228731D01*
X16173Y228704D01*
X16164Y228679D01*
X16156Y228662D01*
X16153Y228651D01*
X16150Y228648D01*
X16120Y228590D01*
X16090Y228537D01*
X16053Y228487D01*
X16017Y228440D01*
X15981Y228399D01*
X15943Y228357D01*
X15907Y228321D01*
X15871Y228291D01*
X15837Y228260D01*
X15807Y228235D01*
X15777Y228216D01*
X15754Y228197D01*
X15732Y228183D01*
X15718Y228174D01*
X15707Y228169D01*
X15704Y228166D01*
X15646Y228136D01*
X15588Y228111D01*
X15530Y228089D01*
X15469Y228069D01*
X15408Y228055D01*
X15350Y228042D01*
X15294Y228030D01*
X15242Y228022D01*
X15192Y228014D01*
X15148Y228008D01*
X15106Y228006D01*
X15070Y228003D01*
X15042Y228000D01*
X15004D01*
X14945Y228003D01*
X14887Y228006D01*
X14774Y228019D01*
X14718Y228028D01*
X14669Y228039D01*
X14619Y228050D01*
X14574Y228061D01*
X14533Y228072D01*
X14494Y228080D01*
X14461Y228091D01*
X14433Y228100D01*
X14411Y228108D01*
X14394Y228114D01*
X14383Y228119D01*
X14380D01*
X14325Y228141D01*
X14272Y228166D01*
X14222Y228188D01*
X14178Y228213D01*
X14134Y228235D01*
X14095Y228258D01*
X14062Y228280D01*
X14029Y228302D01*
X14001Y228321D01*
X13976Y228338D01*
X13957Y228355D01*
X13940Y228368D01*
X13926Y228380D01*
X13918Y228388D01*
X13912Y228391D01*
X13909Y228393D01*
Y229415D01*
X15020D01*
Y228983D01*
X14430D01*
Y228657D01*
X14477Y228623D01*
X14524Y228596D01*
X14571Y228571D01*
X14616Y228549D01*
X14655Y228529D01*
X14685Y228515D01*
X14696Y228510D01*
X14705Y228507D01*
X14710Y228504D01*
X14713D01*
X14774Y228482D01*
X14832Y228468D01*
X14885Y228457D01*
X14934Y228449D01*
X14976Y228443D01*
X14995D01*
X15009Y228440D01*
X15037D01*
X15098Y228443D01*
X15153Y228451D01*
X15206Y228463D01*
X15258Y228476D01*
X15306Y228493D01*
X15347Y228512D01*
X15389Y228532D01*
X15425Y228554D01*
X15455Y228576D01*
X15486Y228596D01*
X15508Y228615D01*
X15530Y228632D01*
X15544Y228645D01*
X15558Y228659D01*
X15563Y228665D01*
X15566Y228668D01*
X15602Y228712D01*
X15632Y228762D01*
X15660Y228814D01*
X15682Y228870D01*
X15702Y228928D01*
X15718Y228983D01*
X15732Y229042D01*
X15743Y229094D01*
X15752Y229147D01*
X15757Y229197D01*
X15763Y229238D01*
X15765Y229277D01*
Y229307D01*
X15768Y229332D01*
Y229346D01*
Y229352D01*
X15765Y229429D01*
X15760Y229501D01*
X15749Y229568D01*
X15738Y229629D01*
X15721Y229687D01*
X15704Y229740D01*
X15688Y229787D01*
X15668Y229828D01*
X15649Y229867D01*
X15632Y229897D01*
X15616Y229925D01*
X15599Y229947D01*
X15588Y229967D01*
X15577Y229978D01*
X15572Y229986D01*
X15569Y229989D01*
X15530Y230028D01*
X15488Y230061D01*
X15444Y230089D01*
X15400Y230114D01*
X15355Y230136D01*
X15311Y230152D01*
X15267Y230166D01*
X15225Y230177D01*
X15187Y230186D01*
X15148Y230194D01*
X15114Y230199D01*
X15087Y230202D01*
X15065Y230205D01*
X15031D01*
X14951Y230199D01*
X14879Y230188D01*
X14815Y230169D01*
X14763Y230150D01*
X14740Y230138D01*
X14718Y230130D01*
X14702Y230119D01*
X14688Y230111D01*
X14674Y230105D01*
X14666Y230100D01*
X14663Y230094D01*
X14660D01*
X14607Y230050D01*
X14566Y230003D01*
X14530Y229953D01*
X14502Y229906D01*
X14480Y229864D01*
X14472Y229845D01*
X14466Y229828D01*
X14461Y229817D01*
X14458Y229806D01*
X14455Y229801D01*
Y229798D01*
X13943Y229895D01*
X13959Y229958D01*
X13979Y230019D01*
X14004Y230078D01*
X14029Y230130D01*
X14056Y230177D01*
X14087Y230224D01*
X14115Y230266D01*
X14145Y230302D01*
X14173Y230335D01*
X14200Y230366D01*
X14225Y230388D01*
X14245Y230410D01*
X14264Y230427D01*
X14278Y230438D01*
X14286Y230443D01*
X14289Y230446D01*
X14342Y230482D01*
X14397Y230512D01*
X14455Y230537D01*
X14516Y230562D01*
X14580Y230582D01*
X14641Y230595D01*
X14702Y230609D01*
X14760Y230620D01*
X14815Y230629D01*
X14865Y230634D01*
X14912Y230640D01*
X14954Y230643D01*
X14984Y230645D01*
X15098D01*
X15161Y230640D01*
D02*
G37*
G36*
X10854Y228047D02*
X9832D01*
X9782Y228050D01*
X9735Y228053D01*
X9694Y228055D01*
X9652Y228058D01*
X9613Y228064D01*
X9580Y228069D01*
X9550Y228075D01*
X9522Y228078D01*
X9497Y228083D01*
X9475Y228089D01*
X9458Y228091D01*
X9444Y228094D01*
X9436Y228097D01*
X9430Y228100D01*
X9428D01*
X9347Y228130D01*
X9275Y228163D01*
X9214Y228197D01*
X9162Y228230D01*
X9139Y228244D01*
X9120Y228258D01*
X9106Y228272D01*
X9093Y228282D01*
X9081Y228291D01*
X9073Y228299D01*
X9070Y228302D01*
X9067Y228305D01*
X9004Y228374D01*
X8948Y228449D01*
X8901Y228523D01*
X8863Y228596D01*
X8846Y228629D01*
X8832Y228659D01*
X8821Y228687D01*
X8810Y228709D01*
X8804Y228729D01*
X8799Y228745D01*
X8793Y228753D01*
Y228756D01*
X8766Y228845D01*
X8746Y228936D01*
X8732Y229028D01*
X8724Y229114D01*
X8719Y229152D01*
X8716Y229188D01*
Y229219D01*
X8713Y229246D01*
Y229269D01*
Y229285D01*
Y229296D01*
Y229299D01*
Y229366D01*
X8716Y229429D01*
X8721Y229487D01*
X8727Y229546D01*
X8732Y229598D01*
X8741Y229648D01*
X8749Y229695D01*
X8755Y229737D01*
X8763Y229773D01*
X8771Y229806D01*
X8779Y229837D01*
X8785Y229859D01*
X8790Y229878D01*
X8796Y229892D01*
X8799Y229900D01*
Y229903D01*
X8832Y229992D01*
X8871Y230072D01*
X8912Y230144D01*
X8932Y230174D01*
X8951Y230202D01*
X8971Y230230D01*
X8987Y230252D01*
X9004Y230271D01*
X9015Y230288D01*
X9026Y230302D01*
X9034Y230310D01*
X9040Y230316D01*
X9043Y230318D01*
X9106Y230377D01*
X9170Y230427D01*
X9234Y230468D01*
X9295Y230499D01*
X9347Y230523D01*
X9369Y230535D01*
X9389Y230540D01*
X9405Y230546D01*
X9416Y230551D01*
X9425Y230554D01*
X9428D01*
X9461Y230562D01*
X9497Y230571D01*
X9574Y230582D01*
X9655Y230593D01*
X9732Y230598D01*
X9768Y230601D01*
X9832D01*
X9860Y230604D01*
X10854D01*
Y228047D01*
D02*
G37*
G36*
X-6500Y249000D02*
X-7015D01*
Y249770D01*
X-7431Y250199D01*
X-8137Y249000D01*
X-8805D01*
X-7788Y250562D01*
X-8755Y251557D01*
X-8060D01*
X-7015Y250421D01*
Y251557D01*
X-6500D01*
Y249000D01*
D02*
G37*
G36*
X4200Y231157D02*
Y227600D01*
X632D01*
Y231157D01*
X4200D01*
D02*
G37*
G36*
X-6472Y228247D02*
X-6949D01*
Y229926D01*
X-7985Y228247D01*
X-8500D01*
Y230804D01*
X-8024D01*
Y229086D01*
X-6971Y230804D01*
X-6472D01*
Y228247D01*
D02*
G37*
G36*
X-4738Y230840D02*
X-4677Y230834D01*
X-4619Y230826D01*
X-4564Y230815D01*
X-4514Y230804D01*
X-4467Y230793D01*
X-4425Y230782D01*
X-4387Y230771D01*
X-4353Y230760D01*
X-4326Y230748D01*
X-4301Y230737D01*
X-4281Y230729D01*
X-4268Y230724D01*
X-4259Y230721D01*
X-4256Y230718D01*
X-4198Y230685D01*
X-4143Y230649D01*
X-4090Y230613D01*
X-4043Y230574D01*
X-3999Y230532D01*
X-3960Y230494D01*
X-3921Y230455D01*
X-3891Y230416D01*
X-3860Y230380D01*
X-3836Y230347D01*
X-3816Y230316D01*
X-3797Y230291D01*
X-3783Y230269D01*
X-3774Y230253D01*
X-3769Y230241D01*
X-3766Y230239D01*
X-3736Y230181D01*
X-3711Y230120D01*
X-3689Y230059D01*
X-3669Y229998D01*
X-3655Y229937D01*
X-3642Y229879D01*
X-3630Y229820D01*
X-3622Y229768D01*
X-3614Y229718D01*
X-3608Y229674D01*
X-3605Y229632D01*
X-3603Y229596D01*
X-3600Y229568D01*
Y229546D01*
Y229535D01*
Y229530D01*
X-3603Y229460D01*
X-3605Y229394D01*
X-3614Y229330D01*
X-3622Y229266D01*
X-3636Y229208D01*
X-3647Y229153D01*
X-3661Y229100D01*
X-3675Y229050D01*
X-3689Y229006D01*
X-3703Y228967D01*
X-3716Y228931D01*
X-3727Y228904D01*
X-3736Y228879D01*
X-3744Y228862D01*
X-3747Y228851D01*
X-3750Y228848D01*
X-3780Y228790D01*
X-3810Y228737D01*
X-3847Y228688D01*
X-3883Y228640D01*
X-3918Y228599D01*
X-3957Y228557D01*
X-3993Y228521D01*
X-4029Y228491D01*
X-4063Y228460D01*
X-4093Y228435D01*
X-4123Y228416D01*
X-4146Y228397D01*
X-4168Y228383D01*
X-4182Y228375D01*
X-4193Y228369D01*
X-4196Y228366D01*
X-4254Y228336D01*
X-4312Y228311D01*
X-4370Y228289D01*
X-4431Y228269D01*
X-4492Y228255D01*
X-4550Y228242D01*
X-4606Y228231D01*
X-4658Y228222D01*
X-4708Y228214D01*
X-4752Y228208D01*
X-4794Y228205D01*
X-4830Y228203D01*
X-4858Y228200D01*
X-4896D01*
X-4955Y228203D01*
X-5013Y228205D01*
X-5126Y228219D01*
X-5182Y228228D01*
X-5232Y228239D01*
X-5281Y228250D01*
X-5326Y228261D01*
X-5367Y228272D01*
X-5406Y228280D01*
X-5439Y228291D01*
X-5467Y228300D01*
X-5489Y228308D01*
X-5506Y228314D01*
X-5517Y228319D01*
X-5520D01*
X-5575Y228341D01*
X-5628Y228366D01*
X-5677Y228388D01*
X-5722Y228413D01*
X-5766Y228435D01*
X-5805Y228458D01*
X-5838Y228480D01*
X-5871Y228502D01*
X-5899Y228521D01*
X-5924Y228538D01*
X-5943Y228555D01*
X-5960Y228568D01*
X-5974Y228579D01*
X-5982Y228588D01*
X-5988Y228591D01*
X-5991Y228593D01*
Y229615D01*
X-4880D01*
Y229183D01*
X-5470D01*
Y228856D01*
X-5423Y228823D01*
X-5376Y228796D01*
X-5328Y228771D01*
X-5284Y228748D01*
X-5245Y228729D01*
X-5215Y228715D01*
X-5204Y228710D01*
X-5195Y228707D01*
X-5190Y228704D01*
X-5187D01*
X-5126Y228682D01*
X-5068Y228668D01*
X-5015Y228657D01*
X-4966Y228649D01*
X-4924Y228643D01*
X-4905D01*
X-4891Y228640D01*
X-4863D01*
X-4802Y228643D01*
X-4747Y228651D01*
X-4694Y228663D01*
X-4642Y228676D01*
X-4594Y228693D01*
X-4553Y228712D01*
X-4511Y228732D01*
X-4475Y228754D01*
X-4445Y228776D01*
X-4414Y228796D01*
X-4392Y228815D01*
X-4370Y228832D01*
X-4356Y228845D01*
X-4342Y228859D01*
X-4337Y228865D01*
X-4334Y228868D01*
X-4298Y228912D01*
X-4268Y228962D01*
X-4240Y229014D01*
X-4218Y229070D01*
X-4198Y229128D01*
X-4182Y229183D01*
X-4168Y229241D01*
X-4157Y229294D01*
X-4149Y229347D01*
X-4143Y229397D01*
X-4137Y229438D01*
X-4135Y229477D01*
Y229507D01*
X-4132Y229532D01*
Y229546D01*
Y229552D01*
X-4135Y229629D01*
X-4140Y229701D01*
X-4151Y229768D01*
X-4162Y229829D01*
X-4179Y229887D01*
X-4196Y229940D01*
X-4212Y229987D01*
X-4232Y230028D01*
X-4251Y230067D01*
X-4268Y230097D01*
X-4284Y230125D01*
X-4301Y230147D01*
X-4312Y230167D01*
X-4323Y230178D01*
X-4329Y230186D01*
X-4331Y230189D01*
X-4370Y230228D01*
X-4412Y230261D01*
X-4456Y230289D01*
X-4500Y230313D01*
X-4545Y230336D01*
X-4589Y230352D01*
X-4633Y230366D01*
X-4675Y230377D01*
X-4713Y230385D01*
X-4752Y230394D01*
X-4786Y230399D01*
X-4813Y230402D01*
X-4835Y230405D01*
X-4869D01*
X-4949Y230399D01*
X-5021Y230388D01*
X-5085Y230369D01*
X-5137Y230349D01*
X-5159Y230338D01*
X-5182Y230330D01*
X-5198Y230319D01*
X-5212Y230311D01*
X-5226Y230305D01*
X-5234Y230300D01*
X-5237Y230294D01*
X-5240D01*
X-5293Y230250D01*
X-5334Y230203D01*
X-5370Y230153D01*
X-5398Y230106D01*
X-5420Y230064D01*
X-5428Y230045D01*
X-5434Y230028D01*
X-5439Y230017D01*
X-5442Y230006D01*
X-5445Y230000D01*
Y229998D01*
X-5957Y230095D01*
X-5941Y230158D01*
X-5921Y230219D01*
X-5896Y230277D01*
X-5871Y230330D01*
X-5844Y230377D01*
X-5813Y230424D01*
X-5785Y230466D01*
X-5755Y230502D01*
X-5727Y230535D01*
X-5700Y230566D01*
X-5675Y230588D01*
X-5655Y230610D01*
X-5636Y230627D01*
X-5622Y230638D01*
X-5614Y230643D01*
X-5611Y230646D01*
X-5558Y230682D01*
X-5503Y230712D01*
X-5445Y230737D01*
X-5384Y230762D01*
X-5320Y230782D01*
X-5259Y230796D01*
X-5198Y230809D01*
X-5140Y230820D01*
X-5085Y230829D01*
X-5035Y230834D01*
X-4988Y230840D01*
X-4946Y230843D01*
X-4916Y230845D01*
X-4802D01*
X-4738Y230840D01*
D02*
G37*
G36*
X-9046Y228247D02*
X-10068D01*
X-10118Y228250D01*
X-10165Y228253D01*
X-10206Y228255D01*
X-10248Y228258D01*
X-10287Y228264D01*
X-10320Y228269D01*
X-10351Y228275D01*
X-10378Y228278D01*
X-10403Y228283D01*
X-10425Y228289D01*
X-10442Y228291D01*
X-10456Y228294D01*
X-10464Y228297D01*
X-10470Y228300D01*
X-10472D01*
X-10553Y228330D01*
X-10625Y228363D01*
X-10686Y228397D01*
X-10738Y228430D01*
X-10761Y228444D01*
X-10780Y228458D01*
X-10794Y228471D01*
X-10808Y228483D01*
X-10819Y228491D01*
X-10827Y228499D01*
X-10830Y228502D01*
X-10832Y228505D01*
X-10896Y228574D01*
X-10952Y228649D01*
X-10999Y228724D01*
X-11037Y228796D01*
X-11054Y228829D01*
X-11068Y228859D01*
X-11079Y228887D01*
X-11090Y228909D01*
X-11096Y228928D01*
X-11101Y228945D01*
X-11107Y228953D01*
Y228956D01*
X-11134Y229045D01*
X-11154Y229136D01*
X-11168Y229228D01*
X-11176Y229313D01*
X-11181Y229352D01*
X-11184Y229388D01*
Y229419D01*
X-11187Y229447D01*
Y229469D01*
Y229485D01*
Y229496D01*
Y229499D01*
Y229566D01*
X-11184Y229629D01*
X-11179Y229688D01*
X-11173Y229746D01*
X-11168Y229798D01*
X-11159Y229848D01*
X-11151Y229895D01*
X-11146Y229937D01*
X-11137Y229973D01*
X-11129Y230006D01*
X-11121Y230036D01*
X-11115Y230059D01*
X-11109Y230078D01*
X-11104Y230092D01*
X-11101Y230100D01*
Y230103D01*
X-11068Y230192D01*
X-11029Y230272D01*
X-10988Y230344D01*
X-10968Y230374D01*
X-10949Y230402D01*
X-10929Y230430D01*
X-10913Y230452D01*
X-10896Y230471D01*
X-10885Y230488D01*
X-10874Y230502D01*
X-10866Y230510D01*
X-10860Y230516D01*
X-10857Y230519D01*
X-10794Y230577D01*
X-10730Y230627D01*
X-10666Y230668D01*
X-10605Y230698D01*
X-10553Y230724D01*
X-10531Y230734D01*
X-10511Y230740D01*
X-10494Y230746D01*
X-10484Y230751D01*
X-10475Y230754D01*
X-10472D01*
X-10439Y230762D01*
X-10403Y230771D01*
X-10326Y230782D01*
X-10245Y230793D01*
X-10168Y230798D01*
X-10132Y230801D01*
X-10068D01*
X-10040Y230804D01*
X-9046D01*
Y228247D01*
D02*
G37*
G36*
X7000Y252357D02*
Y248800D01*
X-1363D01*
Y252357D01*
X7000D01*
D02*
G37*
G36*
X13528Y249247D02*
X13051D01*
Y250926D01*
X12015Y249247D01*
X11500D01*
Y251804D01*
X11976D01*
Y250086D01*
X13029Y251804D01*
X13528D01*
Y249247D01*
D02*
G37*
G36*
X15261Y251840D02*
X15323Y251834D01*
X15381Y251826D01*
X15436Y251815D01*
X15486Y251804D01*
X15533Y251793D01*
X15574Y251782D01*
X15613Y251771D01*
X15647Y251760D01*
X15674Y251748D01*
X15699Y251737D01*
X15719Y251729D01*
X15732Y251724D01*
X15741Y251721D01*
X15743Y251718D01*
X15802Y251685D01*
X15857Y251649D01*
X15910Y251613D01*
X15957Y251574D01*
X16001Y251532D01*
X16040Y251494D01*
X16079Y251455D01*
X16109Y251416D01*
X16140Y251380D01*
X16164Y251347D01*
X16184Y251316D01*
X16203Y251291D01*
X16217Y251269D01*
X16226Y251253D01*
X16231Y251241D01*
X16234Y251239D01*
X16264Y251181D01*
X16289Y251120D01*
X16311Y251059D01*
X16331Y250998D01*
X16345Y250937D01*
X16358Y250879D01*
X16369Y250820D01*
X16378Y250768D01*
X16386Y250718D01*
X16392Y250674D01*
X16395Y250632D01*
X16397Y250596D01*
X16400Y250568D01*
Y250546D01*
Y250535D01*
Y250530D01*
X16397Y250460D01*
X16395Y250394D01*
X16386Y250330D01*
X16378Y250266D01*
X16364Y250208D01*
X16353Y250153D01*
X16339Y250100D01*
X16325Y250050D01*
X16311Y250006D01*
X16297Y249967D01*
X16284Y249931D01*
X16273Y249904D01*
X16264Y249879D01*
X16256Y249862D01*
X16253Y249851D01*
X16250Y249848D01*
X16220Y249790D01*
X16190Y249737D01*
X16153Y249688D01*
X16117Y249640D01*
X16082Y249599D01*
X16043Y249557D01*
X16007Y249521D01*
X15971Y249491D01*
X15937Y249460D01*
X15907Y249435D01*
X15877Y249416D01*
X15854Y249397D01*
X15832Y249383D01*
X15818Y249375D01*
X15807Y249369D01*
X15804Y249366D01*
X15746Y249336D01*
X15688Y249311D01*
X15630Y249289D01*
X15569Y249269D01*
X15508Y249255D01*
X15450Y249242D01*
X15394Y249231D01*
X15342Y249222D01*
X15292Y249214D01*
X15248Y249208D01*
X15206Y249205D01*
X15170Y249203D01*
X15142Y249200D01*
X15104D01*
X15045Y249203D01*
X14987Y249205D01*
X14874Y249219D01*
X14818Y249228D01*
X14769Y249239D01*
X14719Y249250D01*
X14674Y249261D01*
X14633Y249272D01*
X14594Y249280D01*
X14561Y249291D01*
X14533Y249300D01*
X14511Y249308D01*
X14494Y249314D01*
X14483Y249319D01*
X14480D01*
X14425Y249341D01*
X14372Y249366D01*
X14322Y249388D01*
X14278Y249413D01*
X14234Y249435D01*
X14195Y249458D01*
X14162Y249480D01*
X14129Y249502D01*
X14101Y249521D01*
X14076Y249538D01*
X14057Y249555D01*
X14040Y249568D01*
X14026Y249580D01*
X14018Y249588D01*
X14012Y249591D01*
X14009Y249593D01*
Y250616D01*
X15120D01*
Y250183D01*
X14530D01*
Y249856D01*
X14577Y249823D01*
X14624Y249796D01*
X14672Y249771D01*
X14716Y249748D01*
X14755Y249729D01*
X14785Y249715D01*
X14796Y249710D01*
X14805Y249707D01*
X14810Y249704D01*
X14813D01*
X14874Y249682D01*
X14932Y249668D01*
X14985Y249657D01*
X15034Y249649D01*
X15076Y249643D01*
X15095D01*
X15109Y249640D01*
X15137D01*
X15198Y249643D01*
X15253Y249652D01*
X15306Y249663D01*
X15359Y249676D01*
X15406Y249693D01*
X15447Y249712D01*
X15489Y249732D01*
X15525Y249754D01*
X15555Y249776D01*
X15586Y249796D01*
X15608Y249815D01*
X15630Y249832D01*
X15644Y249845D01*
X15658Y249859D01*
X15663Y249865D01*
X15666Y249868D01*
X15702Y249912D01*
X15732Y249962D01*
X15760Y250014D01*
X15782Y250070D01*
X15802Y250128D01*
X15818Y250183D01*
X15832Y250241D01*
X15843Y250294D01*
X15852Y250347D01*
X15857Y250397D01*
X15863Y250438D01*
X15865Y250477D01*
Y250507D01*
X15868Y250532D01*
Y250546D01*
Y250552D01*
X15865Y250629D01*
X15860Y250701D01*
X15849Y250768D01*
X15838Y250829D01*
X15821Y250887D01*
X15804Y250940D01*
X15788Y250987D01*
X15768Y251028D01*
X15749Y251067D01*
X15732Y251097D01*
X15716Y251125D01*
X15699Y251147D01*
X15688Y251167D01*
X15677Y251178D01*
X15672Y251186D01*
X15669Y251189D01*
X15630Y251228D01*
X15588Y251261D01*
X15544Y251289D01*
X15500Y251313D01*
X15455Y251336D01*
X15411Y251352D01*
X15367Y251366D01*
X15325Y251377D01*
X15286Y251385D01*
X15248Y251394D01*
X15214Y251399D01*
X15187Y251402D01*
X15165Y251405D01*
X15131D01*
X15051Y251399D01*
X14979Y251388D01*
X14915Y251369D01*
X14863Y251349D01*
X14841Y251338D01*
X14818Y251330D01*
X14802Y251319D01*
X14788Y251311D01*
X14774Y251305D01*
X14766Y251300D01*
X14763Y251294D01*
X14760D01*
X14707Y251250D01*
X14666Y251203D01*
X14630Y251153D01*
X14602Y251106D01*
X14580Y251064D01*
X14572Y251045D01*
X14566Y251028D01*
X14561Y251017D01*
X14558Y251006D01*
X14555Y251000D01*
Y250998D01*
X14043Y251095D01*
X14059Y251158D01*
X14079Y251219D01*
X14104Y251277D01*
X14129Y251330D01*
X14156Y251377D01*
X14187Y251424D01*
X14214Y251466D01*
X14245Y251502D01*
X14273Y251535D01*
X14300Y251566D01*
X14325Y251588D01*
X14345Y251610D01*
X14364Y251626D01*
X14378Y251638D01*
X14386Y251643D01*
X14389Y251646D01*
X14442Y251682D01*
X14497Y251712D01*
X14555Y251737D01*
X14616Y251762D01*
X14680Y251782D01*
X14741Y251796D01*
X14802Y251809D01*
X14860Y251820D01*
X14915Y251829D01*
X14965Y251834D01*
X15012Y251840D01*
X15054Y251843D01*
X15084Y251845D01*
X15198D01*
X15261Y251840D01*
D02*
G37*
G36*
X10954Y249247D02*
X9932D01*
X9882Y249250D01*
X9835Y249253D01*
X9794Y249255D01*
X9752Y249258D01*
X9713Y249264D01*
X9680Y249269D01*
X9650Y249275D01*
X9622Y249278D01*
X9597Y249283D01*
X9575Y249289D01*
X9558Y249291D01*
X9544Y249294D01*
X9536Y249297D01*
X9530Y249300D01*
X9528D01*
X9447Y249330D01*
X9375Y249363D01*
X9314Y249397D01*
X9262Y249430D01*
X9240Y249444D01*
X9220Y249458D01*
X9206Y249471D01*
X9193Y249482D01*
X9181Y249491D01*
X9173Y249499D01*
X9170Y249502D01*
X9167Y249505D01*
X9104Y249574D01*
X9048Y249649D01*
X9001Y249724D01*
X8963Y249796D01*
X8946Y249829D01*
X8932Y249859D01*
X8921Y249887D01*
X8910Y249909D01*
X8904Y249928D01*
X8899Y249945D01*
X8893Y249953D01*
Y249956D01*
X8866Y250045D01*
X8846Y250136D01*
X8832Y250228D01*
X8824Y250313D01*
X8818Y250352D01*
X8816Y250388D01*
Y250419D01*
X8813Y250447D01*
Y250469D01*
Y250485D01*
Y250496D01*
Y250499D01*
Y250566D01*
X8816Y250629D01*
X8821Y250688D01*
X8827Y250746D01*
X8832Y250798D01*
X8841Y250848D01*
X8849Y250895D01*
X8855Y250937D01*
X8863Y250973D01*
X8871Y251006D01*
X8879Y251037D01*
X8885Y251059D01*
X8890Y251078D01*
X8896Y251092D01*
X8899Y251100D01*
Y251103D01*
X8932Y251192D01*
X8971Y251272D01*
X9012Y251344D01*
X9032Y251374D01*
X9051Y251402D01*
X9071Y251430D01*
X9087Y251452D01*
X9104Y251471D01*
X9115Y251488D01*
X9126Y251502D01*
X9134Y251510D01*
X9140Y251516D01*
X9143Y251519D01*
X9206Y251577D01*
X9270Y251626D01*
X9334Y251668D01*
X9395Y251698D01*
X9447Y251724D01*
X9470Y251734D01*
X9489Y251740D01*
X9505Y251746D01*
X9516Y251751D01*
X9525Y251754D01*
X9528D01*
X9561Y251762D01*
X9597Y251771D01*
X9674Y251782D01*
X9755Y251793D01*
X9832Y251798D01*
X9868Y251801D01*
X9932D01*
X9960Y251804D01*
X10954D01*
Y249247D01*
D02*
G37*
%LPC*%
G36*
X19428Y108341D02*
X14405D01*
Y105637D01*
X19428Y106537D01*
Y106126D01*
X18867Y106027D01*
Y105736D01*
Y105268D01*
X17276Y104987D01*
Y105736D01*
X16742Y105637D01*
D01*
X16714Y105632D01*
Y104883D01*
X14967Y104571D01*
Y105315D01*
X14405Y105211D01*
Y103854D01*
X16357Y104207D01*
X19428Y104764D01*
Y104207D01*
Y104119D01*
Y107915D01*
X19423Y107946D01*
X19413Y107993D01*
X19397Y108040D01*
X19371Y108097D01*
X19340Y108149D01*
X19293Y108201D01*
X19288Y108206D01*
X19272Y108222D01*
X19241Y108243D01*
X19205Y108269D01*
X19158Y108295D01*
X19106Y108315D01*
X19044Y108331D01*
X18976Y108341D01*
X19428D01*
D01*
D02*
G37*
G36*
X18997Y104207D02*
X18986D01*
X18966D01*
X18929Y104202D01*
X18888Y104192D01*
X17006Y103854D01*
X14863Y103469D01*
X14852D01*
X14832Y103459D01*
X14795Y103448D01*
X14748Y103433D01*
X14696Y103407D01*
X14639Y103375D01*
X14582Y103334D01*
X14530Y103282D01*
X14525Y103277D01*
X14509Y103256D01*
X14488Y103225D01*
X14468Y103178D01*
X14447Y103126D01*
X14426Y103069D01*
X14410Y103001D01*
X14405Y102928D01*
Y101483D01*
Y100417D01*
X14416D01*
X14436Y100411D01*
X14473D01*
X14525Y100406D01*
X14587Y100401D01*
X14660Y100391D01*
X14748Y100385D01*
X14842Y100375D01*
X14951Y100365D01*
X15066Y100354D01*
X15185Y100344D01*
X15315Y100333D01*
X15450Y100323D01*
X15591Y100307D01*
X15887Y100287D01*
X16194Y100261D01*
X16506Y100235D01*
X16818Y100214D01*
X17125Y100193D01*
X17416Y100177D01*
X17556Y100167D01*
X17692Y100162D01*
X17816Y100157D01*
X17936D01*
X18045Y100151D01*
X18108D01*
X18082Y100146D01*
X18050D01*
X18014Y100141D01*
X17967Y100136D01*
X17920Y100131D01*
X17858Y100125D01*
X17796Y100120D01*
X17723Y100115D01*
X17645Y100105D01*
X17556Y100094D01*
X17458Y100084D01*
X17354Y100068D01*
X17244Y100053D01*
X17125Y100037D01*
X16995Y100021D01*
X16854Y100001D01*
X16704Y99980D01*
X16548Y99954D01*
X16381Y99933D01*
X16204Y99902D01*
X16017Y99876D01*
X15820Y99845D01*
X15612Y99808D01*
X15393Y99772D01*
X15164Y99735D01*
X14920Y99694D01*
X14670Y99647D01*
X14405Y99600D01*
Y99647D01*
Y98992D01*
X19428Y99902D01*
Y100562D01*
Y100510D01*
X19423D01*
X19397Y100515D01*
X19361D01*
X19309Y100521D01*
X19246Y100531D01*
X19168Y100536D01*
X19085Y100547D01*
X18986Y100552D01*
X18877Y100562D01*
X18763Y100573D01*
X18638Y100588D01*
X18508Y100599D01*
X18373Y100609D01*
X18227Y100625D01*
X17931Y100651D01*
X17614Y100671D01*
X17296Y100697D01*
X16974Y100723D01*
X16662Y100744D01*
X16360Y100760D01*
X16215Y100770D01*
X16074Y100775D01*
X15944Y100781D01*
X15820D01*
X15700Y100786D01*
X15638D01*
X15669Y100791D01*
X15700D01*
X15742Y100796D01*
X15788Y100801D01*
X15846D01*
X15908Y100807D01*
X15976Y100817D01*
X16054Y100822D01*
X16137Y100833D01*
X16230Y100843D01*
X16334Y100853D01*
X16444Y100864D01*
X16558Y100879D01*
X16683Y100895D01*
X16818Y100916D01*
X16964Y100931D01*
X17114Y100952D01*
X17276Y100978D01*
X17447Y101004D01*
X17629Y101030D01*
X17816Y101061D01*
X18014Y101093D01*
X18227Y101124D01*
X18446Y101160D01*
X18674Y101202D01*
X18914Y101243D01*
X19168Y101285D01*
X19428Y101332D01*
Y101935D01*
X14405Y101025D01*
Y101483D01*
X19428Y102393D01*
Y101935D01*
Y103786D01*
X19423Y103823D01*
X19416Y103854D01*
X19413Y103869D01*
X19392Y103916D01*
X19371Y103973D01*
X19335Y104025D01*
X19288Y104077D01*
X19283Y104083D01*
X19267Y104098D01*
X19236Y104119D01*
X19205Y104145D01*
X19158Y104166D01*
X19111Y104187D01*
X19054Y104202D01*
X18997Y104207D01*
D02*
G37*
G36*
X19428Y99647D02*
Y99486D01*
X18867Y99387D01*
Y99096D01*
Y98628D01*
X17276Y98347D01*
Y99096D01*
X16714Y98992D01*
D01*
Y98243D01*
X14967Y97931D01*
Y98675D01*
X14405Y98571D01*
Y97213D01*
X19428Y98123D01*
Y97817D01*
X18862Y97707D01*
Y97286D01*
X14405Y96480D01*
Y95872D01*
X18862Y96683D01*
Y96251D01*
X19428Y96355D01*
Y96116D01*
Y99647D01*
D02*
G37*
G36*
Y96116D02*
X16948Y94977D01*
X14405Y95201D01*
Y95872D01*
Y93209D01*
X15631Y93771D01*
X16948Y94374D01*
X19428Y94156D01*
Y94759D01*
X18050Y94879D01*
X19428Y95513D01*
Y96116D01*
D02*
G37*
G36*
Y93813D02*
Y93771D01*
X18867Y93672D01*
Y93209D01*
D01*
Y92913D01*
X17276Y92632D01*
Y93381D01*
X16714Y93277D01*
Y93209D01*
D01*
Y92528D01*
X14967Y92216D01*
Y92960D01*
X14405Y92856D01*
Y91499D01*
D01*
X19428Y92409D01*
Y91499D01*
D01*
Y93813D01*
D02*
G37*
G36*
Y91072D02*
X14405D01*
D01*
X19428D01*
X16355Y89689D01*
X14405Y89335D01*
Y88732D01*
D01*
X16345Y89081D01*
X19428Y88940D01*
Y88732D01*
Y91072D01*
D02*
G37*
G36*
Y88025D02*
X14405D01*
D01*
X19428D01*
X14405Y87864D01*
Y87297D01*
X15232Y87339D01*
Y86652D01*
X14405Y86408D01*
Y85768D01*
D01*
X19428Y87422D01*
Y85768D01*
D01*
Y88025D01*
D02*
G37*
G36*
Y85628D02*
X14405D01*
D01*
X19428D01*
X14967Y84827D01*
Y85571D01*
X14405Y85467D01*
Y84515D01*
X14400D01*
D01*
X14405D01*
Y84109D01*
X19428Y85014D01*
Y84515D01*
D01*
Y84094D01*
X19423Y84130D01*
X19413Y84172D01*
X19392Y84224D01*
X19371Y84276D01*
X19335Y84333D01*
X19288Y84385D01*
X19283Y84390D01*
X19267Y84406D01*
X19236Y84427D01*
X19205Y84453D01*
X19158Y84473D01*
X19106Y84494D01*
X19054Y84510D01*
X18992Y84515D01*
X18981D01*
X18960D01*
X18929Y84510D01*
X18888Y84499D01*
X17109Y84182D01*
X17099D01*
X17078Y84172D01*
X17036Y84161D01*
X16990Y84146D01*
X16938Y84120D01*
X16923Y84109D01*
D01*
X16886Y84083D01*
X16828Y84042D01*
X16776Y83990D01*
X16771Y83985D01*
X16756Y83964D01*
X16735Y83933D01*
X16714Y83891D01*
X16693Y83839D01*
X16672Y83777D01*
X16657Y83709D01*
X16652Y83636D01*
Y82851D01*
X14400Y82440D01*
Y81837D01*
D01*
X16153Y82154D01*
X16670Y82248D01*
X19428Y82747D01*
Y82248D01*
D01*
Y81827D01*
X19427Y81837D01*
X19423Y81858D01*
X19413Y81905D01*
X19397Y81951D01*
X19371Y82003D01*
X19340Y82055D01*
X19293Y82107D01*
X19288Y82113D01*
X19267Y82128D01*
X19241Y82154D01*
X19200Y82180D01*
X19153Y82201D01*
X19096Y82227D01*
X19033Y82243D01*
X18966Y82248D01*
X18960D01*
X18940D01*
X18914Y82243D01*
X18893Y82237D01*
X17660Y82019D01*
Y81431D01*
X18695Y81619D01*
X18700Y81624D01*
X18721D01*
X18732D01*
X18752Y81619D01*
X18784Y81603D01*
X18820Y81577D01*
X18825Y81567D01*
X18841Y81546D01*
X18856Y81515D01*
X18862Y81473D01*
Y81140D01*
X18856Y81104D01*
X18841Y81057D01*
X18810Y81010D01*
X18799Y81000D01*
X18778Y80979D01*
X18742Y80953D01*
X18695Y80937D01*
X18139Y80839D01*
X18134D01*
X18128D01*
X18097Y80833D01*
X18056Y80828D01*
X18009D01*
X18004D01*
X17998D01*
X17967Y80833D01*
X17915Y80839D01*
X17853Y80849D01*
X17775Y80865D01*
X17692Y80896D01*
X17598Y80932D01*
X17499Y80984D01*
X17494D01*
X17489Y80989D01*
X17458Y81010D01*
X17411Y81041D01*
X17343Y81078D01*
X17270Y81125D01*
X17182Y81177D01*
X17088Y81234D01*
X16995Y81291D01*
X16797Y81405D01*
X16709Y81457D01*
X16620Y81504D01*
X16542Y81546D01*
X16475Y81577D01*
X16428Y81603D01*
X16392Y81613D01*
X16386Y81619D01*
X16360Y81629D01*
X16329Y81645D01*
X16282Y81660D01*
X16230Y81676D01*
X16168Y81691D01*
X16095Y81702D01*
X16022Y81707D01*
X16017D01*
X16007D01*
X15991D01*
X15965Y81702D01*
X15903Y81697D01*
X15830Y81681D01*
X14863Y81504D01*
X14852D01*
X14832Y81494D01*
X14795Y81483D01*
X14748Y81468D01*
X14696Y81442D01*
X14639Y81405D01*
X14582Y81364D01*
X14530Y81312D01*
X14525Y81307D01*
X14509Y81286D01*
X14488Y81249D01*
X14468Y81208D01*
X14447Y81156D01*
X14426Y81093D01*
X14410Y81026D01*
X14405Y80953D01*
Y80085D01*
X14410Y80048D01*
X14421Y80007D01*
X14436Y79960D01*
X14462Y79908D01*
X14494Y79856D01*
X14535Y79804D01*
X14540Y79799D01*
X14561Y79783D01*
X14587Y79767D01*
X14629Y79747D01*
X14676Y79721D01*
X14733Y79705D01*
X14795Y79689D01*
X14863Y79684D01*
X14941D01*
X16215Y79903D01*
Y80485D01*
X15138Y80298D01*
X15118D01*
X15107D01*
X15081Y80303D01*
X15050Y80313D01*
X15014Y80339D01*
X15008Y80345D01*
X14993Y80365D01*
X14977Y80397D01*
X14972Y80438D01*
Y80776D01*
X14977Y80807D01*
X14993Y80854D01*
X15019Y80901D01*
Y80906D01*
X15029Y80911D01*
X15055Y80932D01*
X15092Y80958D01*
X15144Y80979D01*
X15851Y81104D01*
X15856D01*
X15872Y81109D01*
X15892Y81114D01*
X15918D01*
X15924D01*
X15944D01*
X15976Y81109D01*
X16017Y81099D01*
X16069Y81083D01*
X16132Y81057D01*
X16204Y81026D01*
X16282Y80984D01*
X16288D01*
X16303Y80974D01*
X16334Y80953D01*
X16360Y80943D01*
X16386Y80927D01*
X16423Y80911D01*
X16459Y80891D01*
X16506Y80865D01*
X16558Y80839D01*
X16615Y80807D01*
X16683Y80771D01*
X16756Y80729D01*
X16839Y80688D01*
X16844Y80683D01*
X16860Y80677D01*
X16886Y80662D01*
X16922Y80646D01*
X16958Y80625D01*
X17005Y80599D01*
X17104Y80547D01*
X17208Y80495D01*
X17307Y80443D01*
X17348Y80423D01*
X17385Y80402D01*
X17411Y80386D01*
X17432Y80376D01*
X17437D01*
X17442Y80371D01*
X17458Y80365D01*
X17478Y80355D01*
X17530Y80334D01*
X17598Y80313D01*
X17676Y80287D01*
X17759Y80267D01*
X17853Y80251D01*
X17946Y80246D01*
X17952D01*
X17957D01*
X17978D01*
X17983D01*
X17988D01*
X18019D01*
X18056Y80251D01*
X18102Y80256D01*
X18971Y80402D01*
X18981D01*
X19002Y80412D01*
X19038Y80423D01*
X19085Y80438D01*
X19137Y80464D01*
X19194Y80501D01*
X19246Y80542D01*
X19298Y80599D01*
X19304Y80605D01*
X19319Y80625D01*
X19340Y80662D01*
X19366Y80703D01*
X19387Y80755D01*
X19408Y80813D01*
X19423Y80880D01*
X19428Y80953D01*
Y80085D01*
X17231Y79684D01*
D01*
X14405Y79169D01*
Y79747D01*
Y79689D01*
Y79684D01*
Y79169D01*
Y78566D01*
X19428Y79481D01*
Y78920D01*
Y78831D01*
Y85628D01*
D02*
G37*
G36*
X18997Y78920D02*
X18986D01*
X18966D01*
X18929Y78915D01*
X18888Y78904D01*
X17006Y78566D01*
X14863Y78181D01*
X14852D01*
X14832Y78171D01*
X14795Y78161D01*
X14748Y78145D01*
X14696Y78119D01*
X14639Y78088D01*
X14582Y78046D01*
X14530Y77994D01*
X14525Y77989D01*
X14509Y77968D01*
X14488Y77937D01*
X14468Y77890D01*
X14447Y77838D01*
X14426Y77781D01*
X14410Y77713D01*
X14405Y77641D01*
Y76195D01*
D01*
X19428Y77105D01*
Y78499D01*
X19423Y78535D01*
X19416Y78566D01*
X19413Y78582D01*
X19392Y78629D01*
X19371Y78686D01*
X19335Y78738D01*
X19288Y78790D01*
X19283Y78795D01*
X19267Y78811D01*
X19236Y78831D01*
X19205Y78857D01*
X19158Y78878D01*
X19111Y78899D01*
X19054Y78915D01*
X18997Y78920D01*
D02*
G37*
G36*
X19428Y75602D02*
X14405D01*
D01*
X19428D01*
X14405Y74687D01*
Y74489D01*
X14400D01*
Y71811D01*
D01*
X14405Y71812D01*
X16670Y72222D01*
D01*
X19428Y72721D01*
Y71811D01*
Y71832D01*
Y72721D01*
Y74068D01*
X19426Y74084D01*
X19423Y74105D01*
X19413Y74146D01*
X19392Y74198D01*
X19371Y74250D01*
X19335Y74307D01*
X19288Y74359D01*
X19283Y74365D01*
X19267Y74380D01*
X19236Y74401D01*
X19205Y74427D01*
X19158Y74448D01*
X19106Y74469D01*
X19054Y74484D01*
X18992Y74489D01*
X18981D01*
X18960D01*
D01*
X18929Y74484D01*
X18888Y74474D01*
X17109Y74157D01*
X17099D01*
X17078Y74146D01*
X17036Y74136D01*
X16990Y74120D01*
X16938Y74094D01*
X16886Y74058D01*
X16828Y74016D01*
X16776Y73964D01*
X16771Y73959D01*
X16756Y73938D01*
X16735Y73907D01*
X16714Y73865D01*
X16693Y73813D01*
X16672Y73751D01*
X16657Y73683D01*
X16652Y73611D01*
Y72825D01*
X14400Y72415D01*
Y74489D01*
X14405D01*
Y74084D01*
X19428Y74999D01*
Y74489D01*
D01*
Y75602D01*
D02*
G37*
G36*
X18966Y72222D02*
X18960D01*
X18940D01*
X18914Y72217D01*
X18893Y72212D01*
X17660Y71993D01*
Y71811D01*
D01*
Y71406D01*
X18695Y71593D01*
X18700Y71598D01*
X18721D01*
X18732D01*
X18752Y71593D01*
X18784Y71577D01*
X18820Y71551D01*
X18825Y71541D01*
X18841Y71520D01*
X18856Y71489D01*
X18862Y71447D01*
Y71115D01*
X18856Y71078D01*
X18841Y71031D01*
X18810Y70985D01*
X18799Y70974D01*
X18778Y70953D01*
X18742Y70927D01*
X18695Y70912D01*
X18139Y70813D01*
X18134D01*
X18128D01*
X18097Y70808D01*
X18056Y70803D01*
X18009D01*
X18004D01*
X17998D01*
X17967Y70808D01*
X17915Y70813D01*
X17853Y70823D01*
X17775Y70839D01*
X17692Y70870D01*
X17598Y70907D01*
X17499Y70959D01*
X17494D01*
X17489Y70964D01*
X17458Y70985D01*
X17411Y71016D01*
X17343Y71052D01*
X17270Y71099D01*
X17182Y71151D01*
X17088Y71208D01*
X16995Y71265D01*
X16797Y71380D01*
X16709Y71432D01*
X16620Y71479D01*
X16542Y71520D01*
X16475Y71551D01*
X16428Y71577D01*
X16392Y71588D01*
X16386Y71593D01*
X16360Y71603D01*
X16329Y71619D01*
X16282Y71635D01*
X16230Y71650D01*
X16168Y71666D01*
X16095Y71676D01*
X16022Y71681D01*
X16017D01*
X16007D01*
X15991D01*
X15965Y71676D01*
X15903Y71671D01*
X15830Y71655D01*
X14863Y71479D01*
X14852D01*
X14832Y71468D01*
X14795Y71458D01*
X14748Y71442D01*
X14696Y71416D01*
X14639Y71380D01*
X14582Y71338D01*
X14530Y71286D01*
X14525Y71281D01*
X14509Y71260D01*
X14488Y71224D01*
X14468Y71182D01*
X14447Y71130D01*
X14426Y71068D01*
X14410Y71000D01*
X14405Y70927D01*
Y70059D01*
X14410Y70023D01*
X14421Y69981D01*
X14436Y69934D01*
X14462Y69882D01*
X14494Y69830D01*
X14535Y69778D01*
X14540Y69773D01*
X14561Y69757D01*
X14587Y69742D01*
X14629Y69721D01*
X14676Y69695D01*
X14733Y69679D01*
X14795Y69664D01*
X14863Y69659D01*
X14941D01*
X16215Y69877D01*
Y70459D01*
X15138Y70272D01*
X15118D01*
X15107D01*
X15081Y70277D01*
X15050Y70288D01*
X15014Y70314D01*
X15008Y70319D01*
X14993Y70340D01*
X14977Y70371D01*
X14972Y70413D01*
Y70751D01*
X14977Y70782D01*
X14993Y70829D01*
X15019Y70875D01*
Y70881D01*
X15029Y70886D01*
X15055Y70907D01*
X15092Y70933D01*
X15144Y70953D01*
X15851Y71078D01*
X15856D01*
X15872Y71083D01*
X15892Y71089D01*
X15918D01*
X15924D01*
X15944D01*
X15976Y71083D01*
X16017Y71073D01*
X16069Y71057D01*
X16132Y71031D01*
X16204Y71000D01*
X16282Y70959D01*
X16288D01*
X16303Y70948D01*
X16334Y70927D01*
X16360Y70917D01*
X16386Y70901D01*
X16423Y70886D01*
X16459Y70865D01*
X16506Y70839D01*
X16558Y70813D01*
X16615Y70782D01*
X16683Y70745D01*
X16756Y70704D01*
X16839Y70662D01*
X16844Y70657D01*
X16860Y70652D01*
X16886Y70636D01*
X16922Y70621D01*
X16958Y70600D01*
X17005Y70574D01*
X17104Y70522D01*
X17208Y70470D01*
X17307Y70418D01*
X17348Y70397D01*
X17385Y70376D01*
X17411Y70361D01*
X17432Y70350D01*
X17437D01*
X17442Y70345D01*
X17458Y70340D01*
X17478Y70329D01*
X17530Y70309D01*
X17598Y70288D01*
X17676Y70262D01*
X17759Y70241D01*
X17853Y70225D01*
X17946Y70220D01*
X17952D01*
X17957D01*
X17978D01*
X17983D01*
X17988D01*
X18019D01*
X18056Y70225D01*
X18102Y70231D01*
X18971Y70376D01*
X18981D01*
X19002Y70387D01*
X19038Y70397D01*
X19085Y70413D01*
X19137Y70439D01*
X19194Y70475D01*
X19246Y70517D01*
X19298Y70574D01*
X19304Y70579D01*
X19319Y70600D01*
X19340Y70636D01*
X19366Y70678D01*
X19387Y70730D01*
X19408Y70787D01*
X19423Y70855D01*
X19428Y70927D01*
Y69659D01*
D01*
Y71801D01*
X19423Y71832D01*
X19413Y71879D01*
X19397Y71926D01*
X19371Y71978D01*
X19340Y72030D01*
X19293Y72082D01*
X19288Y72087D01*
X19267Y72103D01*
X19241Y72129D01*
X19200Y72155D01*
X19153Y72175D01*
X19096Y72201D01*
X19033Y72217D01*
X18966Y72222D01*
D02*
G37*
G36*
X16562Y57504D02*
X15737D01*
X15520Y57460D01*
X15216D01*
X14869Y57373D01*
X14478Y57287D01*
X14044Y57200D01*
X13567Y57026D01*
X13090Y56853D01*
X12612Y56592D01*
X12135Y56288D01*
X11657Y55941D01*
X11180Y55507D01*
X10789Y54986D01*
X10399Y54422D01*
X10095Y53771D01*
X10052Y53728D01*
X10008Y53554D01*
X9878Y53294D01*
X9791Y52947D01*
X9661Y52513D01*
X9531Y52035D01*
X9487Y51558D01*
X9444Y51037D01*
Y50212D01*
X9487Y49822D01*
X9531Y49344D01*
X9618Y48824D01*
X9791Y48216D01*
X9965Y47565D01*
X10225Y46957D01*
X10095D01*
X10008Y47001D01*
X9791Y47088D01*
X9487Y47218D01*
X9140Y47391D01*
X8750Y47522D01*
X8402Y47652D01*
X8142Y47739D01*
X7968Y47782D01*
X7882D01*
X7665Y47695D01*
X7491Y47565D01*
X7317Y47435D01*
X7100Y47218D01*
X6840Y46957D01*
X6580Y46610D01*
X6276Y46176D01*
X5972Y45612D01*
X5668Y44961D01*
X5321Y44223D01*
X4974Y43355D01*
X4627Y42314D01*
X4279Y41142D01*
Y41098D01*
X4193Y41055D01*
X4106Y40925D01*
X4019Y40751D01*
X3715Y40361D01*
X3411Y39840D01*
X3064Y39319D01*
X2760Y38798D01*
X2587Y38321D01*
X2500Y37930D01*
Y57504D01*
D01*
Y16100D01*
X32403D01*
X15997D01*
X16258Y16143D01*
X16605Y16187D01*
X17082Y16230D01*
X17560Y16317D01*
X18124Y16447D01*
X18732Y16621D01*
X19339Y16838D01*
X19947Y17142D01*
X20598Y17489D01*
X21205Y17879D01*
X21770Y18357D01*
X22290Y18921D01*
X22811Y19572D01*
X23202Y20310D01*
Y20353D01*
X23245Y20527D01*
X23289Y20744D01*
X23375Y21048D01*
X23462Y21742D01*
X23506Y22393D01*
Y22480D01*
X23462Y22740D01*
X23419Y23131D01*
X23289Y23652D01*
X23115Y24216D01*
X22811Y24823D01*
X22421Y25474D01*
X21900Y26082D01*
X21943D01*
X22073Y26125D01*
X22290Y26212D01*
X22594Y26299D01*
X22941Y26429D01*
X23332Y26559D01*
X24200Y26907D01*
X25111Y27341D01*
X26023Y27861D01*
X26457Y28165D01*
X26804Y28469D01*
X27151Y28816D01*
X27412Y29163D01*
X27455Y29207D01*
X27542Y29337D01*
X27585Y29467D01*
X27672Y29641D01*
X27759Y29858D01*
X27846Y30118D01*
X27932Y30422D01*
X28019Y30769D01*
X28106Y31203D01*
X28193Y31681D01*
X28280Y32245D01*
X28366Y32896D01*
X28410Y33590D01*
X28497Y34371D01*
X28540Y34415D01*
X28714Y34545D01*
X28974Y34762D01*
X29321Y34979D01*
X29755Y35239D01*
X30319Y35500D01*
X30970Y35760D01*
X31752Y35977D01*
X31925Y36281D01*
X31882Y36324D01*
X31838Y36368D01*
X31665Y36455D01*
X31491Y36541D01*
X31187Y36628D01*
X30884Y36715D01*
X30450Y36802D01*
X29972D01*
Y36845D01*
X30016Y36932D01*
X30146Y37062D01*
X30319Y37236D01*
X30623Y37496D01*
X31057Y37843D01*
X31318Y38017D01*
X31621Y38234D01*
X32012Y38451D01*
X32403Y38711D01*
Y38755D01*
X32359Y38885D01*
X32272Y39015D01*
X32099Y39059D01*
X30146Y38711D01*
X30102D01*
X29972Y38798D01*
X29755Y38972D01*
X29625Y39102D01*
X29495Y39319D01*
X29321Y39536D01*
X29148Y39840D01*
X28931Y40230D01*
X28714Y40708D01*
X28497Y41229D01*
X28236Y41836D01*
X27976Y42574D01*
X27715Y43399D01*
X27629Y43442D01*
X27412Y43616D01*
X27108Y43876D01*
X26761Y44223D01*
X26327Y44657D01*
X25893Y45178D01*
X25459Y45786D01*
X25111Y46480D01*
X25025Y46523D01*
X24851Y46654D01*
X24547Y46827D01*
X24157Y47044D01*
X23766Y47261D01*
X23375Y47435D01*
X22985Y47565D01*
X22681Y47608D01*
Y47956D01*
X22724Y47999D01*
X22855Y48173D01*
X23028Y48433D01*
X23245Y48780D01*
X23462Y49214D01*
X23636Y49735D01*
X23766Y50343D01*
X23809Y51037D01*
Y52035D01*
X23766Y52209D01*
X23636Y52513D01*
X23506Y52860D01*
X23332Y53250D01*
X23115Y53728D01*
X22811Y54249D01*
X22421Y54769D01*
X21987Y55247D01*
X21509Y55768D01*
X20902Y56245D01*
X20207Y56636D01*
X19469Y56983D01*
X18601Y57287D01*
X17647Y57460D01*
X16562Y57504D01*
D02*
G37*
%LPD*%
G36*
X18955Y108336D02*
X18929Y108331D01*
X18888Y108326D01*
X17307Y108045D01*
X17302D01*
X17291Y108040D01*
X17276D01*
X17255Y108029D01*
X17198Y108009D01*
X17130Y107972D01*
X17057Y107920D01*
X16990Y107853D01*
X16958Y107811D01*
X16927Y107764D01*
X16906Y107712D01*
X16886Y107655D01*
Y107660D01*
X16875Y107676D01*
X16865Y107697D01*
X16849Y107728D01*
X16828Y107754D01*
X16797Y107785D01*
X16766Y107816D01*
X16724Y107842D01*
X16719D01*
X16709Y107853D01*
X16688Y107858D01*
X16662Y107868D01*
X16600Y107884D01*
X16522Y107894D01*
X16516D01*
X16506D01*
X16470Y107889D01*
X16459D01*
X16438D01*
X16412D01*
X16386D01*
X14405Y107520D01*
Y108341D01*
X18971D01*
X18955Y108336D01*
D02*
G37*
G36*
X18752Y107676D02*
X18789Y107665D01*
X18820Y107639D01*
X18825Y107629D01*
X18841Y107608D01*
X18856Y107572D01*
X18862Y107530D01*
Y107047D01*
X17218Y106750D01*
Y107249D01*
X17224Y107286D01*
X17239Y107327D01*
X17270Y107374D01*
Y107379D01*
X17281Y107385D01*
X17302Y107405D01*
X17343Y107426D01*
X17390Y107442D01*
X18695Y107681D01*
X18716D01*
X18721D01*
X18726D01*
X18752Y107676D01*
D02*
G37*
G36*
X16511Y107270D02*
X16542Y107255D01*
X16574Y107229D01*
X16579Y107223D01*
X16600Y107203D01*
X16615Y107171D01*
X16620Y107130D01*
Y106641D01*
X14405Y106251D01*
Y106906D01*
X16459Y107275D01*
X16475D01*
X16480D01*
X16485D01*
X16511Y107270D01*
D02*
G37*
G36*
X18758Y103578D02*
X18789Y103563D01*
X18820Y103537D01*
X18825Y103531D01*
X18841Y103511D01*
X18856Y103474D01*
X18862Y103433D01*
Y102892D01*
X14972Y102179D01*
Y102736D01*
X14977Y102767D01*
X14993Y102809D01*
X15019Y102855D01*
Y102861D01*
X15029Y102866D01*
X15050Y102887D01*
X15092Y102913D01*
X15144Y102928D01*
X18695Y103578D01*
X18700Y103583D01*
X18721D01*
X18726D01*
X18732D01*
X18758Y103578D01*
D02*
G37*
G36*
X15840Y94473D02*
X14405Y93813D01*
Y94598D01*
X15840Y94473D01*
D02*
G37*
G36*
X19428Y89543D02*
X17192Y89533D01*
X19428Y90433D01*
Y89543D01*
D02*
G37*
G36*
X15799Y86819D02*
Y87365D01*
X18019Y87479D01*
X15799Y86819D01*
D02*
G37*
G36*
X18752Y83886D02*
X18789Y83870D01*
X18820Y83844D01*
X18825Y83839D01*
X18841Y83818D01*
X18856Y83787D01*
X18862Y83745D01*
Y83246D01*
X17218Y82939D01*
Y83449D01*
X17224Y83480D01*
X17239Y83522D01*
X17265Y83569D01*
Y83574D01*
X17276Y83579D01*
X17296Y83600D01*
X17338Y83626D01*
X17385Y83641D01*
X18695Y83891D01*
X18716D01*
X18721D01*
X18726D01*
X18752Y83886D01*
D02*
G37*
G36*
X18758Y78291D02*
X18789Y78275D01*
X18820Y78249D01*
X18825Y78244D01*
X18841Y78223D01*
X18856Y78187D01*
X18862Y78145D01*
Y77604D01*
X14972Y76892D01*
Y77448D01*
X14977Y77479D01*
X14993Y77521D01*
X15019Y77568D01*
Y77573D01*
X15029Y77578D01*
X15050Y77599D01*
X15092Y77625D01*
X15144Y77641D01*
X18695Y78291D01*
X18700Y78296D01*
X18721D01*
X18726D01*
X18732D01*
X18758Y78291D01*
D02*
G37*
G36*
X18752Y73860D02*
X18789Y73845D01*
X18820Y73819D01*
X18825Y73813D01*
X18841Y73793D01*
X18856Y73761D01*
X18862Y73720D01*
Y73221D01*
X17218Y72914D01*
Y73423D01*
X17224Y73455D01*
X17239Y73496D01*
X17265Y73543D01*
Y73548D01*
X17276Y73553D01*
X17296Y73574D01*
X17338Y73600D01*
X17385Y73616D01*
X18695Y73865D01*
X18716D01*
X18721D01*
X18726D01*
X18752Y73860D01*
D02*
G37*
G36*
X16822Y54032D02*
X16996Y53988D01*
X17213Y53858D01*
X17733Y53598D01*
X18341Y53250D01*
X18905Y52730D01*
X19426Y52079D01*
X19643Y51731D01*
X19817Y51297D01*
X19903Y50863D01*
X19947Y50386D01*
Y49952D01*
X19903Y49735D01*
X19773Y49388D01*
X19513Y48997D01*
X19339Y48824D01*
X19122Y48607D01*
X18862Y48433D01*
X18515Y48303D01*
X18124Y48129D01*
X17690Y48042D01*
X17169Y47999D01*
X16562Y47956D01*
X13480Y47305D01*
X13437Y47348D01*
X13263Y47435D01*
X13090Y47565D01*
X12829Y47739D01*
X12612Y47999D01*
X12395Y48346D01*
X12222Y48737D01*
X12178Y49214D01*
Y49258D01*
X12222Y49431D01*
X12265Y49648D01*
X12352Y49995D01*
X12482Y50343D01*
X12612Y50733D01*
X12829Y51211D01*
X13046Y51645D01*
X13307Y52079D01*
X13610Y52556D01*
X14001Y52947D01*
X14435Y53337D01*
X14869Y53641D01*
X15433Y53858D01*
X16041Y54032D01*
X16692Y54075D01*
X16735D01*
X16822Y54032D01*
D02*
G37*
G36*
X16692Y41966D02*
X15563Y42097D01*
X15520D01*
X15346D01*
X15086Y42053D01*
X14782Y41966D01*
X14478Y41836D01*
X14131Y41619D01*
X13784Y41359D01*
X13480Y41012D01*
Y40361D01*
X13524Y40317D01*
X13610Y40187D01*
X13741Y40057D01*
X13958Y39883D01*
X14218Y39666D01*
X14565Y39536D01*
X14956Y39406D01*
X15433Y39362D01*
X15563D01*
X15607D01*
X15694D01*
X15824D01*
X15997Y39406D01*
X16431Y39493D01*
X16909Y39666D01*
Y39536D01*
X16692Y38711D01*
X15737D01*
X15694D01*
X15607D01*
X15433D01*
X15260Y38755D01*
X14782Y38798D01*
X14218Y38972D01*
X13610Y39189D01*
X13133Y39536D01*
X12959Y39753D01*
X12786Y40013D01*
X12699Y40317D01*
X12656Y40664D01*
Y40708D01*
X12699Y40751D01*
X12829Y41012D01*
X13003Y41315D01*
X13307Y41706D01*
X13741Y42097D01*
X14261Y42444D01*
X14912Y42661D01*
X15303Y42704D01*
X15737Y42748D01*
X16692D01*
Y41966D01*
D02*
G37*
G36*
X15824Y44050D02*
X16084Y43919D01*
X16301Y43746D01*
X16345Y43659D01*
X16388Y43572D01*
X16345Y43529D01*
X16258Y43485D01*
X16084Y43355D01*
X15780Y43225D01*
X15563Y43182D01*
X15303Y43095D01*
X14999Y42965D01*
X14695Y42878D01*
X14261Y42748D01*
X13827Y42617D01*
X12482Y41489D01*
Y41749D01*
X12525Y42053D01*
X12656Y42444D01*
X12873Y42878D01*
X13046Y43095D01*
X13263Y43312D01*
X13524Y43529D01*
X13871Y43702D01*
X14218Y43876D01*
X14652Y44006D01*
X15173Y44050D01*
X15737Y44093D01*
X15780D01*
X15824Y44050D01*
D02*
G37*
G36*
X16084Y40621D02*
X16171Y40534D01*
X16214Y40361D01*
Y40144D01*
X16171Y40013D01*
X16084Y39883D01*
X15911Y39840D01*
X15563D01*
X15520D01*
X15433Y39927D01*
X15303Y40013D01*
X15260Y40187D01*
Y40664D01*
X15911D01*
X15954D01*
X16084Y40621D01*
D02*
G37*
G36*
X17299Y42704D02*
X17473Y42661D01*
X17907Y42531D01*
X18428Y42357D01*
X18905Y42097D01*
X19339Y41706D01*
X19513Y41489D01*
X19643Y41272D01*
X19730Y40968D01*
X19773Y40664D01*
Y40621D01*
X19730Y40491D01*
X19643Y40274D01*
X19426Y39970D01*
X19122Y39666D01*
X18905Y39493D01*
X18601Y39362D01*
X18298Y39189D01*
X17950Y39015D01*
X17516Y38885D01*
X17039Y38711D01*
Y38928D01*
X17082Y39059D01*
X17126Y39189D01*
X17169Y39406D01*
X17386Y39883D01*
X17690Y40361D01*
Y41142D01*
X17647Y41185D01*
X17603Y41272D01*
X17386Y41532D01*
X17126Y41793D01*
X17082Y41923D01*
X17039Y41966D01*
Y42748D01*
X17082D01*
X17169D01*
X17299Y42704D01*
D02*
G37*
G36*
X13350Y39015D02*
X13524Y38928D01*
X13827Y38798D01*
X14175Y38668D01*
X14609Y38494D01*
X15086Y38364D01*
X15650Y38277D01*
X16214Y38234D01*
Y38191D01*
X16171Y38147D01*
X16084Y38060D01*
X15997Y38017D01*
X15824Y37930D01*
X15563Y37843D01*
X15260Y37757D01*
X15216D01*
X15043Y37800D01*
X14826Y37843D01*
X14522Y37930D01*
X14218Y38060D01*
X13871Y38321D01*
X13524Y38625D01*
X13176Y39059D01*
X13307D01*
X13350Y39015D01*
D02*
G37*
G36*
X15911Y35804D02*
X15867D01*
X15694D01*
X15433D01*
X15173Y35760D01*
X14522Y35673D01*
X14218Y35587D01*
X13958Y35500D01*
X13827D01*
Y35630D01*
X14912Y35977D01*
X15911D01*
Y35804D01*
D02*
G37*
G36*
X16518Y35456D02*
X16562Y35370D01*
X16648Y35283D01*
X16735Y35109D01*
X16822Y34849D01*
X16909Y34545D01*
X16692D01*
X15433Y34849D01*
X15390D01*
X15346D01*
X15086D01*
X14782Y34762D01*
X14392Y34675D01*
X14001Y34502D01*
X13654Y34241D01*
X13393Y33851D01*
X13350Y33634D01*
X13307Y33373D01*
Y33330D01*
X13393Y33200D01*
X13480Y32983D01*
X13654Y32766D01*
X13958Y32505D01*
X14305Y32332D01*
X14826Y32158D01*
X15433Y32115D01*
X15911D01*
X16692Y32245D01*
Y31290D01*
X16562D01*
X16518D01*
X16431D01*
X16258D01*
X16084Y31333D01*
X15563Y31377D01*
X14912Y31550D01*
X14218Y31767D01*
X13567Y32115D01*
X12959Y32592D01*
X12699Y32852D01*
X12482Y33200D01*
Y33460D01*
X12525Y33677D01*
X12656Y33981D01*
X12916Y34328D01*
X13090Y34545D01*
X13307Y34719D01*
X13610Y34892D01*
X13914Y35066D01*
X14305Y35196D01*
X14782Y35326D01*
X15303Y35413D01*
X15911Y35500D01*
X16388D01*
X16431D01*
X16518Y35456D01*
D02*
G37*
G36*
X16084Y33677D02*
X15997Y33547D01*
X15911Y33417D01*
X15737Y33373D01*
X15433D01*
X15390D01*
X15260Y33460D01*
X15129Y33547D01*
X15086Y33720D01*
Y34198D01*
X16084D01*
Y33677D01*
D02*
G37*
G36*
X17299Y35283D02*
X17603Y35196D01*
X17950Y35022D01*
X18428Y34805D01*
X18862Y34502D01*
X19209Y34154D01*
X19513Y33720D01*
X19556Y33460D01*
X19600Y33200D01*
Y33156D01*
X19556Y32983D01*
X19469Y32766D01*
X19296Y32505D01*
X18992Y32201D01*
X18775Y32071D01*
X18515Y31941D01*
X18211Y31767D01*
X17907Y31681D01*
X17473Y31550D01*
X17039Y31464D01*
Y32245D01*
X17082Y32288D01*
X17126Y32375D01*
X17256Y32505D01*
X17386Y32679D01*
X17603Y33026D01*
X17647Y33200D01*
X17690Y33373D01*
X17647Y33417D01*
X17603Y33547D01*
X17473Y33764D01*
X17386Y34024D01*
X17126Y34632D01*
X17082Y34979D01*
X17039Y35326D01*
X17213D01*
X17256D01*
X17299Y35283D01*
D02*
G37*
G36*
X12525Y32375D02*
X12699Y32245D01*
X13003Y32028D01*
X13437Y31767D01*
X14001Y31507D01*
X14739Y31203D01*
X15563Y30899D01*
X16562Y30639D01*
Y30596D01*
X16518Y30509D01*
X16388Y30248D01*
X16171Y29988D01*
X16041Y29858D01*
X15911Y29814D01*
X15737D01*
X15694D01*
X15607D01*
X15433D01*
X15216Y29858D01*
X14695Y29945D01*
X14131Y30118D01*
X13524Y30422D01*
X13003Y30856D01*
X12786Y31116D01*
X12612Y31464D01*
X12525Y31811D01*
X12482Y32245D01*
Y32418D01*
X12525Y32375D01*
D02*
G37*
G36*
X8880Y46740D02*
X9140Y46567D01*
X9270Y46480D01*
X9444Y46306D01*
X9618Y46089D01*
X9791Y45829D01*
X9965Y45525D01*
X10138Y45135D01*
X10312Y44701D01*
X10486Y44180D01*
X10616Y43616D01*
X10746Y42921D01*
X11050Y42270D01*
X12482Y43268D01*
Y43051D01*
X12395Y42921D01*
X12352Y42748D01*
X12265Y42531D01*
X12091Y41966D01*
X12048Y41663D01*
X12005Y41315D01*
Y41055D01*
X12048Y40838D01*
X12135Y40317D01*
X12352Y39710D01*
X12699Y39059D01*
X12916Y38755D01*
X13176Y38408D01*
X13480Y38147D01*
X13871Y37843D01*
X14305Y37626D01*
X14782Y37409D01*
Y36628D01*
X14739D01*
X14695Y36585D01*
X14435Y36411D01*
X14088Y36194D01*
X13654Y35890D01*
X13220Y35543D01*
X12873Y35153D01*
X12612Y34762D01*
X12525Y34545D01*
X12482Y34371D01*
X12439Y34328D01*
X12352Y34285D01*
X12308Y34111D01*
X12222Y33894D01*
X12135Y33547D01*
X12048Y33069D01*
Y32766D01*
X12005Y32418D01*
Y32288D01*
X12048Y32158D01*
Y31984D01*
X12178Y31507D01*
X12439Y30986D01*
X12612Y30682D01*
X12829Y30422D01*
X13133Y30205D01*
X13437Y29988D01*
X13827Y29771D01*
X14305Y29641D01*
X14826Y29554D01*
X15433Y29511D01*
X16084D01*
X16128Y29554D01*
X16214Y29684D01*
X16388Y29858D01*
X16605Y30075D01*
X16779Y30292D01*
X16996Y30465D01*
X17169Y30596D01*
X17343Y30639D01*
X17386D01*
X17473D01*
X17603D01*
X17777Y30682D01*
X18254Y30769D01*
X18818Y30899D01*
X19383Y31160D01*
X19947Y31507D01*
X20424Y32028D01*
X20641Y32375D01*
X20771Y32722D01*
Y33156D01*
X20685Y33373D01*
X20554Y33720D01*
X20424Y33937D01*
X20207Y34154D01*
X19990Y34371D01*
X19686Y34588D01*
X19339Y34849D01*
X18905Y35066D01*
X18428Y35326D01*
X17820Y35543D01*
X17169Y35760D01*
X16388Y35977D01*
Y36021D01*
X16345Y36064D01*
X16258Y36151D01*
X16171Y36238D01*
X15997Y36324D01*
X15737Y36368D01*
X15433Y36455D01*
Y37409D01*
X15477D01*
X15563D01*
X15694Y37453D01*
X15867Y37540D01*
X16128Y37670D01*
X16431Y37843D01*
X16779Y38060D01*
X17213Y38408D01*
X17256D01*
X17386Y38451D01*
X17560Y38494D01*
X17777Y38538D01*
X18081Y38625D01*
X18384Y38755D01*
X19079Y39015D01*
X19773Y39362D01*
X20077Y39623D01*
X20381Y39840D01*
X20598Y40144D01*
X20771Y40447D01*
X20902Y40795D01*
X20945Y41142D01*
Y41229D01*
X20902Y41446D01*
X20728Y41749D01*
X20598Y41966D01*
X20424Y42140D01*
X20207Y42357D01*
X19903Y42574D01*
X19556Y42748D01*
X19166Y42965D01*
X18645Y43138D01*
X18081Y43312D01*
X17430Y43442D01*
X16692Y43572D01*
Y43702D01*
X16648Y43833D01*
X16518Y44006D01*
X16388Y44136D01*
X16171Y44267D01*
X15867Y44353D01*
X15433Y44397D01*
Y44527D01*
X18167Y44874D01*
X18211D01*
X18384D01*
X18601D01*
X18905Y44831D01*
X19296Y44787D01*
X19730Y44701D01*
X20641Y44440D01*
X21162Y44267D01*
X21639Y44050D01*
X22117Y43789D01*
X22594Y43442D01*
X23028Y43051D01*
X23419Y42617D01*
X23723Y42097D01*
X23983Y41489D01*
Y40925D01*
X23940Y40795D01*
Y40534D01*
X23853Y40144D01*
X23809Y39840D01*
X23766Y39536D01*
X23723Y39189D01*
X23679Y38755D01*
X23592Y38277D01*
X23506Y37757D01*
Y37019D01*
X23549Y36541D01*
X23592Y35977D01*
X23723Y35239D01*
X23853Y34415D01*
X24070Y33503D01*
X24330Y32549D01*
Y32505D01*
X24287Y32375D01*
X24200Y32201D01*
X24070Y31984D01*
X23940Y31681D01*
X23723Y31377D01*
X23419Y31030D01*
X23115Y30726D01*
X22681Y30379D01*
X22204Y30031D01*
X21639Y29728D01*
X20988Y29424D01*
X20251Y29207D01*
X19383Y29033D01*
X18428Y28903D01*
X17343Y28860D01*
X17299D01*
X17169D01*
X16996D01*
X16735Y28903D01*
X16431D01*
X16084Y28990D01*
X15303Y29120D01*
X14435Y29380D01*
X13480Y29728D01*
X12612Y30248D01*
X12222Y30596D01*
X11831Y30943D01*
X11788Y30986D01*
X11701Y31030D01*
X11527Y31073D01*
X11397Y31116D01*
X11354D01*
X11267Y31073D01*
X11093Y30943D01*
X10876Y30726D01*
X10746Y30552D01*
X10616Y30335D01*
X10486Y30075D01*
X10312Y29728D01*
X10138Y29380D01*
X9965Y28946D01*
X9791Y28426D01*
X9574Y27861D01*
X9531Y27818D01*
X9444Y27775D01*
X9314Y27688D01*
X9140Y27558D01*
X8880Y27427D01*
X8619Y27341D01*
X8316Y27297D01*
X7968Y27254D01*
X7925D01*
X7882D01*
X7751Y27297D01*
X7621Y27384D01*
X7448Y27471D01*
X7231Y27644D01*
X6970Y27905D01*
X6710Y28209D01*
X6449Y28643D01*
X6146Y29120D01*
X5798Y29771D01*
X5495Y30509D01*
X5147Y31420D01*
X4800Y32418D01*
X4453Y33634D01*
X4279Y34285D01*
X4106Y34979D01*
Y35022D01*
X4062Y35066D01*
X3932Y35283D01*
X3759Y35673D01*
X3542Y36107D01*
X3325Y36585D01*
X3151Y37106D01*
X3021Y37626D01*
X2977Y38060D01*
Y38104D01*
X3021Y38191D01*
X3064Y38364D01*
X3238Y38625D01*
X3455Y39059D01*
X3628Y39319D01*
X3802Y39623D01*
X4019Y39970D01*
X4279Y40361D01*
X4583Y40795D01*
X4930Y41315D01*
Y41359D01*
X5017Y41532D01*
X5061Y41836D01*
X5191Y42183D01*
X5321Y42574D01*
X5495Y43051D01*
X5885Y44050D01*
X6363Y45048D01*
X6623Y45525D01*
X6883Y45916D01*
X7187Y46263D01*
X7491Y46567D01*
X7795Y46740D01*
X8142Y46784D01*
X8619D01*
X8706D01*
X8880Y46740D01*
D02*
G37*
G36*
X13393Y26386D02*
X13654Y26256D01*
X14088Y26125D01*
X14652Y25952D01*
X15346Y25735D01*
X16171Y25605D01*
X17126Y25474D01*
X18167Y25431D01*
X18515D01*
X18601Y25388D01*
X18688Y25344D01*
X18818Y25214D01*
X18949Y24997D01*
X19122Y24693D01*
X19296Y24259D01*
X19469Y23695D01*
Y22653D01*
X19426Y22567D01*
X19339Y22393D01*
X19252Y22176D01*
X19035Y21699D01*
X18688Y21091D01*
X18211Y20483D01*
X17647Y20006D01*
X17343Y19789D01*
X16996Y19615D01*
X16605Y19529D01*
X16214Y19485D01*
X15737D01*
X15694D01*
X15563Y19529D01*
X15390Y19615D01*
X15129Y19746D01*
X14826Y19876D01*
X14522Y20049D01*
X13784Y20483D01*
X13090Y21091D01*
X12742Y21438D01*
X12439Y21829D01*
X12178Y22263D01*
X12005Y22740D01*
X11874Y23261D01*
X11831Y23825D01*
Y24693D01*
X11874Y24823D01*
X11918Y25040D01*
X12005Y25301D01*
X12178Y25561D01*
X12439Y25865D01*
X12829Y26169D01*
X13307Y26429D01*
X13350D01*
X13393Y26386D01*
D02*
G37*
G36*
X2543Y37453D02*
X2587Y37323D01*
X2630Y37106D01*
X2717Y36845D01*
X2804Y36541D01*
X3021Y35804D01*
X3325Y34936D01*
X3628Y33981D01*
X3976Y32983D01*
X4366Y31941D01*
X4800Y30856D01*
X5234Y29858D01*
X5712Y28903D01*
X6189Y28035D01*
X6666Y27297D01*
X6927Y26993D01*
X7187Y26733D01*
X7404Y26516D01*
X7665Y26386D01*
X7925Y26299D01*
X8142Y26256D01*
X8185D01*
X8229D01*
X8359Y26299D01*
X8533Y26342D01*
X8706Y26429D01*
X8967Y26516D01*
X9270Y26690D01*
X9574Y26907D01*
X9921D01*
Y26776D01*
X9878Y26733D01*
X9835Y26559D01*
X9704Y26299D01*
X9574Y25908D01*
X9401Y25388D01*
X9227Y24693D01*
X9097Y23869D01*
X8967Y22870D01*
Y22784D01*
X9010Y22567D01*
X9053Y22263D01*
X9184Y21829D01*
X9314Y21308D01*
X9487Y20744D01*
X9748Y20136D01*
X10052Y19485D01*
X10442Y18834D01*
X10876Y18227D01*
X11397Y17662D01*
X12005Y17142D01*
X12699Y16708D01*
X13524Y16404D01*
X14435Y16187D01*
X15433Y16100D01*
X2500D01*
Y37540D01*
X2543Y37453D01*
D02*
G37*
%LPC*%
G36*
X11527Y39362D02*
X11484D01*
X11397Y39319D01*
X11223Y39276D01*
X11050Y39189D01*
X10876Y39059D01*
X10703Y38885D01*
X10616Y38668D01*
X10572Y38408D01*
X10876Y38234D01*
X10920D01*
X11050Y38277D01*
X11180Y38451D01*
X11223Y38538D01*
Y38711D01*
X11527D01*
X11571D01*
X11614Y38668D01*
X11874Y38494D01*
X12091Y38191D01*
X12135Y37974D01*
X12178Y37757D01*
X11701Y38060D01*
X11397D01*
X11354D01*
X11223Y38017D01*
X11093Y37930D01*
X11050Y37757D01*
Y37279D01*
X11831Y37106D01*
Y37149D01*
X11918Y37236D01*
X12048Y37409D01*
X12178Y37496D01*
X12352Y37583D01*
Y37019D01*
X12308Y36715D01*
X12222Y36368D01*
X12091Y35977D01*
X11874Y35630D01*
X11614Y35283D01*
X11223Y34979D01*
X11050D01*
Y35066D01*
X11006Y35239D01*
X10920Y35413D01*
X10833Y35500D01*
X10746D01*
X10572Y35153D01*
Y34805D01*
X10616Y34719D01*
X10789Y34545D01*
X10876Y34458D01*
X11050Y34371D01*
X11397D01*
X11484D01*
X11657Y34415D01*
X11918Y34545D01*
X12222Y34719D01*
X12482Y35066D01*
X12612Y35326D01*
X12742Y35587D01*
X12873Y35934D01*
X12916Y36324D01*
X13003Y36758D01*
Y37626D01*
X12916Y37930D01*
X12829Y38321D01*
X12656Y38711D01*
X12395Y39059D01*
X12005Y39276D01*
X11788Y39319D01*
X11527Y39362D01*
D02*
G37*
G36*
X9748Y37409D02*
X9574D01*
X9531D01*
X9444Y37366D01*
X9270D01*
X9097Y37323D01*
X8923Y37236D01*
X8750Y37192D01*
X8663Y37062D01*
X8619Y36975D01*
Y36932D01*
X8663Y36802D01*
X8750Y36672D01*
X8967Y36628D01*
X9791D01*
X9835D01*
X9965Y36672D01*
X10052Y36802D01*
X10095Y36975D01*
Y37149D01*
X10052Y37279D01*
X9878Y37366D01*
X9748Y37409D01*
D02*
G37*
G36*
X11527Y36628D02*
X11050D01*
X11006D01*
X10920Y36585D01*
X10789Y36498D01*
X10746Y36281D01*
Y36238D01*
X10789Y36151D01*
X10963Y35977D01*
X11050Y35890D01*
X11223Y35804D01*
X12005Y35977D01*
Y36194D01*
X11961Y36281D01*
X11788Y36455D01*
X11701Y36541D01*
X11527Y36628D01*
D02*
G37*
G36*
X8967Y44223D02*
X8793D01*
X8750D01*
X8619Y44180D01*
X8489Y44093D01*
X8446Y43919D01*
X8619Y43572D01*
X8576Y43529D01*
X8402Y43355D01*
X8185Y43138D01*
X7882Y42791D01*
X7491Y42444D01*
X7100Y42010D01*
X6189Y41055D01*
X5278Y40100D01*
X4887Y39666D01*
X4540Y39232D01*
X4193Y38885D01*
X3976Y38581D01*
X3802Y38364D01*
X3759Y38234D01*
X3628Y37409D01*
Y37323D01*
X3672Y37192D01*
Y37062D01*
X3802Y36628D01*
X4062Y36021D01*
X4236Y35673D01*
X4496Y35239D01*
X4757Y34805D01*
X5104Y34371D01*
X5495Y33851D01*
X5972Y33286D01*
X6536Y32722D01*
X7144Y32115D01*
X7187Y32071D01*
X7274Y31984D01*
X7404Y31811D01*
X7534Y31637D01*
X7882Y31160D01*
X8012Y30899D01*
X8142Y30639D01*
X8099Y30596D01*
X8055Y30465D01*
X8012Y30292D01*
X7968Y30162D01*
X8012D01*
X8055D01*
X8099Y30075D01*
X8142Y29988D01*
X8185D01*
X8272Y30031D01*
X8576Y30205D01*
X8836Y30509D01*
X8923Y30682D01*
X8967Y30943D01*
Y30986D01*
X8923Y31073D01*
X8836Y31203D01*
X8750Y31420D01*
X8619Y31637D01*
X8489Y31941D01*
X8359Y32288D01*
X8229Y32679D01*
X7968Y33590D01*
X7708Y34632D01*
X7534Y35804D01*
X7491Y37106D01*
Y37496D01*
X7534Y37757D01*
Y38104D01*
X7578Y38494D01*
X7665Y38972D01*
X7751Y39449D01*
X7968Y40447D01*
X8316Y41532D01*
X8793Y42617D01*
X9097Y43095D01*
X9444Y43572D01*
Y43616D01*
X9401Y43659D01*
X9270Y43919D01*
X9140Y44136D01*
X9053Y44180D01*
X8967Y44223D01*
D02*
G37*
%LPD*%
G36*
X7361Y40925D02*
X7317Y40751D01*
X7274Y40447D01*
X7231Y40144D01*
X7144Y39796D01*
X7057Y39493D01*
X6970Y39319D01*
X6840Y39232D01*
X7014Y38885D01*
Y37366D01*
X6927Y37323D01*
X6840Y37279D01*
X7014Y36975D01*
Y35977D01*
X7057Y35717D01*
Y35370D01*
X7144Y34936D01*
X7231Y34371D01*
X7317Y33677D01*
X7491Y32896D01*
X7448Y32939D01*
X7274Y33026D01*
X7057Y33200D01*
X6797Y33417D01*
X6493Y33677D01*
X6276Y34024D01*
X6102Y34415D01*
X6059Y34849D01*
X6189D01*
Y34892D01*
X6146Y35066D01*
X6102Y35326D01*
X6059Y35543D01*
Y35804D01*
X5712D01*
Y34979D01*
X5364D01*
X5321D01*
X5278Y35022D01*
X5191Y35066D01*
X5061Y35196D01*
X4930Y35413D01*
X4800Y35760D01*
X4670Y36194D01*
X4583Y36802D01*
Y37062D01*
X4627Y37106D01*
X4713D01*
X4583Y37409D01*
Y37713D01*
X4627Y37887D01*
X4670Y38104D01*
X4757Y38364D01*
X4930Y38668D01*
X5104Y38928D01*
X5364Y39232D01*
X5712D01*
Y38408D01*
X6059D01*
Y38668D01*
X6102Y38798D01*
X6146Y39232D01*
X6276Y39710D01*
X6449Y40187D01*
X6666Y40621D01*
X6797Y40751D01*
X6970Y40881D01*
X7144Y40968D01*
X7361Y41012D01*
Y40925D01*
D02*
G37*
G36*
X5712Y34805D02*
X5842Y34719D01*
X5885Y34545D01*
Y34371D01*
X5842D01*
X5712Y34415D01*
X5581Y34502D01*
X5538Y34675D01*
Y34849D01*
X5581D01*
X5712Y34805D01*
D02*
G37*
%LPC*%
G36*
X5885Y38060D02*
X5538D01*
Y37670D01*
X5451Y37409D01*
X5408Y37323D01*
X5364Y37279D01*
X5538Y36975D01*
Y36151D01*
X5885D01*
Y37019D01*
X5929Y37062D01*
X5972Y37106D01*
X6059D01*
X6015Y37149D01*
X5972Y37323D01*
X5929Y37583D01*
X5885Y37800D01*
Y38060D01*
D02*
G37*
G36*
X31809Y100731D02*
X31797D01*
X31784D01*
X31736D01*
X23438Y99236D01*
X23304Y99187D01*
X23207Y99127D01*
X23134Y99042D01*
X23085Y98957D01*
X23061Y98872D01*
X23049Y98799D01*
X23036Y98762D01*
Y97985D01*
X23049Y97887D01*
X23085Y97815D01*
X23122Y97754D01*
X23134Y97742D01*
X23219Y97681D01*
X23292Y97657D01*
X23352Y97644D01*
X23377D01*
X23425D01*
X31736Y99127D01*
X31845Y99175D01*
X31930Y99236D01*
X31979Y99285D01*
X32003Y99309D01*
X32076Y99418D01*
X32113Y99528D01*
X32125Y99600D01*
Y100378D01*
X32113Y100475D01*
X32076Y100560D01*
X32040Y100609D01*
X32028Y100621D01*
X31955Y100682D01*
X31870Y100718D01*
X31809Y100731D01*
D02*
G37*
G36*
Y85555D02*
X31797D01*
X31784D01*
X31736D01*
X28686Y84996D01*
X28577Y84960D01*
X28480Y84911D01*
X28431Y84863D01*
X28407Y84851D01*
Y84838D01*
X28334Y84729D01*
X28297Y84632D01*
X28285Y84547D01*
Y83380D01*
X32125Y84073D01*
Y85203D01*
X32113Y85300D01*
X32076Y85385D01*
X32040Y85434D01*
X32028Y85458D01*
X31955Y85519D01*
X31870Y85543D01*
X31809Y85555D01*
D02*
G37*
G36*
Y76102D02*
X31797D01*
X31784D01*
X31736D01*
X28674Y75519D01*
X28565Y75483D01*
X28468Y75422D01*
X28419Y75374D01*
X28395Y75361D01*
Y75349D01*
X28334Y75240D01*
X28297Y75143D01*
X28285Y75070D01*
Y73879D01*
X32125Y74596D01*
Y75762D01*
X32113Y75859D01*
X32076Y75932D01*
X32040Y75981D01*
X32028Y75993D01*
X31955Y76054D01*
X31870Y76090D01*
X31809Y76102D01*
D02*
G37*
G36*
X7925Y77765D02*
X7892D01*
X7864D01*
X7842D01*
X7825D01*
X7814D01*
X7808D01*
X7581Y77760D01*
X7376Y77754D01*
X7187Y77738D01*
X7015Y77721D01*
X6859Y77699D01*
X6726Y77671D01*
X6604Y77643D01*
X6499Y77616D01*
X6410Y77588D01*
X6332Y77560D01*
X6266Y77538D01*
X6216Y77510D01*
X6177Y77494D01*
X6155Y77477D01*
X6138Y77471D01*
X6132Y77466D01*
X6060Y77410D01*
X5994Y77349D01*
X5938Y77288D01*
X5894Y77227D01*
X5849Y77166D01*
X5816Y77105D01*
X5788Y77049D01*
X5766Y76994D01*
X5738Y76894D01*
X5727Y76850D01*
X5722Y76811D01*
Y76783D01*
X5716Y76755D01*
Y76739D01*
X5722Y76661D01*
X5733Y76583D01*
X5755Y76511D01*
X5783Y76445D01*
X5844Y76317D01*
X5922Y76212D01*
X5999Y76128D01*
X6033Y76095D01*
X6060Y76067D01*
X6088Y76039D01*
X6110Y76023D01*
X6121Y76017D01*
X6127Y76012D01*
X6216Y75962D01*
X6321Y75917D01*
X6438Y75873D01*
X6565Y75840D01*
X6704Y75812D01*
X6843Y75790D01*
X7126Y75756D01*
X7259Y75740D01*
X7387Y75734D01*
X7503Y75729D01*
X7603Y75723D01*
X7686Y75718D01*
X7725D01*
X7753D01*
X7775D01*
X7792D01*
X7803D01*
X7808D01*
X8036Y75723D01*
X8241Y75734D01*
X8436Y75745D01*
X8608Y75767D01*
X8763Y75790D01*
X8907Y75817D01*
X9030Y75851D01*
X9140Y75878D01*
X9240Y75906D01*
X9318Y75940D01*
X9385Y75967D01*
X9440Y75989D01*
X9485Y76012D01*
X9512Y76028D01*
X9529Y76034D01*
X9535Y76039D01*
X9601Y76089D01*
X9657Y76145D01*
X9707Y76200D01*
X9745Y76256D01*
X9784Y76317D01*
X9812Y76372D01*
X9856Y76483D01*
X9884Y76583D01*
X9890Y76628D01*
X9895Y76661D01*
X9901Y76694D01*
Y76733D01*
X9895Y76816D01*
X9884Y76889D01*
X9862Y76966D01*
X9834Y77033D01*
X9768Y77161D01*
X9696Y77266D01*
X9657Y77310D01*
X9618Y77349D01*
X9579Y77382D01*
X9551Y77416D01*
X9523Y77438D01*
X9501Y77455D01*
X9490Y77460D01*
X9485Y77466D01*
X9396Y77521D01*
X9296Y77566D01*
X9174Y77605D01*
X9046Y77638D01*
X8913Y77666D01*
X8774Y77693D01*
X8491Y77727D01*
X8358Y77743D01*
X8230Y77749D01*
X8114Y77754D01*
X8014Y77760D01*
X7925Y77765D01*
D02*
G37*
G36*
X21821Y230643D02*
X19594D01*
X20605D01*
X20583Y230640D01*
X20549Y230637D01*
X20511Y230634D01*
X20464Y230629D01*
X20411Y230620D01*
X20356Y230607D01*
X20297Y230593D01*
X20236Y230573D01*
X20173Y230551D01*
X20109Y230523D01*
X20045Y230493D01*
X19982Y230454D01*
X19923Y230413D01*
X19865Y230363D01*
X19862Y230360D01*
X19857Y230354D01*
X19849Y230346D01*
X19838Y230332D01*
X19821Y230316D01*
X19804Y230296D01*
X19788Y230271D01*
X19766Y230244D01*
X19746Y230210D01*
X19724Y230177D01*
X19702Y230138D01*
X19680Y230097D01*
X19660Y230050D01*
X19638Y230003D01*
X19619Y229950D01*
X19602Y229895D01*
X20112Y229773D01*
Y229776D01*
X20115Y229781D01*
X20117Y229792D01*
X20120Y229806D01*
X20126Y229823D01*
X20134Y229842D01*
X20153Y229886D01*
X20178Y229936D01*
X20211Y229989D01*
X20253Y230039D01*
X20303Y230086D01*
X20306Y230089D01*
X20309Y230091D01*
X20317Y230097D01*
X20328Y230105D01*
X20342Y230114D01*
X20358Y230122D01*
X20400Y230144D01*
X20452Y230166D01*
X20511Y230183D01*
X20577Y230197D01*
X20652Y230202D01*
X20680D01*
X20699Y230199D01*
X20724Y230197D01*
X20752Y230191D01*
X20782Y230186D01*
X20815Y230177D01*
X20851Y230166D01*
X20890Y230152D01*
X20929Y230136D01*
X20968Y230116D01*
X21007Y230091D01*
X21043Y230064D01*
X21081Y230033D01*
X21114Y229997D01*
X21117Y229994D01*
X21123Y229989D01*
X21131Y229975D01*
X21142Y229958D01*
X21156Y229936D01*
X21170Y229908D01*
X21186Y229875D01*
X21200Y229837D01*
X21217Y229795D01*
X21234Y229745D01*
X21248Y229693D01*
X21261Y229631D01*
X21272Y229565D01*
X21281Y229496D01*
X21286Y229418D01*
X21289Y229335D01*
Y229330D01*
Y229313D01*
Y229288D01*
X21286Y229258D01*
X21283Y229216D01*
X21281Y229172D01*
X21275Y229122D01*
X21267Y229066D01*
X21248Y228953D01*
X21234Y228898D01*
X21217Y228839D01*
X21198Y228784D01*
X21173Y228734D01*
X21148Y228687D01*
X21117Y228645D01*
X21114Y228643D01*
X21109Y228637D01*
X21098Y228626D01*
X21087Y228612D01*
X21067Y228598D01*
X21048Y228582D01*
X21023Y228562D01*
X20995Y228543D01*
X20965Y228523D01*
X20929Y228504D01*
X20893Y228487D01*
X20851Y228474D01*
X20810Y228460D01*
X20763Y228449D01*
X20713Y228443D01*
X20663Y228440D01*
X20644D01*
X20630Y228443D01*
X20610D01*
X20591Y228449D01*
X20541Y228457D01*
X20486Y228474D01*
X20428Y228496D01*
X20369Y228529D01*
X20339Y228549D01*
X20311Y228571D01*
X20309Y228573D01*
X20306Y228576D01*
X20297Y228585D01*
X20286Y228596D01*
X20275Y228609D01*
X20261Y228626D01*
X20245Y228648D01*
X20228Y228670D01*
X20211Y228698D01*
X20192Y228729D01*
X20176Y228762D01*
X20156Y228801D01*
X20140Y228839D01*
X20123Y228884D01*
X20109Y228934D01*
X20095Y228983D01*
X19594Y228828D01*
Y228823D01*
X19599Y228809D01*
X19605Y228789D01*
X19616Y228759D01*
X19630Y228726D01*
X19644Y228684D01*
X19663Y228640D01*
X19685Y228593D01*
X19710Y228543D01*
X19738Y228490D01*
X19771Y228438D01*
X19804Y228388D01*
X19843Y228335D01*
X19885Y228288D01*
X19929Y228244D01*
X19979Y228202D01*
X19982Y228199D01*
X19990Y228194D01*
X20007Y228183D01*
X20026Y228172D01*
X20054Y228155D01*
X20084Y228138D01*
X20120Y228119D01*
X20164Y228102D01*
X20209Y228083D01*
X20261Y228064D01*
X20317Y228047D01*
X20378Y228030D01*
X20441Y228019D01*
X20511Y228008D01*
X20583Y228003D01*
X20658Y228000D01*
X20680D01*
X20707Y228003D01*
X20743Y228006D01*
X20785Y228011D01*
X20835Y228019D01*
X20893Y228028D01*
X20954Y228044D01*
X21018Y228061D01*
X21087Y228086D01*
X21156Y228114D01*
X21225Y228147D01*
X21295Y228186D01*
X21364Y228233D01*
X21430Y228285D01*
X21494Y228346D01*
X21497Y228349D01*
X21508Y228363D01*
X21524Y228382D01*
X21544Y228410D01*
X21569Y228446D01*
X21597Y228487D01*
X21627Y228537D01*
X21657Y228596D01*
X21688Y228659D01*
X21718Y228731D01*
X21746Y228809D01*
X21771Y228895D01*
X21790Y228986D01*
X21807Y229083D01*
X21818Y229186D01*
X21821Y229296D01*
Y229341D01*
X21818Y229357D01*
X21815Y229402D01*
X21810Y229454D01*
X21804Y229518D01*
X21793Y229587D01*
X21779Y229659D01*
X21763Y229740D01*
X21741Y229820D01*
X21716Y229903D01*
X21682Y229986D01*
X21646Y230066D01*
X21602Y230144D01*
X21552Y230219D01*
X21494Y230288D01*
X21491Y230291D01*
X21477Y230305D01*
X21461Y230321D01*
X21433Y230343D01*
X21400Y230371D01*
X21361Y230402D01*
X21314Y230432D01*
X21261Y230465D01*
X21203Y230499D01*
X21137Y230532D01*
X21067Y230559D01*
X20990Y230587D01*
X20907Y230609D01*
X20818Y230629D01*
X20724Y230640D01*
X20627Y230643D01*
X21821D01*
D02*
G37*
G36*
X25300Y230601D02*
X24306D01*
X24278Y230598D01*
X24214D01*
X24178Y230595D01*
X24101Y230590D01*
X24020Y230579D01*
X23943Y230568D01*
X23907Y230559D01*
X23873Y230551D01*
X23871D01*
X23862Y230548D01*
X23851Y230543D01*
X23835Y230537D01*
X23815Y230532D01*
X23793Y230521D01*
X23741Y230496D01*
X23680Y230465D01*
X23616Y230424D01*
X23552Y230374D01*
X23488Y230316D01*
X23486Y230313D01*
X23480Y230307D01*
X23472Y230299D01*
X23461Y230285D01*
X23450Y230269D01*
X23433Y230249D01*
X23416Y230227D01*
X23397Y230199D01*
X23378Y230172D01*
X23358Y230141D01*
X23317Y230069D01*
X23278Y229989D01*
X23245Y229900D01*
Y229897D01*
X23242Y229889D01*
X23236Y229875D01*
X23231Y229856D01*
X23225Y229834D01*
X23217Y229803D01*
X23209Y229770D01*
X23200Y229734D01*
X23195Y229693D01*
X23187Y229645D01*
X23178Y229595D01*
X23173Y229543D01*
X23167Y229485D01*
X23162Y229427D01*
X23159Y229363D01*
Y229244D01*
X23162Y229216D01*
Y229186D01*
X23164Y229150D01*
X23170Y229111D01*
X23178Y229025D01*
X23192Y228934D01*
X23211Y228842D01*
X23239Y228753D01*
Y228751D01*
X23245Y228742D01*
X23250Y228726D01*
X23256Y228706D01*
X23267Y228684D01*
X23278Y228657D01*
X23292Y228626D01*
X23308Y228593D01*
X23347Y228521D01*
X23394Y228446D01*
X23450Y228371D01*
X23513Y228302D01*
X23516Y228299D01*
X23519Y228296D01*
X23527Y228288D01*
X23538Y228280D01*
X23552Y228269D01*
X23566Y228255D01*
X23585Y228241D01*
X23607Y228227D01*
X23660Y228194D01*
X23721Y228161D01*
X23793Y228127D01*
X23873Y228097D01*
X23876D01*
X23882Y228094D01*
X23890Y228091D01*
X23904Y228089D01*
X23921Y228086D01*
X23943Y228080D01*
X23968Y228075D01*
X23995Y228072D01*
X24026Y228066D01*
X24059Y228061D01*
X24098Y228055D01*
X24139Y228053D01*
X24181Y228050D01*
X24228Y228047D01*
X24278Y228044D01*
X25300D01*
Y230601D01*
D02*
G37*
G36*
X22987Y230643D02*
X21987D01*
X22627Y228000D01*
X22987D01*
X22355Y230643D01*
X22987D01*
D02*
G37*
%LPD*%
G36*
X24785Y228476D02*
X24325D01*
X24281Y228479D01*
X24228Y228482D01*
X24175Y228485D01*
X24128Y228490D01*
X24106Y228496D01*
X24087Y228499D01*
X24084D01*
X24081Y228501D01*
X24065Y228504D01*
X24042Y228512D01*
X24015Y228523D01*
X23981Y228540D01*
X23945Y228559D01*
X23912Y228582D01*
X23879Y228607D01*
X23876Y228609D01*
X23865Y228621D01*
X23848Y228640D01*
X23832Y228665D01*
X23810Y228701D01*
X23788Y228742D01*
X23765Y228792D01*
X23743Y228853D01*
Y228856D01*
X23741Y228861D01*
X23738Y228870D01*
X23735Y228884D01*
X23732Y228903D01*
X23727Y228922D01*
X23721Y228947D01*
X23716Y228975D01*
X23713Y229008D01*
X23707Y229044D01*
X23702Y229080D01*
X23699Y229122D01*
X23696Y229169D01*
X23693Y229216D01*
X23691Y229269D01*
Y229321D01*
Y229324D01*
Y229335D01*
Y229349D01*
Y229371D01*
X23693Y229396D01*
Y229424D01*
X23696Y229454D01*
Y229490D01*
X23705Y229562D01*
X23713Y229637D01*
X23727Y229712D01*
X23735Y229745D01*
X23743Y229776D01*
Y229778D01*
X23746Y229784D01*
X23749Y229792D01*
X23752Y229801D01*
X23765Y229831D01*
X23782Y229867D01*
X23801Y229906D01*
X23826Y229947D01*
X23857Y229986D01*
X23890Y230022D01*
X23896Y230025D01*
X23907Y230036D01*
X23929Y230053D01*
X23956Y230072D01*
X23990Y230091D01*
X24031Y230111D01*
X24078Y230130D01*
X24131Y230144D01*
X24137D01*
X24142Y230147D01*
X24153D01*
X24164Y230150D01*
X24181Y230152D01*
X24200Y230155D01*
X24225Y230158D01*
X24250D01*
X24281Y230161D01*
X24317Y230163D01*
X24355Y230166D01*
X24400D01*
X24447Y230169D01*
X24785D01*
Y228476D01*
D02*
G37*
%LPC*%
G36*
X21135Y251945D02*
X21088D01*
X21057Y251943D01*
X21016Y251940D01*
X20972Y251934D01*
X20919Y251929D01*
X20864Y251918D01*
X20808Y251907D01*
X20747Y251893D01*
X20686Y251876D01*
X20628Y251857D01*
X20570Y251832D01*
X20512Y251801D01*
X20459Y251771D01*
X20412Y251732D01*
X20409Y251729D01*
X20401Y251724D01*
X20390Y251710D01*
X20373Y251693D01*
X20354Y251674D01*
X20335Y251646D01*
X20312Y251616D01*
X20287Y251583D01*
X20265Y251544D01*
X20243Y251502D01*
X20221Y251455D01*
X20201Y251405D01*
X20182Y251353D01*
X20168Y251294D01*
X20160Y251234D01*
X20154Y251170D01*
X20670Y251150D01*
Y251153D01*
X20672Y251159D01*
Y251170D01*
X20675Y251181D01*
X20681Y251197D01*
X20686Y251217D01*
X20700Y251258D01*
X20719Y251303D01*
X20744Y251350D01*
X20775Y251394D01*
X20814Y251430D01*
X20819Y251433D01*
X20833Y251444D01*
X20858Y251458D01*
X20894Y251474D01*
X20941Y251491D01*
X20997Y251505D01*
X21063Y251516D01*
X21140Y251519D01*
X21177D01*
X21196Y251516D01*
X21218Y251513D01*
X21271Y251508D01*
X21326Y251497D01*
X21387Y251480D01*
X21442Y251455D01*
X21495Y251425D01*
X21498Y251422D01*
X21506Y251413D01*
X21520Y251400D01*
X21534Y251383D01*
X21551Y251361D01*
X21562Y251333D01*
X21573Y251303D01*
X21575Y251267D01*
Y251264D01*
Y251253D01*
X21573Y251234D01*
X21567Y251214D01*
X21556Y251189D01*
X21545Y251161D01*
X21526Y251136D01*
X21501Y251112D01*
X21495Y251109D01*
X21490Y251103D01*
X21478Y251098D01*
X21467Y251089D01*
X21451Y251081D01*
X21429Y251070D01*
X21404Y251059D01*
X21376Y251048D01*
X21343Y251034D01*
X21304Y251020D01*
X21260Y251006D01*
X21210Y250990D01*
X21154Y250973D01*
X21093Y250957D01*
X21027Y250940D01*
X21021D01*
X21010Y250937D01*
X20991Y250932D01*
X20966Y250926D01*
X20933Y250918D01*
X20900Y250907D01*
X20858Y250896D01*
X20817Y250884D01*
X20725Y250857D01*
X20634Y250826D01*
X20589Y250810D01*
X20545Y250793D01*
X20506Y250774D01*
X20470Y250757D01*
X20467D01*
X20462Y250751D01*
X20454Y250746D01*
X20440Y250740D01*
X20406Y250718D01*
X20365Y250691D01*
X20321Y250652D01*
X20274Y250607D01*
X20226Y250555D01*
X20185Y250497D01*
Y250494D01*
X20179Y250488D01*
X20177Y250480D01*
X20168Y250466D01*
X20160Y250449D01*
X20152Y250430D01*
X20143Y250408D01*
X20132Y250383D01*
X20124Y250355D01*
X20116Y250325D01*
X20099Y250256D01*
X20088Y250175D01*
X20082Y250089D01*
Y251945D01*
Y249300D01*
Y250067D01*
X20085Y250053D01*
Y250034D01*
X20088Y250009D01*
X20094Y249984D01*
X20099Y249956D01*
X20113Y249893D01*
X20135Y249823D01*
X20166Y249751D01*
X20185Y249713D01*
X20207Y249677D01*
Y249674D01*
X20213Y249668D01*
X20221Y249657D01*
X20229Y249646D01*
X20243Y249630D01*
X20257Y249610D01*
X20296Y249569D01*
X20346Y249524D01*
X20404Y249475D01*
X20473Y249430D01*
X20553Y249391D01*
X20556D01*
X20564Y249389D01*
X20575Y249383D01*
X20592Y249378D01*
X20614Y249369D01*
X20642Y249364D01*
X20672Y249355D01*
X20706Y249347D01*
X20744Y249336D01*
X20786Y249328D01*
X20833Y249322D01*
X20883Y249314D01*
X20933Y249308D01*
X20991Y249303D01*
X21049Y249300D01*
X22165D01*
X21132D01*
X21157Y249303D01*
X21190D01*
X21229Y249306D01*
X21276Y249311D01*
X21329Y249319D01*
X21384Y249328D01*
X21445Y249339D01*
X21506Y249355D01*
X21567Y249372D01*
X21628Y249394D01*
X21689Y249419D01*
X21747Y249450D01*
X21803Y249483D01*
X21855Y249522D01*
X21858Y249524D01*
X21866Y249533D01*
X21880Y249547D01*
X21897Y249563D01*
X21916Y249588D01*
X21941Y249616D01*
X21966Y249649D01*
X21991Y249688D01*
X22019Y249732D01*
X22046Y249779D01*
X22071Y249835D01*
X22096Y249893D01*
X22118Y249956D01*
X22138Y250023D01*
X22154Y250098D01*
X22165Y250175D01*
X21664Y250225D01*
Y250222D01*
X21661Y250214D01*
X21658Y250200D01*
X21656Y250184D01*
X21650Y250162D01*
X21642Y250139D01*
X21625Y250084D01*
X21600Y250023D01*
X21567Y249959D01*
X21528Y249901D01*
X21506Y249876D01*
X21481Y249851D01*
X21478D01*
X21476Y249846D01*
X21467Y249840D01*
X21456Y249832D01*
X21442Y249823D01*
X21423Y249815D01*
X21404Y249804D01*
X21382Y249793D01*
X21326Y249771D01*
X21262Y249754D01*
X21188Y249740D01*
X21104Y249735D01*
X21080D01*
X21063Y249738D01*
X21041D01*
X21019Y249740D01*
X20963Y249749D01*
X20902Y249760D01*
X20839Y249779D01*
X20778Y249804D01*
X20750Y249821D01*
X20725Y249840D01*
X20722D01*
X20719Y249846D01*
X20706Y249859D01*
X20684Y249882D01*
X20661Y249909D01*
X20639Y249945D01*
X20617Y249990D01*
X20603Y250037D01*
X20598Y250062D01*
Y250087D01*
Y250089D01*
Y250103D01*
X20600Y250120D01*
X20603Y250139D01*
X20612Y250164D01*
X20620Y250192D01*
X20634Y250217D01*
X20653Y250242D01*
X20656Y250245D01*
X20664Y250253D01*
X20678Y250264D01*
X20695Y250281D01*
X20722Y250297D01*
X20753Y250317D01*
X20791Y250333D01*
X20839Y250353D01*
X20844Y250355D01*
X20850D01*
X20858Y250358D01*
X20869Y250361D01*
X20886Y250366D01*
X20902Y250372D01*
X20924Y250377D01*
X20949Y250386D01*
X20980Y250394D01*
X21013Y250402D01*
X21052Y250413D01*
X21093Y250425D01*
X21140Y250436D01*
X21193Y250449D01*
X21251Y250463D01*
X21257D01*
X21271Y250469D01*
X21290Y250475D01*
X21318Y250483D01*
X21354Y250491D01*
X21393Y250505D01*
X21434Y250519D01*
X21478Y250533D01*
X21575Y250571D01*
X21672Y250613D01*
X21717Y250638D01*
X21761Y250663D01*
X21800Y250688D01*
X21833Y250715D01*
X21836Y250718D01*
X21844Y250727D01*
X21855Y250738D01*
X21869Y250754D01*
X21889Y250774D01*
X21908Y250799D01*
X21930Y250826D01*
X21949Y250859D01*
X21971Y250896D01*
X21994Y250934D01*
X22013Y250979D01*
X22032Y251023D01*
X22046Y251070D01*
X22057Y251123D01*
X22066Y251175D01*
X22069Y251231D01*
Y251234D01*
Y251239D01*
Y251250D01*
X22066Y251264D01*
Y251280D01*
X22063Y251303D01*
X22055Y251350D01*
X22041Y251405D01*
X22021Y251469D01*
X21994Y251533D01*
X21958Y251596D01*
Y251599D01*
X21952Y251605D01*
X21947Y251613D01*
X21938Y251624D01*
X21911Y251655D01*
X21877Y251693D01*
X21830Y251735D01*
X21778Y251776D01*
X21711Y251818D01*
X21639Y251854D01*
X21636D01*
X21631Y251857D01*
X21617Y251862D01*
X21603Y251868D01*
X21581Y251876D01*
X21559Y251882D01*
X21531Y251890D01*
X21498Y251901D01*
X21462Y251909D01*
X21426Y251918D01*
X21384Y251923D01*
X21340Y251932D01*
X21290Y251937D01*
X21243Y251943D01*
X21135Y251945D01*
D02*
G37*
G36*
X24700D02*
X22473D01*
X23484D01*
X23462Y251943D01*
X23429Y251940D01*
X23390Y251937D01*
X23343Y251932D01*
X23290Y251923D01*
X23235Y251909D01*
X23177Y251895D01*
X23116Y251876D01*
X23052Y251854D01*
X22988Y251826D01*
X22924Y251796D01*
X22861Y251757D01*
X22803Y251715D01*
X22744Y251666D01*
X22742Y251663D01*
X22736Y251657D01*
X22728Y251649D01*
X22717Y251635D01*
X22700Y251619D01*
X22683Y251599D01*
X22667Y251574D01*
X22645Y251547D01*
X22625Y251513D01*
X22603Y251480D01*
X22581Y251441D01*
X22559Y251400D01*
X22539Y251353D01*
X22517Y251306D01*
X22498Y251253D01*
X22481Y251197D01*
X22991Y251076D01*
Y251078D01*
X22994Y251084D01*
X22996Y251095D01*
X22999Y251109D01*
X23005Y251125D01*
X23013Y251145D01*
X23032Y251189D01*
X23057Y251239D01*
X23091Y251292D01*
X23132Y251342D01*
X23182Y251389D01*
X23185Y251391D01*
X23188Y251394D01*
X23196Y251400D01*
X23207Y251408D01*
X23221Y251416D01*
X23237Y251425D01*
X23279Y251447D01*
X23332Y251469D01*
X23390Y251485D01*
X23456Y251499D01*
X23531Y251505D01*
X23559D01*
X23578Y251502D01*
X23603Y251499D01*
X23631Y251494D01*
X23661Y251488D01*
X23695Y251480D01*
X23731Y251469D01*
X23769Y251455D01*
X23808Y251438D01*
X23847Y251419D01*
X23886Y251394D01*
X23922Y251366D01*
X23960Y251336D01*
X23994Y251300D01*
X23996Y251297D01*
X24002Y251292D01*
X24010Y251278D01*
X24021Y251261D01*
X24035Y251239D01*
X24049Y251211D01*
X24066Y251178D01*
X24080Y251139D01*
X24096Y251098D01*
X24113Y251048D01*
X24127Y250995D01*
X24140Y250934D01*
X24151Y250868D01*
X24160Y250799D01*
X24165Y250721D01*
X24168Y250638D01*
Y250632D01*
Y250616D01*
Y250591D01*
X24165Y250560D01*
X24163Y250519D01*
X24160Y250475D01*
X24154Y250425D01*
X24146Y250369D01*
X24127Y250256D01*
X24113Y250200D01*
X24096Y250142D01*
X24077Y250087D01*
X24052Y250037D01*
X24027Y249990D01*
X23996Y249948D01*
X23994Y249945D01*
X23988Y249940D01*
X23977Y249929D01*
X23966Y249915D01*
X23947Y249901D01*
X23927Y249885D01*
X23902Y249865D01*
X23875Y249846D01*
X23844Y249826D01*
X23808Y249807D01*
X23772Y249790D01*
X23731Y249776D01*
X23689Y249763D01*
X23642Y249751D01*
X23592Y249746D01*
X23542Y249743D01*
X23523D01*
X23509Y249746D01*
X23490D01*
X23470Y249751D01*
X23420Y249760D01*
X23365Y249776D01*
X23307Y249799D01*
X23248Y249832D01*
X23218Y249851D01*
X23190Y249873D01*
X23188Y249876D01*
X23185Y249879D01*
X23177Y249887D01*
X23165Y249898D01*
X23154Y249912D01*
X23141Y249929D01*
X23124Y249951D01*
X23107Y249973D01*
X23091Y250001D01*
X23071Y250031D01*
X23055Y250064D01*
X23035Y250103D01*
X23019Y250142D01*
X23002Y250186D01*
X22988Y250236D01*
X22974Y250286D01*
X22473Y250131D01*
Y250126D01*
X22479Y250112D01*
X22484Y250092D01*
X22495Y250062D01*
X22509Y250028D01*
X22523Y249987D01*
X22542Y249943D01*
X22564Y249896D01*
X22589Y249846D01*
X22617Y249793D01*
X22650Y249740D01*
X22683Y249691D01*
X22722Y249638D01*
X22764Y249591D01*
X22808Y249547D01*
X22858Y249505D01*
X22861Y249502D01*
X22869Y249497D01*
X22886Y249486D01*
X22905Y249475D01*
X22933Y249458D01*
X22963Y249441D01*
X22999Y249422D01*
X23043Y249405D01*
X23088Y249386D01*
X23141Y249366D01*
X23196Y249350D01*
X23257Y249333D01*
X23321Y249322D01*
X23390Y249311D01*
X23462Y249306D01*
X23537Y249303D01*
X23559D01*
X23586Y249306D01*
X23622Y249308D01*
X23664Y249314D01*
X23714Y249322D01*
X23772Y249330D01*
X23833Y249347D01*
X23897Y249364D01*
X23966Y249389D01*
X24035Y249416D01*
X24104Y249450D01*
X24174Y249488D01*
X24243Y249535D01*
X24309Y249588D01*
X24373Y249649D01*
X24376Y249652D01*
X24387Y249666D01*
X24404Y249685D01*
X24423Y249713D01*
X24448Y249749D01*
X24476Y249790D01*
X24506Y249840D01*
X24537Y249898D01*
X24567Y249962D01*
X24598Y250034D01*
X24625Y250112D01*
X24650Y250198D01*
X24669Y250289D01*
X24686Y250386D01*
X24697Y250488D01*
X24700Y250599D01*
Y249668D01*
Y250599D01*
Y250643D01*
X24697Y250660D01*
X24694Y250704D01*
X24689Y250757D01*
X24683Y250821D01*
X24672Y250890D01*
X24658Y250962D01*
X24642Y251042D01*
X24620Y251123D01*
X24595Y251206D01*
X24562Y251289D01*
X24525Y251369D01*
X24481Y251447D01*
X24431Y251521D01*
X24373Y251591D01*
X24370Y251594D01*
X24356Y251607D01*
X24340Y251624D01*
X24312Y251646D01*
X24279Y251674D01*
X24240Y251704D01*
X24193Y251735D01*
X24140Y251768D01*
X24082Y251801D01*
X24016Y251835D01*
X23947Y251862D01*
X23869Y251890D01*
X23786Y251912D01*
X23697Y251932D01*
X23603Y251943D01*
X23506Y251945D01*
X24700D01*
D02*
G37*
G36*
X33167Y251272D02*
X32829D01*
X32782Y251269D01*
X32737D01*
X32699Y251266D01*
X32663Y251263D01*
X32632Y251261D01*
X32607D01*
X32582Y251258D01*
X32563Y251255D01*
X32546Y251252D01*
X32535Y251250D01*
X32524D01*
X32519Y251247D01*
X32513D01*
X32460Y251233D01*
X32413Y251214D01*
X32372Y251194D01*
X32339Y251175D01*
X32311Y251155D01*
X32289Y251139D01*
X32278Y251128D01*
X32272Y251125D01*
X32239Y251089D01*
X32208Y251050D01*
X32184Y251009D01*
X32164Y250970D01*
X32147Y250934D01*
X32134Y250903D01*
X32131Y250895D01*
X32128Y250887D01*
X32125Y250881D01*
Y250878D01*
X32117Y250848D01*
X32109Y250815D01*
X32095Y250740D01*
X32087Y250665D01*
X32078Y250593D01*
Y250557D01*
X32076Y250526D01*
Y250499D01*
X32073Y250474D01*
Y250452D01*
Y250438D01*
Y250427D01*
Y250424D01*
Y250371D01*
X32076Y250319D01*
X32078Y250272D01*
X32081Y250225D01*
X32084Y250183D01*
X32089Y250147D01*
X32095Y250111D01*
X32098Y250078D01*
X32103Y250050D01*
X32109Y250025D01*
X32114Y250006D01*
X32117Y249986D01*
X32120Y249973D01*
X32123Y249964D01*
X32125Y249959D01*
Y249956D01*
X32147Y249895D01*
X32170Y249845D01*
X32192Y249804D01*
X32214Y249768D01*
X32231Y249743D01*
X32247Y249723D01*
X32258Y249712D01*
X32261Y249709D01*
X32294Y249685D01*
X32327Y249662D01*
X32364Y249643D01*
X32397Y249626D01*
X32425Y249615D01*
X32447Y249607D01*
X32463Y249604D01*
X32466Y249601D01*
X32469D01*
X32488Y249599D01*
X32510Y249593D01*
X32557Y249587D01*
X32610Y249585D01*
X32663Y249582D01*
X32707Y249579D01*
X33167D01*
Y251272D01*
D02*
G37*
G36*
X30101Y251108D02*
X29746Y250161D01*
X30447D01*
X30101Y251108D01*
D02*
G37*
G36*
X41054Y252004D02*
X40060D01*
X40032Y252001D01*
X39968D01*
X39932Y251998D01*
X39855Y251993D01*
X39774Y251982D01*
X39697Y251971D01*
X39661Y251962D01*
X39628Y251954D01*
X39625D01*
X39617Y251951D01*
X39606Y251946D01*
X39589Y251940D01*
X39570Y251935D01*
X39547Y251923D01*
X39495Y251899D01*
X39434Y251868D01*
X39370Y251827D01*
X39306Y251777D01*
X39243Y251718D01*
X39240Y251716D01*
X39234Y251710D01*
X39226Y251702D01*
X39215Y251688D01*
X39204Y251671D01*
X39187Y251652D01*
X39171Y251630D01*
X39151Y251602D01*
X39132Y251574D01*
X39112Y251544D01*
X39071Y251472D01*
X39032Y251392D01*
X38999Y251303D01*
Y251300D01*
X38996Y251292D01*
X38991Y251278D01*
X38985Y251259D01*
X38980Y251237D01*
X38971Y251206D01*
X38963Y251173D01*
X38954Y251137D01*
X38949Y251095D01*
X38941Y251048D01*
X38932Y250998D01*
X38927Y250946D01*
X38921Y250887D01*
X38916Y250829D01*
X38913Y250766D01*
Y250768D01*
Y250766D01*
Y250646D01*
X38916Y250619D01*
Y250588D01*
X38919Y250552D01*
X38924Y250514D01*
X38932Y250428D01*
X38946Y250336D01*
X38966Y250245D01*
X38993Y250156D01*
Y250153D01*
X38999Y250145D01*
X39004Y250129D01*
X39010Y250109D01*
X39021Y250087D01*
X39032Y250059D01*
X39046Y250029D01*
X39062Y249996D01*
X39101Y249923D01*
X39148Y249849D01*
X39204Y249774D01*
X39268Y249705D01*
X39270Y249702D01*
X39273Y249699D01*
X39281Y249691D01*
X39292Y249682D01*
X39306Y249672D01*
X39320Y249658D01*
X39340Y249644D01*
X39362Y249630D01*
X39414Y249597D01*
X39475Y249563D01*
X39547Y249530D01*
X39628Y249500D01*
X39630D01*
X39636Y249497D01*
X39644Y249494D01*
X39658Y249491D01*
X39675Y249489D01*
X39697Y249483D01*
X39722Y249478D01*
X39750Y249475D01*
X39780Y249469D01*
X39813Y249464D01*
X39852Y249458D01*
X39893Y249455D01*
X39935Y249453D01*
X39982Y249450D01*
X40032Y249447D01*
X41054D01*
Y252004D01*
D02*
G37*
G36*
X43628D02*
X43129D01*
X42076Y250286D01*
Y252004D01*
X41600D01*
Y249447D01*
X43628D01*
Y252004D01*
D02*
G37*
G36*
X45298Y252045D02*
X45184D01*
X45154Y252043D01*
X45112Y252040D01*
X45065Y252034D01*
X45015Y252029D01*
X44960Y252020D01*
X44902Y252009D01*
X44841Y251995D01*
X44780Y251982D01*
X44716Y251962D01*
X44655Y251937D01*
X44597Y251912D01*
X44542Y251882D01*
X44489Y251846D01*
X44486Y251843D01*
X44478Y251838D01*
X44464Y251827D01*
X44445Y251810D01*
X44425Y251788D01*
X44400Y251766D01*
X44373Y251735D01*
X44345Y251702D01*
X44315Y251666D01*
X44287Y251624D01*
X44256Y251577D01*
X44229Y251530D01*
X44204Y251478D01*
X44179Y251419D01*
X44159Y251358D01*
X44143Y251295D01*
X44655Y251198D01*
Y251201D01*
X44658Y251206D01*
X44661Y251217D01*
X44666Y251228D01*
X44672Y251245D01*
X44680Y251264D01*
X44702Y251306D01*
X44730Y251353D01*
X44766Y251403D01*
X44807Y251450D01*
X44860Y251494D01*
X44863D01*
X44866Y251500D01*
X44874Y251505D01*
X44888Y251511D01*
X44902Y251519D01*
X44918Y251530D01*
X44941Y251538D01*
X44963Y251550D01*
X45015Y251569D01*
X45079Y251588D01*
X45151Y251599D01*
X45231Y251605D01*
X45265D01*
X45287Y251602D01*
X45314Y251599D01*
X45348Y251594D01*
X45386Y251586D01*
X45425Y251577D01*
X45467Y251566D01*
X45511Y251552D01*
X45555Y251536D01*
X45600Y251514D01*
X45644Y251489D01*
X45688Y251461D01*
X45730Y251428D01*
X45769Y251389D01*
X45772Y251386D01*
X45777Y251378D01*
X45788Y251367D01*
X45799Y251347D01*
X45816Y251325D01*
X45832Y251297D01*
X45849Y251267D01*
X45868Y251228D01*
X45888Y251187D01*
X45904Y251140D01*
X45921Y251087D01*
X45938Y251029D01*
X45949Y250968D01*
X45960Y250901D01*
X45965Y250829D01*
X45968Y250752D01*
Y250746D01*
Y250732D01*
X45965Y250707D01*
Y250677D01*
X45963Y250638D01*
X45957Y250597D01*
X45952Y250547D01*
X45943Y250494D01*
X45932Y250442D01*
X45918Y250383D01*
X45902Y250328D01*
X45882Y250270D01*
X45860Y250214D01*
X45832Y250162D01*
X45802Y250112D01*
X45766Y250068D01*
X45763Y250065D01*
X45758Y250059D01*
X45744Y250045D01*
X45730Y250032D01*
X45708Y250015D01*
X45686Y249996D01*
X45655Y249976D01*
X45625Y249954D01*
X45589Y249932D01*
X45547Y249912D01*
X45506Y249893D01*
X45458Y249876D01*
X45406Y249863D01*
X45353Y249851D01*
X45298Y249843D01*
X45237Y249840D01*
X45209D01*
X45195Y249843D01*
X45176D01*
X45134Y249849D01*
X45085Y249857D01*
X45032Y249868D01*
X44974Y249882D01*
X44913Y249904D01*
X44910D01*
X44905Y249907D01*
X44896Y249910D01*
X44885Y249915D01*
X44855Y249929D01*
X44816Y249949D01*
X44772Y249971D01*
X44724Y249996D01*
X44677Y250023D01*
X44630Y250057D01*
Y250383D01*
X45220D01*
Y250816D01*
X44109D01*
Y250832D01*
Y249400D01*
X46500D01*
D01*
X45242D01*
X45270Y249403D01*
X45306Y249406D01*
X45348Y249408D01*
X45392Y249414D01*
X45442Y249422D01*
X45494Y249430D01*
X45550Y249442D01*
X45608Y249455D01*
X45669Y249469D01*
X45730Y249489D01*
X45788Y249511D01*
X45846Y249536D01*
X45904Y249566D01*
X45907Y249569D01*
X45918Y249574D01*
X45932Y249583D01*
X45954Y249597D01*
X45976Y249616D01*
X46007Y249635D01*
X46037Y249660D01*
X46071Y249691D01*
X46107Y249721D01*
X46143Y249757D01*
X46181Y249799D01*
X46218Y249840D01*
X46253Y249887D01*
X46290Y249937D01*
X46320Y249990D01*
X46350Y250048D01*
X46353Y250051D01*
X46356Y250062D01*
X46364Y250079D01*
X46373Y250104D01*
X46384Y250131D01*
X46398Y250167D01*
X46411Y250206D01*
X46425Y250250D01*
X46439Y250300D01*
X46453Y250353D01*
X46464Y250408D01*
X46478Y250466D01*
X46486Y250530D01*
X46494Y250594D01*
X46497Y250660D01*
X46500Y250730D01*
Y250796D01*
Y250768D01*
X46497Y250796D01*
X46494Y250832D01*
X46492Y250874D01*
X46486Y250918D01*
X46478Y250968D01*
X46470Y251020D01*
X46458Y251079D01*
X46445Y251137D01*
X46431Y251198D01*
X46411Y251259D01*
X46389Y251320D01*
X46364Y251380D01*
X46334Y251439D01*
X46331Y251442D01*
X46325Y251453D01*
X46317Y251469D01*
X46303Y251491D01*
X46284Y251516D01*
X46265Y251547D01*
X46240Y251580D01*
X46209Y251616D01*
X46179Y251655D01*
X46140Y251694D01*
X46101Y251732D01*
X46057Y251774D01*
X46010Y251813D01*
X45957Y251849D01*
X45902Y251885D01*
X45843Y251918D01*
X45841Y251921D01*
X45832Y251923D01*
X45819Y251929D01*
X45799Y251937D01*
X45774Y251948D01*
X45747Y251959D01*
X45713Y251971D01*
X45674Y251982D01*
X45633Y251993D01*
X45586Y252004D01*
X45536Y252015D01*
X45481Y252026D01*
X45423Y252034D01*
X45362Y252040D01*
X45298Y252045D01*
D02*
G37*
G36*
X39992Y249447D02*
X38913D01*
D01*
X39992D01*
D02*
G37*
%LPD*%
G36*
X40539Y249879D02*
X40079D01*
X40035Y249882D01*
X39982Y249885D01*
X39930Y249887D01*
X39882Y249893D01*
X39860Y249899D01*
X39841Y249901D01*
X39838D01*
X39835Y249904D01*
X39819Y249907D01*
X39797Y249915D01*
X39769Y249926D01*
X39736Y249943D01*
X39700Y249962D01*
X39666Y249985D01*
X39633Y250009D01*
X39630Y250012D01*
X39619Y250023D01*
X39603Y250043D01*
X39586Y250068D01*
X39564Y250104D01*
X39542Y250145D01*
X39520Y250195D01*
X39497Y250256D01*
Y250259D01*
X39495Y250264D01*
X39492Y250273D01*
X39489Y250286D01*
X39486Y250306D01*
X39481Y250325D01*
X39475Y250350D01*
X39470Y250378D01*
X39467Y250411D01*
X39461Y250447D01*
X39456Y250483D01*
X39453Y250525D01*
X39450Y250572D01*
X39448Y250619D01*
X39445Y250671D01*
Y250724D01*
Y250727D01*
Y250738D01*
Y250752D01*
Y250774D01*
X39448Y250799D01*
Y250827D01*
X39450Y250857D01*
Y250893D01*
X39459Y250965D01*
X39467Y251040D01*
X39481Y251115D01*
X39489Y251148D01*
X39497Y251178D01*
Y251181D01*
X39500Y251187D01*
X39503Y251195D01*
X39506Y251203D01*
X39520Y251234D01*
X39536Y251270D01*
X39556Y251308D01*
X39581Y251350D01*
X39611Y251389D01*
X39644Y251425D01*
X39650Y251428D01*
X39661Y251439D01*
X39683Y251455D01*
X39711Y251475D01*
X39744Y251494D01*
X39786Y251514D01*
X39833Y251533D01*
X39885Y251547D01*
X39891D01*
X39896Y251550D01*
X39907D01*
X39919Y251552D01*
X39935Y251555D01*
X39955Y251558D01*
X39979Y251561D01*
X40004D01*
X40035Y251563D01*
X40071Y251566D01*
X40110Y251569D01*
X40154D01*
X40201Y251572D01*
X40539D01*
Y249879D01*
D02*
G37*
G36*
X43151Y249447D02*
X42115D01*
X43151Y251126D01*
Y249447D01*
D02*
G37*
G36*
X44112Y249791D02*
X44118Y249788D01*
X44126Y249780D01*
X44140Y249768D01*
X44157Y249755D01*
X44176Y249738D01*
X44201Y249721D01*
X44229Y249702D01*
X44262Y249680D01*
X44295Y249658D01*
X44334Y249635D01*
X44378Y249613D01*
X44423Y249588D01*
X44472Y249566D01*
X44525Y249541D01*
X44580Y249519D01*
X44583D01*
X44594Y249514D01*
X44611Y249508D01*
X44633Y249500D01*
X44661Y249491D01*
X44694Y249480D01*
X44733Y249472D01*
X44774Y249461D01*
X44819Y249450D01*
X44868Y249439D01*
X44918Y249428D01*
X44974Y249419D01*
X45087Y249406D01*
X45145Y249403D01*
X45204Y249400D01*
X44109D01*
Y249793D01*
X44112Y249791D01*
D02*
G37*
%LPC*%
G36*
X42826Y230745D02*
X42779D01*
X42749Y230743D01*
X42707Y230740D01*
X42663Y230734D01*
X42610Y230729D01*
X42555Y230718D01*
X42500Y230707D01*
X42439Y230693D01*
X42378Y230676D01*
X42320Y230657D01*
X42261Y230632D01*
X42203Y230601D01*
X42151Y230571D01*
X42103Y230532D01*
X42101Y230529D01*
X42092Y230524D01*
X42081Y230510D01*
X42065Y230493D01*
X42045Y230474D01*
X42026Y230446D01*
X42004Y230416D01*
X41979Y230382D01*
X41957Y230344D01*
X41934Y230302D01*
X41912Y230255D01*
X41893Y230205D01*
X41873Y230153D01*
X41860Y230094D01*
X41851Y230033D01*
X41846Y229970D01*
X42361Y229950D01*
Y229953D01*
X42364Y229959D01*
Y229970D01*
X42367Y229981D01*
X42372Y229997D01*
X42378Y230017D01*
X42391Y230058D01*
X42411Y230103D01*
X42436Y230150D01*
X42466Y230194D01*
X42505Y230230D01*
X42511Y230233D01*
X42524Y230244D01*
X42549Y230258D01*
X42585Y230274D01*
X42632Y230291D01*
X42688Y230305D01*
X42754Y230316D01*
X42832Y230319D01*
X42868D01*
X42887Y230316D01*
X42910Y230313D01*
X42962Y230308D01*
X43018Y230297D01*
X43079Y230280D01*
X43134Y230255D01*
X43187Y230225D01*
X43189Y230222D01*
X43198Y230213D01*
X43211Y230200D01*
X43225Y230183D01*
X43242Y230161D01*
X43253Y230133D01*
X43264Y230103D01*
X43267Y230067D01*
Y230064D01*
Y230053D01*
X43264Y230033D01*
X43259Y230014D01*
X43248Y229989D01*
X43236Y229961D01*
X43217Y229937D01*
X43192Y229912D01*
X43187Y229909D01*
X43181Y229903D01*
X43170Y229898D01*
X43159Y229889D01*
X43142Y229881D01*
X43120Y229870D01*
X43095Y229859D01*
X43067Y229848D01*
X43034Y229834D01*
X42995Y229820D01*
X42951Y229806D01*
X42901Y229790D01*
X42846Y229773D01*
X42785Y229756D01*
X42718Y229740D01*
X42713D01*
X42702Y229737D01*
X42682Y229731D01*
X42658Y229726D01*
X42624Y229718D01*
X42591Y229707D01*
X42549Y229696D01*
X42508Y229684D01*
X42417Y229657D01*
X42325Y229626D01*
X42281Y229610D01*
X42236Y229593D01*
X42198Y229574D01*
X42162Y229557D01*
X42159D01*
X42153Y229552D01*
X42145Y229546D01*
X42131Y229540D01*
X42098Y229518D01*
X42056Y229490D01*
X42012Y229452D01*
X41965Y229407D01*
X41918Y229355D01*
X41876Y229297D01*
Y229294D01*
X41871Y229288D01*
X41868Y229280D01*
X41860Y229266D01*
X41851Y229250D01*
X41843Y229230D01*
X41835Y229208D01*
X41824Y229183D01*
X41815Y229155D01*
X41807Y229125D01*
X41790Y229056D01*
X41779Y228975D01*
X41774Y228889D01*
Y230745D01*
Y228100D01*
Y228867D01*
X41777Y228853D01*
Y228834D01*
X41779Y228809D01*
X41785Y228784D01*
X41790Y228756D01*
X41804Y228693D01*
X41826Y228624D01*
X41857Y228552D01*
X41876Y228513D01*
X41899Y228477D01*
Y228474D01*
X41904Y228468D01*
X41912Y228457D01*
X41921Y228446D01*
X41934Y228430D01*
X41948Y228410D01*
X41987Y228369D01*
X42037Y228324D01*
X42095Y228274D01*
X42164Y228230D01*
X42245Y228191D01*
X42248D01*
X42256Y228189D01*
X42267Y228183D01*
X42283Y228178D01*
X42306Y228169D01*
X42333Y228164D01*
X42364Y228155D01*
X42397Y228147D01*
X42436Y228136D01*
X42477Y228128D01*
X42524Y228122D01*
X42574Y228114D01*
X42624Y228108D01*
X42682Y228103D01*
X42741Y228100D01*
X43857D01*
X42824D01*
X42849Y228103D01*
X42882D01*
X42921Y228105D01*
X42968Y228111D01*
X43020Y228119D01*
X43076Y228128D01*
X43137Y228139D01*
X43198Y228155D01*
X43259Y228172D01*
X43319Y228194D01*
X43380Y228219D01*
X43439Y228250D01*
X43494Y228283D01*
X43547Y228322D01*
X43549Y228324D01*
X43558Y228333D01*
X43572Y228346D01*
X43588Y228363D01*
X43608Y228388D01*
X43633Y228416D01*
X43657Y228449D01*
X43682Y228488D01*
X43710Y228532D01*
X43738Y228579D01*
X43763Y228635D01*
X43788Y228693D01*
X43810Y228756D01*
X43829Y228823D01*
X43846Y228898D01*
X43857Y228975D01*
X43356Y229025D01*
Y229022D01*
X43353Y229014D01*
X43350Y229000D01*
X43347Y228984D01*
X43342Y228961D01*
X43333Y228939D01*
X43317Y228884D01*
X43292Y228823D01*
X43259Y228759D01*
X43220Y228701D01*
X43198Y228676D01*
X43173Y228651D01*
X43170D01*
X43167Y228646D01*
X43159Y228640D01*
X43148Y228632D01*
X43134Y228624D01*
X43115Y228615D01*
X43095Y228604D01*
X43073Y228593D01*
X43018Y228571D01*
X42954Y228554D01*
X42879Y228540D01*
X42796Y228535D01*
X42771D01*
X42754Y228538D01*
X42732D01*
X42710Y228540D01*
X42655Y228549D01*
X42594Y228560D01*
X42530Y228579D01*
X42469Y228604D01*
X42441Y228621D01*
X42417Y228640D01*
X42414D01*
X42411Y228646D01*
X42397Y228660D01*
X42375Y228682D01*
X42353Y228709D01*
X42331Y228745D01*
X42308Y228790D01*
X42295Y228837D01*
X42289Y228862D01*
Y228887D01*
Y228889D01*
Y228903D01*
X42292Y228920D01*
X42295Y228939D01*
X42303Y228964D01*
X42311Y228992D01*
X42325Y229017D01*
X42344Y229042D01*
X42347Y229045D01*
X42355Y229053D01*
X42369Y229064D01*
X42386Y229081D01*
X42414Y229097D01*
X42444Y229117D01*
X42483Y229133D01*
X42530Y229153D01*
X42536Y229155D01*
X42541D01*
X42549Y229158D01*
X42560Y229161D01*
X42577Y229166D01*
X42594Y229172D01*
X42616Y229177D01*
X42641Y229186D01*
X42671Y229194D01*
X42704Y229203D01*
X42743Y229214D01*
X42785Y229225D01*
X42832Y229236D01*
X42885Y229250D01*
X42943Y229263D01*
X42948D01*
X42962Y229269D01*
X42981Y229275D01*
X43009Y229283D01*
X43045Y229291D01*
X43084Y229305D01*
X43126Y229319D01*
X43170Y229333D01*
X43267Y229371D01*
X43364Y229413D01*
X43408Y229438D01*
X43452Y229463D01*
X43491Y229488D01*
X43525Y229516D01*
X43527Y229518D01*
X43536Y229526D01*
X43547Y229538D01*
X43560Y229554D01*
X43580Y229574D01*
X43599Y229599D01*
X43621Y229626D01*
X43641Y229660D01*
X43663Y229696D01*
X43685Y229734D01*
X43705Y229779D01*
X43724Y229823D01*
X43738Y229870D01*
X43749Y229923D01*
X43757Y229975D01*
X43760Y230031D01*
Y230033D01*
Y230039D01*
Y230050D01*
X43757Y230064D01*
Y230081D01*
X43754Y230103D01*
X43746Y230150D01*
X43732Y230205D01*
X43713Y230269D01*
X43685Y230333D01*
X43649Y230396D01*
Y230399D01*
X43644Y230405D01*
X43638Y230413D01*
X43630Y230424D01*
X43602Y230454D01*
X43569Y230493D01*
X43522Y230535D01*
X43469Y230576D01*
X43403Y230618D01*
X43331Y230654D01*
X43328D01*
X43322Y230657D01*
X43308Y230662D01*
X43295Y230668D01*
X43272Y230676D01*
X43250Y230682D01*
X43222Y230690D01*
X43189Y230701D01*
X43153Y230709D01*
X43117Y230718D01*
X43076Y230723D01*
X43031Y230732D01*
X42981Y230737D01*
X42934Y230743D01*
X42826Y230745D01*
D02*
G37*
G36*
X41519Y230704D02*
X39491D01*
Y230272D01*
X40245D01*
Y228147D01*
X40760D01*
Y230272D01*
X41519D01*
Y228784D01*
Y230704D01*
D02*
G37*
G36*
X46300D02*
X45148D01*
X45114Y230701D01*
X45076D01*
X45031Y230698D01*
X44987Y230696D01*
X44887Y230687D01*
X44790Y230673D01*
X44743Y230668D01*
X44696Y230657D01*
X44655Y230646D01*
X44619Y230634D01*
X44616D01*
X44610Y230632D01*
X44602Y230626D01*
X44588Y230621D01*
X44572Y230612D01*
X44555Y230604D01*
X44511Y230579D01*
X44464Y230543D01*
X44416Y230502D01*
X44366Y230449D01*
X44322Y230388D01*
Y230385D01*
X44317Y230380D01*
X44311Y230371D01*
X44306Y230358D01*
X44295Y230341D01*
X44286Y230322D01*
X44275Y230297D01*
X44264Y230272D01*
X44245Y230213D01*
X44225Y230144D01*
X44214Y230069D01*
X44209Y229986D01*
Y229984D01*
Y229973D01*
Y229959D01*
X44211Y229939D01*
X44214Y229914D01*
X44217Y229887D01*
X44223Y229853D01*
X44231Y229820D01*
X44250Y229743D01*
X44264Y229704D01*
X44281Y229665D01*
X44300Y229624D01*
X44322Y229585D01*
X44347Y229546D01*
X44378Y229510D01*
X44380Y229507D01*
X44386Y229502D01*
X44394Y229493D01*
X44408Y229480D01*
X44427Y229466D01*
X44450Y229449D01*
X44475Y229430D01*
X44505Y229410D01*
X44538Y229388D01*
X44574Y229369D01*
X44616Y229349D01*
X44663Y229330D01*
X44713Y229313D01*
X44765Y229297D01*
X44824Y229283D01*
X44884Y229272D01*
X44882D01*
X44876Y229266D01*
X44868Y229263D01*
X44857Y229255D01*
X44826Y229236D01*
X44788Y229208D01*
X44743Y229177D01*
X44696Y229141D01*
X44649Y229100D01*
X44607Y229058D01*
X44602Y229053D01*
X44596Y229045D01*
X44588Y229036D01*
X44577Y229022D01*
X44563Y229006D01*
X44547Y228986D01*
X44530Y228964D01*
X44511Y228937D01*
X44488Y228906D01*
X44464Y228873D01*
X44439Y228834D01*
X44411Y228793D01*
X44380Y228745D01*
X44347Y228698D01*
X44314Y228643D01*
X44001Y228147D01*
X46300D01*
Y230704D01*
D02*
G37*
%LPD*%
G36*
X45785Y229621D02*
X45314D01*
X45281Y229624D01*
X45206D01*
X45125Y229629D01*
X45051Y229635D01*
X45017Y229637D01*
X44987Y229640D01*
X44959Y229646D01*
X44940Y229651D01*
X44934Y229654D01*
X44923Y229657D01*
X44907Y229665D01*
X44887Y229676D01*
X44862Y229690D01*
X44837Y229709D01*
X44815Y229731D01*
X44793Y229759D01*
X44790Y229762D01*
X44785Y229773D01*
X44776Y229790D01*
X44765Y229812D01*
X44757Y229840D01*
X44749Y229873D01*
X44743Y229912D01*
X44741Y229953D01*
Y229956D01*
Y229959D01*
Y229975D01*
X44743Y229997D01*
X44749Y230028D01*
X44757Y230061D01*
X44771Y230094D01*
X44788Y230128D01*
X44810Y230161D01*
X44813Y230164D01*
X44824Y230175D01*
X44837Y230189D01*
X44860Y230202D01*
X44887Y230222D01*
X44921Y230236D01*
X44962Y230250D01*
X45006Y230261D01*
X45009D01*
X45020Y230263D01*
X45042D01*
X45056Y230266D01*
X45098D01*
X45125Y230269D01*
X45192D01*
X45231Y230272D01*
X45785D01*
Y229621D01*
D02*
G37*
G36*
Y228147D02*
X44619D01*
X44993Y228704D01*
X44995Y228707D01*
X45001Y228718D01*
X45012Y228732D01*
X45026Y228751D01*
X45040Y228776D01*
X45059Y228801D01*
X45101Y228862D01*
X45148Y228925D01*
X45192Y228986D01*
X45214Y229014D01*
X45234Y229039D01*
X45250Y229061D01*
X45267Y229078D01*
X45270Y229081D01*
X45278Y229092D01*
X45294Y229103D01*
X45314Y229119D01*
X45336Y229139D01*
X45364Y229155D01*
X45391Y229172D01*
X45422Y229183D01*
X45425Y229186D01*
X45439Y229189D01*
X45458Y229194D01*
X45486Y229200D01*
X45522Y229205D01*
X45566Y229208D01*
X45619Y229214D01*
X45785D01*
Y228147D01*
D02*
G37*
%LPC*%
G36*
X10339Y230172D02*
X10001D01*
X9954Y230169D01*
X9910D01*
X9871Y230166D01*
X9835Y230163D01*
X9804Y230161D01*
X9779D01*
X9754Y230158D01*
X9735Y230155D01*
X9719Y230152D01*
X9707Y230150D01*
X9696D01*
X9691Y230147D01*
X9685D01*
X9633Y230133D01*
X9585Y230114D01*
X9544Y230094D01*
X9511Y230075D01*
X9483Y230055D01*
X9461Y230039D01*
X9450Y230028D01*
X9444Y230025D01*
X9411Y229989D01*
X9381Y229950D01*
X9356Y229908D01*
X9336Y229870D01*
X9320Y229834D01*
X9306Y229803D01*
X9303Y229795D01*
X9300Y229787D01*
X9297Y229781D01*
Y229778D01*
X9289Y229748D01*
X9281Y229715D01*
X9267Y229640D01*
X9259Y229565D01*
X9250Y229493D01*
Y229457D01*
X9248Y229427D01*
Y229399D01*
X9245Y229374D01*
Y229352D01*
Y229338D01*
Y229327D01*
Y229324D01*
Y229271D01*
X9248Y229219D01*
X9250Y229172D01*
X9253Y229125D01*
X9256Y229083D01*
X9261Y229047D01*
X9267Y229011D01*
X9270Y228978D01*
X9275Y228950D01*
X9281Y228925D01*
X9286Y228906D01*
X9289Y228886D01*
X9292Y228873D01*
X9295Y228864D01*
X9297Y228859D01*
Y228856D01*
X9320Y228795D01*
X9342Y228745D01*
X9364Y228704D01*
X9386Y228668D01*
X9403Y228643D01*
X9419Y228623D01*
X9430Y228612D01*
X9433Y228609D01*
X9466Y228585D01*
X9500Y228562D01*
X9536Y228543D01*
X9569Y228526D01*
X9597Y228515D01*
X9619Y228507D01*
X9635Y228504D01*
X9638Y228501D01*
X9641D01*
X9660Y228499D01*
X9683Y228493D01*
X9730Y228487D01*
X9782Y228485D01*
X9835Y228482D01*
X9879Y228479D01*
X10339D01*
Y230172D01*
D02*
G37*
G36*
X2706Y230657D02*
X2157D01*
X1132Y228100D01*
X1695D01*
X1919Y228682D01*
X2941D01*
X3154Y228100D01*
X3700D01*
X2706Y230657D01*
D02*
G37*
%LPD*%
G36*
X2783Y229114D02*
X2082D01*
X2437Y230061D01*
X2783Y229114D01*
D02*
G37*
%LPC*%
G36*
X-9561Y230372D02*
X-9899D01*
X-9946Y230369D01*
X-9990D01*
X-10029Y230366D01*
X-10065Y230363D01*
X-10096Y230361D01*
X-10121D01*
X-10146Y230358D01*
X-10165Y230355D01*
X-10182Y230352D01*
X-10193Y230349D01*
X-10204D01*
X-10209Y230347D01*
X-10215D01*
X-10267Y230333D01*
X-10315Y230313D01*
X-10356Y230294D01*
X-10389Y230275D01*
X-10417Y230255D01*
X-10439Y230239D01*
X-10450Y230228D01*
X-10456Y230225D01*
X-10489Y230189D01*
X-10520Y230150D01*
X-10544Y230108D01*
X-10564Y230070D01*
X-10580Y230034D01*
X-10594Y230003D01*
X-10597Y229995D01*
X-10600Y229987D01*
X-10603Y229981D01*
Y229978D01*
X-10611Y229948D01*
X-10619Y229915D01*
X-10633Y229840D01*
X-10641Y229765D01*
X-10650Y229693D01*
Y229657D01*
X-10652Y229626D01*
Y229599D01*
X-10655Y229574D01*
Y229552D01*
Y229538D01*
Y229527D01*
Y229524D01*
Y229471D01*
X-10652Y229419D01*
X-10650Y229372D01*
X-10647Y229325D01*
X-10644Y229283D01*
X-10639Y229247D01*
X-10633Y229211D01*
X-10630Y229178D01*
X-10625Y229150D01*
X-10619Y229125D01*
X-10614Y229106D01*
X-10611Y229086D01*
X-10608Y229073D01*
X-10605Y229064D01*
X-10603Y229059D01*
Y229056D01*
X-10580Y228995D01*
X-10558Y228945D01*
X-10536Y228904D01*
X-10514Y228868D01*
X-10497Y228843D01*
X-10481Y228823D01*
X-10470Y228812D01*
X-10467Y228809D01*
X-10434Y228784D01*
X-10400Y228762D01*
X-10364Y228743D01*
X-10331Y228726D01*
X-10303Y228715D01*
X-10281Y228707D01*
X-10265Y228704D01*
X-10262Y228701D01*
X-10259D01*
X-10240Y228699D01*
X-10217Y228693D01*
X-10170Y228688D01*
X-10118Y228685D01*
X-10065Y228682D01*
X-10021Y228679D01*
X-9561D01*
Y230372D01*
D02*
G37*
G36*
X1279Y251857D02*
X284D01*
X256Y251854D01*
X193D01*
X157Y251851D01*
X79Y251846D01*
X-1Y251835D01*
X-79Y251823D01*
X-115Y251815D01*
X-148Y251807D01*
X-151D01*
X-159Y251804D01*
X-170Y251799D01*
X-187Y251793D01*
X-206Y251787D01*
X-228Y251776D01*
X-281Y251751D01*
X-342Y251721D01*
X-406Y251679D01*
X-469Y251630D01*
X-533Y251571D01*
X-536Y251569D01*
X-541Y251563D01*
X-550Y251555D01*
X-561Y251541D01*
X-572Y251524D01*
X-588Y251505D01*
X-605Y251483D01*
X-624Y251455D01*
X-644Y251427D01*
X-663Y251397D01*
X-705Y251325D01*
X-744Y251244D01*
X-777Y251156D01*
Y251153D01*
X-780Y251145D01*
X-785Y251131D01*
X-791Y251112D01*
X-796Y251089D01*
X-805Y251059D01*
X-813Y251026D01*
X-821Y250990D01*
X-827Y250948D01*
X-835Y250901D01*
X-843Y250851D01*
X-849Y250799D01*
X-854Y250740D01*
X-860Y250682D01*
X-863Y250619D01*
D01*
Y250499D01*
X-860Y250472D01*
Y250441D01*
X-857Y250405D01*
X-852Y250366D01*
X-843Y250281D01*
X-829Y250189D01*
X-810Y250098D01*
X-782Y250009D01*
Y250006D01*
X-777Y249998D01*
X-771Y249981D01*
X-766Y249962D01*
X-755Y249940D01*
X-744Y249912D01*
X-730Y249882D01*
X-713Y249849D01*
X-674Y249776D01*
X-627Y249702D01*
X-572Y249627D01*
X-508Y249558D01*
X-505Y249555D01*
X-503Y249552D01*
X-494Y249544D01*
X-483Y249535D01*
X-469Y249524D01*
X-455Y249511D01*
X-436Y249497D01*
X-414Y249483D01*
X-361Y249450D01*
X-300Y249416D01*
X-228Y249383D01*
X-148Y249353D01*
X-145D01*
X-140Y249350D01*
X-131Y249347D01*
X-117Y249344D01*
X-101Y249342D01*
X-79Y249336D01*
X-54Y249330D01*
X-26Y249328D01*
X4Y249322D01*
X38Y249317D01*
X76Y249311D01*
X118Y249308D01*
X160Y249306D01*
X207Y249303D01*
X256Y249300D01*
X1279D01*
Y251857D01*
D02*
G37*
G36*
X6500D02*
X5943D01*
X5295Y249965D01*
X4669Y251857D01*
X4121D01*
X5035Y249300D01*
X5589D01*
X6500Y251857D01*
D02*
G37*
G36*
X3857D02*
X2863D01*
X2835Y251854D01*
X2772D01*
X2736Y251851D01*
X2658Y251846D01*
X2578Y251835D01*
X2500Y251823D01*
X2464Y251815D01*
X2431Y251807D01*
X2428D01*
X2420Y251804D01*
X2409Y251799D01*
X2392Y251793D01*
X2373Y251787D01*
X2351Y251776D01*
X2298Y251751D01*
X2237Y251721D01*
X2173Y251679D01*
X2110Y251630D01*
X2046Y251571D01*
X2043Y251569D01*
X2038Y251563D01*
X2029Y251555D01*
X2018Y251541D01*
X2007Y251524D01*
X1990Y251505D01*
X1974Y251483D01*
X1954Y251455D01*
X1935Y251427D01*
X1916Y251397D01*
X1874Y251325D01*
X1835Y251244D01*
X1802Y251156D01*
Y251153D01*
X1799Y251145D01*
X1794Y251131D01*
X1788Y251112D01*
X1783Y251089D01*
X1774Y251059D01*
X1766Y251026D01*
X1758Y250990D01*
X1752Y250948D01*
X1744Y250901D01*
X1736Y250851D01*
X1730Y250799D01*
X1725Y250740D01*
X1719Y250682D01*
X1716Y250619D01*
Y250499D01*
X1719Y250472D01*
Y250441D01*
X1722Y250405D01*
X1727Y250366D01*
X1736Y250281D01*
X1749Y250189D01*
X1769Y250098D01*
X1797Y250009D01*
Y250006D01*
X1802Y249998D01*
X1808Y249981D01*
X1813Y249962D01*
X1824Y249940D01*
X1835Y249912D01*
X1849Y249882D01*
X1866Y249849D01*
X1905Y249776D01*
X1952Y249702D01*
X2007Y249627D01*
X2071Y249558D01*
X2073Y249555D01*
X2076Y249552D01*
X2085Y249544D01*
X2096Y249535D01*
X2110Y249524D01*
X2123Y249511D01*
X2143Y249497D01*
X2165Y249483D01*
X2218Y249450D01*
X2279Y249416D01*
X2351Y249383D01*
X2431Y249353D01*
X2434D01*
X2439Y249350D01*
X2448Y249347D01*
X2461Y249344D01*
X2478Y249342D01*
X2500Y249336D01*
X2525Y249330D01*
X2553Y249328D01*
X2583Y249322D01*
X2616Y249317D01*
X2655Y249311D01*
X2697Y249308D01*
X2738Y249306D01*
X2785Y249303D01*
X2835Y249300D01*
X3857D01*
Y251857D01*
D02*
G37*
G36*
X2795Y249300D02*
X1716D01*
D01*
X2795D01*
D02*
G37*
%LPD*%
G36*
X763Y249732D02*
X304D01*
X259Y249735D01*
X207Y249738D01*
X154Y249740D01*
X107Y249746D01*
X85Y249751D01*
X65Y249754D01*
X62D01*
X60Y249757D01*
X43Y249760D01*
X21Y249768D01*
X-7Y249779D01*
X-40Y249796D01*
X-76Y249815D01*
X-109Y249837D01*
X-143Y249862D01*
X-145Y249865D01*
X-156Y249876D01*
X-173Y249896D01*
X-190Y249921D01*
X-212Y249956D01*
X-234Y249998D01*
X-256Y250048D01*
X-278Y250109D01*
Y250112D01*
X-281Y250117D01*
X-284Y250126D01*
X-286Y250139D01*
X-289Y250159D01*
X-295Y250178D01*
X-300Y250203D01*
X-306Y250231D01*
X-309Y250264D01*
X-314Y250300D01*
X-320Y250336D01*
X-323Y250377D01*
X-325Y250425D01*
X-328Y250472D01*
X-331Y250524D01*
Y250577D01*
Y250580D01*
Y250591D01*
Y250605D01*
Y250627D01*
X-328Y250652D01*
Y250679D01*
X-325Y250710D01*
Y250746D01*
X-317Y250818D01*
X-309Y250893D01*
X-295Y250968D01*
X-286Y251001D01*
X-278Y251031D01*
Y251034D01*
X-275Y251040D01*
X-273Y251048D01*
X-270Y251056D01*
X-256Y251087D01*
X-239Y251123D01*
X-220Y251161D01*
X-195Y251203D01*
X-165Y251242D01*
X-131Y251278D01*
X-126Y251280D01*
X-115Y251292D01*
X-93Y251308D01*
X-65Y251328D01*
X-32Y251347D01*
X10Y251366D01*
X57Y251386D01*
X110Y251400D01*
X115D01*
X121Y251402D01*
X132D01*
X143Y251405D01*
X160Y251408D01*
X179Y251411D01*
X204Y251413D01*
X229D01*
X259Y251416D01*
X295Y251419D01*
X334Y251422D01*
X378D01*
X425Y251425D01*
X763D01*
Y249732D01*
D02*
G37*
G36*
X3342D02*
X2882D01*
X2838Y249735D01*
X2785Y249738D01*
X2733Y249740D01*
X2686Y249746D01*
X2664Y249751D01*
X2644Y249754D01*
X2641D01*
X2639Y249757D01*
X2622Y249760D01*
X2600Y249768D01*
X2572Y249779D01*
X2539Y249796D01*
X2503Y249815D01*
X2470Y249837D01*
X2436Y249862D01*
X2434Y249865D01*
X2423Y249876D01*
X2406Y249896D01*
X2389Y249921D01*
X2367Y249956D01*
X2345Y249998D01*
X2323Y250048D01*
X2301Y250109D01*
Y250112D01*
X2298Y250117D01*
X2295Y250126D01*
X2292Y250139D01*
X2290Y250159D01*
X2284Y250178D01*
X2279Y250203D01*
X2273Y250231D01*
X2270Y250264D01*
X2265Y250300D01*
X2259Y250336D01*
X2256Y250377D01*
X2254Y250425D01*
X2251Y250472D01*
X2248Y250524D01*
Y250577D01*
Y250580D01*
Y250591D01*
Y250605D01*
Y250627D01*
X2251Y250652D01*
Y250679D01*
X2254Y250710D01*
Y250746D01*
X2262Y250818D01*
X2270Y250893D01*
X2284Y250968D01*
X2292Y251001D01*
X2301Y251031D01*
Y251034D01*
X2303Y251040D01*
X2306Y251048D01*
X2309Y251056D01*
X2323Y251087D01*
X2340Y251123D01*
X2359Y251161D01*
X2384Y251203D01*
X2414Y251242D01*
X2448Y251278D01*
X2453Y251280D01*
X2464Y251292D01*
X2486Y251308D01*
X2514Y251328D01*
X2547Y251347D01*
X2589Y251366D01*
X2636Y251386D01*
X2688Y251400D01*
X2694D01*
X2700Y251402D01*
X2711D01*
X2722Y251405D01*
X2738Y251408D01*
X2758Y251411D01*
X2783Y251413D01*
X2808D01*
X2838Y251416D01*
X2874Y251419D01*
X2913Y251422D01*
X2957D01*
X3004Y251425D01*
X3342D01*
Y249732D01*
D02*
G37*
%LPC*%
G36*
X10439Y251372D02*
X10101D01*
X10054Y251369D01*
X10010D01*
X9971Y251366D01*
X9935Y251363D01*
X9904Y251361D01*
X9879D01*
X9854Y251358D01*
X9835Y251355D01*
X9819Y251352D01*
X9807Y251349D01*
X9796D01*
X9791Y251347D01*
X9785D01*
X9733Y251333D01*
X9685Y251313D01*
X9644Y251294D01*
X9611Y251275D01*
X9583Y251255D01*
X9561Y251239D01*
X9550Y251228D01*
X9544Y251225D01*
X9511Y251189D01*
X9481Y251150D01*
X9456Y251109D01*
X9436Y251070D01*
X9420Y251034D01*
X9406Y251003D01*
X9403Y250995D01*
X9400Y250987D01*
X9397Y250981D01*
Y250978D01*
X9389Y250948D01*
X9381Y250915D01*
X9367Y250840D01*
X9359Y250765D01*
X9350Y250693D01*
Y250657D01*
X9348Y250626D01*
Y250599D01*
X9345Y250574D01*
Y250552D01*
Y250538D01*
Y250527D01*
Y250524D01*
Y250471D01*
X9348Y250419D01*
X9350Y250372D01*
X9353Y250325D01*
X9356Y250283D01*
X9361Y250247D01*
X9367Y250211D01*
X9370Y250178D01*
X9375Y250150D01*
X9381Y250125D01*
X9386Y250106D01*
X9389Y250086D01*
X9392Y250073D01*
X9395Y250064D01*
X9397Y250059D01*
Y250056D01*
X9420Y249995D01*
X9442Y249945D01*
X9464Y249904D01*
X9486Y249868D01*
X9503Y249843D01*
X9519Y249823D01*
X9530Y249812D01*
X9533Y249809D01*
X9566Y249784D01*
X9600Y249762D01*
X9636Y249743D01*
X9669Y249726D01*
X9697Y249715D01*
X9719Y249707D01*
X9735Y249704D01*
X9738Y249701D01*
X9741D01*
X9760Y249699D01*
X9782Y249693D01*
X9830Y249688D01*
X9882Y249685D01*
X9935Y249682D01*
X9979Y249679D01*
X10439D01*
Y251372D01*
D02*
G37*
%LPD*%
M02*
